<svg width="1440" height="807" viewBox="0 0 1440 807" fill="none" xmlns="http://www.w3.org/2000/svg">
<path d="M-64.9428 43.3104C65.52 -46.507 138.557 91.7741 327.279 43.3104C516 -5.15338 525.5 82.8459 719.5 43.3104C913.5 3.77485 976 79.7747 1127.5 43.3104C1279 6.84604 1373.48 -46.507 1503.94 43.3104C1716.02 189.315 1716.02 610.843 1503.94 756.847C1373.48 846.664 1392 691.846 1111.72 756.847C831.443 821.848 773 776.848 719.5 756.847C666 736.846 507.5 717.846 327.279 756.847C147.057 795.848 65.52 846.664 -64.9428 756.847C-277.019 610.843 -277.019 189.315 -64.9428 43.3104Z" fill="#F9FBFC"/>
</svg>
