<svg width="350" height="307" viewBox="0 0 350 307" fill="none" xmlns="http://www.w3.org/2000/svg">
<path d="M179.893 224.728H318.57L321.454 174.84H177.009L179.893 224.728Z" fill="#EBEBEB"/>
<path d="M311.997 197.679H254.016L252.931 180.358H313.264L311.997 197.679ZM254.681 197.065H311.339L312.515 180.972H253.673L254.681 197.065Z" fill="#DBDBDB"/>
<path d="M310.926 217.602H256.291L255.402 201.969H312.039L310.926 217.602ZM256.956 216.988H310.268L311.297 202.583H256.137L256.956 216.988Z" fill="#DBDBDB"/>
<path d="M288.589 190.884H278.845L278.236 186.705H289.205L288.589 190.884ZM279.489 190.271H288.001L288.435 187.318H279.055L279.489 190.271Z" fill="#DBDBDB"/>
<path d="M288.589 211.876H278.845L278.236 207.696H289.205L288.589 211.876ZM279.489 211.262H288.001L288.435 208.31H279.055L279.489 211.262Z" fill="#DBDBDB"/>
<path d="M243.803 197.679H185.822L184.737 180.358H245.07L243.803 197.679ZM186.487 197.065H243.145L244.3 180.972H185.5L186.487 197.065Z" fill="#DBDBDB"/>
<path d="M242.732 217.602H188.097L187.208 201.969H243.845L242.732 217.602ZM188.762 216.988H242.074L243.103 202.583H187.943L188.762 216.988Z" fill="#DBDBDB"/>
<path d="M220.394 190.884H210.65L210.042 186.705H221.01L220.394 190.884ZM211.295 190.271H219.799L220.233 187.318H210.854L211.295 190.271Z" fill="#DBDBDB"/>
<path d="M220.394 211.876H210.65L210.042 207.696H221.01L220.394 211.876ZM211.295 211.262H219.799L220.233 208.31H210.854L211.295 211.262Z" fill="#DBDBDB"/>
<path d="M192.332 224.728L191.457 230.166L189.707 241.085H186.284V224.728H192.332Z" fill="#EBEBEB"/>
<path d="M192.332 224.728L191.457 230.166H186.284V224.728H192.332Z" fill="#DBDBDB"/>
<path d="M306.131 224.728L306.999 230.166L308.756 241.085H312.179V224.728H306.131Z" fill="#EBEBEB"/>
<path d="M306.131 224.728L306.999 230.166H312.179V224.728H306.131Z" fill="#DBDBDB"/>
<path d="M175 290.261C244.758 290.261 301.308 283.801 301.308 275.831C301.308 267.862 244.758 261.401 175 261.401C105.242 261.401 48.6924 267.862 48.6924 275.831C48.6924 283.801 105.242 290.261 175 290.261Z" fill="#EBEBEB"/>
<path d="M59.1363 260.039C80.0204 260.039 96.9503 256.483 96.9503 252.096C96.9503 247.71 80.0204 244.154 59.1363 244.154C38.2522 244.154 21.3223 247.71 21.3223 252.096C21.3223 256.483 38.2522 260.039 59.1363 260.039Z" fill="#EBEBEB"/>
<path d="M23.3799 241.086L61.2849 240.938L99.1899 240.883L175 240.784L250.81 240.883L288.715 240.938L326.62 241.086L288.715 241.239L250.81 241.295L175 241.393L99.1899 241.295L61.2849 241.239L23.3799 241.086Z" fill="#263238"/>
<path d="M60.2492 134.791C60.2492 134.791 41.4262 132.484 45.8222 112.554C45.8222 112.554 66.8572 116.697 60.2492 134.791Z" fill="#FEC7A0"/>
<path opacity="0.1" d="M60.2492 134.791C60.2492 134.791 41.4262 132.484 45.8222 112.554C45.8222 112.554 66.8572 116.697 60.2492 134.791Z" fill="black"/>
<path d="M59.2967 130.63C58.929 129.623 58.5014 128.633 58.0157 127.665C58.0157 127.537 58.0157 127.408 57.9667 127.285C57.9667 127.009 57.9107 126.739 57.8897 126.462C57.8337 125.849 57.7917 125.272 57.7497 124.676C57.6727 123.486 57.5887 122.295 57.5677 121.104C57.5677 121.037 57.4487 121.043 57.4487 121.104C57.4487 122.301 57.4487 123.492 57.4487 124.683C57.4487 125.296 57.5187 125.873 57.5607 126.469C57.5607 126.604 57.5607 126.733 57.5607 126.868C56.5028 124.883 55.2374 122.988 53.7807 121.209C53.167 120.415 52.5057 119.651 51.7997 118.919C51.0507 118.164 50.2597 117.446 49.4967 116.703C49.4477 116.654 49.3707 116.703 49.4197 116.777C50.7714 118.088 51.985 119.503 53.0457 121.006C53.6197 121.761 54.1587 122.54 54.6767 123.332L54.5017 123.277L53.8017 123.038L52.2617 122.528C51.2537 122.197 50.2457 121.878 49.2377 121.54C49.1747 121.54 49.1327 121.614 49.1957 121.632C50.1967 121.982 51.1837 122.35 52.1777 122.725L53.6337 123.277L54.3687 123.541C54.5264 123.61 54.6934 123.662 54.8657 123.694C55.2437 124.308 55.6217 124.891 55.9717 125.505C56.8447 127.049 57.6114 128.637 58.2677 130.262C58.3167 130.372 58.3587 130.489 58.4077 130.605C57.9105 130.355 57.3935 130.135 56.8607 129.949L54.9147 129.175C53.5917 128.641 52.2827 128.101 51.0157 127.475C51.0027 127.469 50.9873 127.467 50.9729 127.47C50.9584 127.474 50.9461 127.482 50.9387 127.494C50.9313 127.505 50.9293 127.519 50.9333 127.531C50.9372 127.544 50.9467 127.555 50.9597 127.561C52.2547 128.175 53.5217 128.844 54.8167 129.458C55.4677 129.765 56.1187 130.071 56.7837 130.348C57.331 130.633 57.9264 130.84 58.5477 130.961C59.1793 132.472 59.5955 134.045 59.7867 135.645C59.9967 137.897 59.9757 140.168 60.0387 142.427H60.1017C60.2907 140.377 60.3957 138.308 60.4097 136.252C60.3822 134.338 60.0065 132.44 59.2967 130.63Z" fill="#263238"/>
<path d="M56.3992 118.913C56.2174 120.078 56.1542 121.255 56.2102 122.43C56.2102 122.461 56.2662 122.461 56.2662 122.43C56.3432 121.264 56.3572 120.098 56.5112 118.938C56.5182 118.876 56.4062 118.852 56.3992 118.913Z" fill="#263238"/>
<path d="M51.0159 119.913C50.1743 119.63 49.3637 119.281 48.5939 118.87C48.5309 118.833 48.4749 118.925 48.5379 118.956C49.292 119.402 50.1177 119.748 50.9879 119.981C51.0299 119.993 51.0999 119.932 51.0159 119.913Z" fill="#263238"/>
<path d="M60.8508 166.425C60.8508 164.584 60.7948 162.78 60.7738 160.957C60.7318 154.899 60.6758 148.841 60.5498 142.783C60.4518 137.971 60.3234 133.163 60.1648 128.359C60.1643 128.347 60.1602 128.334 60.1528 128.324C60.1455 128.313 60.1351 128.304 60.1228 128.298C60.1228 126.984 60.1228 125.671 60.1228 124.357C60.1228 124.32 60.0808 124.308 60.0318 124.308C59.9828 124.308 59.9408 124.308 59.9478 124.357C59.9478 125.675 59.9478 126.99 59.9478 128.304C59.9478 128.304 59.8988 128.334 59.8988 128.359C59.6258 136.952 59.3808 145.477 59.3178 154.039C59.3178 155.783 59.3178 157.52 59.3178 159.263C59.2478 164.84 59.2221 170.421 59.2408 176.006C59.2408 176.89 59.2408 177.78 59.2408 178.67C59.2408 183.777 59.3038 188.884 59.3038 194.015C59.3038 194.285 59.6538 194.426 60.0038 194.438C60.3538 194.45 60.8788 194.303 60.8788 193.99C60.8788 188.362 60.9208 182.727 60.9208 177.099C60.8998 173.527 60.8998 169.973 60.8508 166.425Z" fill="#263238"/>
<path d="M52.99 160.883C52.99 160.883 43.932 155.003 35.343 158.968C26.754 162.933 25.396 178.265 25.396 178.265C25.396 178.265 37.996 179.849 45.962 173.214C53.62 166.831 52.99 160.883 52.99 160.883Z" fill="#FEC7A0"/>
<path d="M55.4542 161.245C53.7912 160.664 51.9899 160.453 50.2112 160.631C49.8459 160.574 49.4762 160.542 49.1052 160.533L47.8242 160.447L45.1852 160.288C43.4002 160.171 41.6082 160.073 39.8232 159.913C39.8109 159.917 39.8001 159.924 39.7926 159.933C39.785 159.943 39.7809 159.954 39.7809 159.965C39.7809 159.977 39.785 159.988 39.7926 159.998C39.8001 160.007 39.8109 160.014 39.8232 160.018C41.5872 160.214 43.3232 160.435 45.1082 160.588C46.0182 160.668 46.9282 160.754 47.8452 160.809L48.5032 160.865C48.2372 160.92 47.9642 160.975 47.6982 161.043C46.2775 161.405 44.903 161.895 43.5962 162.503C42.8962 162.614 42.1962 162.792 41.4962 162.933C40.3762 163.166 39.2632 163.418 38.1502 163.676C35.9522 164.179 33.7752 164.75 31.5912 165.308C31.5212 165.308 31.5562 165.419 31.5912 165.4C33.7682 164.934 35.9662 164.504 38.1502 164.05L41.3282 163.381L42.1612 163.209C39.7316 164.534 37.5597 166.192 35.7282 168.12C33.9656 170.022 32.4664 172.101 31.2622 174.313C31.2622 174.368 31.3182 174.423 31.3602 174.368C32.8509 172.107 34.6697 170.025 36.7712 168.175C36.7292 168.279 36.6942 168.39 36.6522 168.494L36.1482 169.893C35.8122 170.832 35.4482 171.765 35.1542 172.704C35.1542 172.766 35.2452 172.784 35.2662 172.704C35.6512 171.796 36.0152 170.863 36.3792 169.973C36.5542 169.525 36.7362 169.083 36.9112 168.635C37.0092 168.402 37.1002 168.169 37.1842 167.935C37.1842 167.868 37.2472 167.794 37.2752 167.721C38.2843 166.861 39.3552 166.06 40.4812 165.321C41.9763 164.362 43.5894 163.552 45.2902 162.909C45.2902 163.044 45.2342 163.185 45.1992 163.314C45.1082 163.676 45.0172 164.038 44.9332 164.4C44.7582 165.149 44.5902 165.904 44.4222 166.659C44.0792 168.193 43.8692 169.728 43.5402 171.287C43.5402 171.354 43.6382 171.379 43.6522 171.287C44.0582 169.74 44.5832 168.218 44.9752 166.671C45.1712 165.898 45.3672 165.124 45.5562 164.351L45.8082 163.258C45.8502 163.056 45.9062 162.853 45.9342 162.645L46.4242 162.467C48.7972 161.693 51.4222 161.135 53.9562 161.564C55.1548 161.759 56.2799 162.211 57.2313 162.879C58.1827 163.547 58.9309 164.411 59.4092 165.394C59.4932 165.566 59.8012 165.456 59.7522 165.278C59.2622 163.4 57.4492 161.982 55.4542 161.245Z" fill="#263238"/>
<path d="M41.5942 167.788C41.3422 168.795 41.0832 169.801 40.8312 170.808C40.5451 171.772 40.3346 172.752 40.2012 173.742C40.2012 173.785 40.2572 173.785 40.2712 173.742C40.6045 172.774 40.8618 171.788 41.0412 170.789C41.2652 169.795 41.4892 168.801 41.7062 167.806C41.7202 167.751 41.6082 167.727 41.5942 167.788Z" fill="#263238"/>
<path d="M32.8368 170.347C31.6818 170.857 30.5688 171.44 29.3368 171.864C29.3299 171.866 29.3236 171.869 29.3183 171.874C29.313 171.879 29.3088 171.884 29.3058 171.89C29.3029 171.896 29.3014 171.902 29.3013 171.909C29.3012 171.915 29.3026 171.922 29.3053 171.928C29.3081 171.934 29.3122 171.939 29.3173 171.944C29.3225 171.949 29.3287 171.953 29.3355 171.955C29.3424 171.958 29.3497 171.959 29.3571 171.959C29.3645 171.959 29.3719 171.958 29.3788 171.956C30.5838 171.488 31.7592 170.963 32.8998 170.384C32.8998 170.384 32.8998 170.335 32.8368 170.347Z" fill="#263238"/>
<path d="M55.0269 150.081C55.0269 150.081 43.9599 150.694 38.8079 144.305C33.6559 137.916 34.8179 128.764 34.8179 128.764C34.8179 128.764 46.4449 129.992 51.0579 134.601C55.6709 139.211 55.0269 150.081 55.0269 150.081Z" fill="#FEC7A0"/>
<path d="M60.2 159.656C59.815 158.618 59.339 157.593 58.891 156.587C58.443 155.58 58.002 154.635 57.491 153.677C56.5054 151.722 55.4001 149.814 54.18 147.963C53.396 146.785 52.556 145.637 51.695 144.508C51.695 144.336 51.639 144.164 51.611 143.992C51.562 143.691 51.513 143.378 51.457 143.09C51.345 142.476 51.226 141.862 51.107 141.248C50.855 139.904 50.54 138.572 50.295 137.234C50.295 137.173 50.169 137.173 50.183 137.234C50.4 138.56 50.554 139.892 50.764 141.218C50.869 141.868 50.967 142.519 51.079 143.169L51.205 143.875C49.5171 141.709 47.6894 139.629 45.731 137.645L44.968 136.872C44.968 136.798 44.898 136.725 44.863 136.651C44.779 136.467 44.702 136.283 44.625 136.093C44.457 135.712 44.303 135.325 44.142 134.939C43.834 134.178 43.554 133.41 43.316 132.631C43.316 132.57 43.19 132.6 43.211 132.631C43.435 133.429 43.666 134.221 43.911 135.006C44.044 135.387 44.184 135.761 44.338 136.136C44.338 136.197 44.387 136.258 44.415 136.32C43.015 134.969 41.524 133.668 40.033 132.379C39.984 132.336 39.907 132.379 39.956 132.453C42.8157 135.077 45.437 137.892 47.796 140.874C47.5276 140.8 47.254 140.74 46.977 140.696C46.123 140.549 45.269 140.444 44.408 140.346C42.602 140.144 40.803 139.947 39.011 139.696C38.934 139.696 38.906 139.781 39.011 139.794C40.726 140.088 42.42 140.407 44.128 140.776C44.933 140.935 45.738 141.07 46.543 141.212C47.2033 141.335 47.8534 141.497 48.489 141.696C48.664 141.924 48.853 142.144 49.028 142.372C49.84 143.403 50.617 144.465 51.38 145.526L50.253 145.336C49.399 145.189 48.538 145.054 47.684 144.931C45.997 144.686 44.303 144.428 42.637 144.096C42.567 144.096 42.539 144.182 42.637 144.194C44.331 144.544 46.004 144.949 47.684 145.342C48.496 145.533 49.315 145.704 50.134 145.864L51.359 146.097C51.5241 146.135 51.6928 146.16 51.863 146.171C53.48 148.466 54.992 150.823 56.399 153.223C57.015 154.279 57.61 155.347 58.184 156.415C58.758 157.483 59.283 158.643 59.829 159.76C59.906 159.993 60.305 159.901 60.2 159.656Z" fill="#263238"/>
<path d="M48.8883 137.357C48.6783 136.43 48.4543 135.516 48.1883 134.583C48.1883 134.521 48.0623 134.552 48.0763 134.583C48.2863 135.491 48.4893 136.424 48.6783 137.314C48.8327 138.229 49.0406 139.137 49.3013 140.033C49.2353 139.134 49.0973 138.239 48.8883 137.357Z" fill="#263238"/>
<path d="M42.4342 137.087C41.9232 136.86 41.3772 136.682 40.8452 136.473L40.0052 136.185L39.5782 136.037C39.4146 135.991 39.2574 135.929 39.1092 135.853C39.0252 135.804 38.9762 135.927 39.0602 135.939C39.2244 135.978 39.382 136.036 39.5292 136.111L39.9492 136.277L40.7612 136.59C41.2916 136.808 41.8362 136.999 42.3922 137.161C42.4552 137.204 42.4972 137.111 42.4342 137.087Z" fill="#263238"/>
<path d="M66.353 142.451C66.353 142.451 73.052 131.483 83.237 129.783C93.422 128.083 99.666 137.277 99.666 137.277C99.666 137.277 92.232 145.6 82.866 147.055C73.5 148.509 66.353 142.451 66.353 142.451Z" fill="#FEC7A0"/>
<path d="M90.0692 134.699C87.4141 134.384 84.7206 134.413 82.0752 134.785L82.5302 134.57L84.7912 133.552C86.3446 132.798 87.9403 132.114 89.5722 131.502C89.6492 131.471 89.5722 131.379 89.5302 131.409C87.9342 132.06 86.2822 132.637 84.6862 133.251C83.8812 133.57 83.0972 133.908 82.3202 134.27C81.8162 134.503 81.2632 134.724 80.7662 135.006C78.5281 135.4 76.3535 136.033 74.2912 136.891L75.5652 135.663C76.5102 134.748 77.4482 133.791 78.4912 132.962C78.5472 132.919 78.4912 132.852 78.4072 132.895C77.3432 133.742 76.2162 134.527 75.1802 135.411C74.6832 135.841 74.2002 136.283 73.7312 136.743C73.5002 136.97 73.2622 137.204 73.0312 137.449C69.5319 139.092 66.4916 141.394 64.1289 144.191C61.7662 146.987 60.1399 150.208 59.3672 153.622C59.3672 153.683 59.4582 153.714 59.4792 153.653C60.9142 149.471 63.4843 145.657 66.9692 142.537C70.7249 139.194 75.4488 136.811 80.6332 135.645C83.7085 134.957 86.8891 134.705 90.0552 134.896C90.0849 134.897 90.1141 134.889 90.1364 134.871C90.1587 134.854 90.1723 134.83 90.1742 134.804C90.176 134.778 90.166 134.752 90.1463 134.732C90.1266 134.713 90.0989 134.701 90.0692 134.699Z" fill="#263238"/>
<path opacity="0.1" d="M99.6658 137.277C99.6658 137.277 92.2318 145.6 82.8658 147.055C75.7328 148.159 69.8668 144.9 67.4658 143.292L66.9478 142.55C66.9478 142.55 71.7708 138.99 80.8988 136.933C90.0268 134.877 99.6658 137.277 99.6658 137.277Z" fill="black"/>
<path d="M84.1468 130.79C83.3669 131.19 82.6122 131.626 81.8858 132.097C81.1779 132.57 80.5196 133.098 79.9188 133.674C79.911 133.685 79.9078 133.698 79.9097 133.711C79.9117 133.724 79.9187 133.736 79.9295 133.744C79.9402 133.753 79.9542 133.758 79.9689 133.759C79.9835 133.76 79.998 133.756 80.0098 133.748C80.7098 133.232 81.3608 132.717 82.0678 132.232C82.7487 131.741 83.4641 131.288 84.2098 130.876C84.2162 130.872 84.2218 130.867 84.2261 130.862C84.2305 130.856 84.2336 130.85 84.2352 130.843C84.2368 130.837 84.237 130.83 84.2356 130.823C84.2343 130.817 84.2314 130.811 84.2273 130.805C84.2232 130.799 84.2178 130.794 84.2115 130.791C84.2052 130.787 84.1981 130.784 84.1907 130.783C84.1832 130.781 84.1755 130.781 84.1679 130.782C84.1604 130.783 84.1532 130.786 84.1468 130.79Z" fill="#263238"/>
<path d="M89.7401 132.643C89.3621 132.784 88.9771 132.901 88.5991 133.042L87.4651 133.453C87.3881 133.453 87.4231 133.601 87.5071 133.57L88.6411 133.165C89.0261 133.03 89.3971 132.876 89.7751 132.741C89.8451 132.717 89.8101 132.619 89.7401 132.643Z" fill="#263238"/>
<path d="M65.0161 156.255C65.0161 156.255 66.8081 167.137 76.1391 170.943C85.4701 174.748 96.8451 170.943 96.8451 170.943C96.8451 170.943 92.4001 147.404 65.0161 156.255Z" fill="#FEC7A0"/>
<path d="M90.412 163.878C89.558 163.792 88.697 163.663 87.85 163.528L86.59 163.32L85.939 163.203C85.687 163.001 85.442 162.792 85.183 162.589C83.4108 161.228 81.4986 160.014 79.471 158.962C78.3685 158.389 77.2277 157.875 76.055 157.421H76.23L79.303 157.538C81.347 157.624 83.398 157.661 85.442 157.777C85.519 157.777 85.512 157.685 85.442 157.679C83.384 157.556 81.34 157.36 79.289 157.206L76.307 156.973L74.767 156.857L74.375 156.82C73.843 156.642 73.311 156.476 72.765 156.329C70.2216 155.563 67.4857 155.432 64.862 155.948C62.517 156.476 60.172 157.826 59.563 159.993C59.563 160.067 59.675 160.122 59.71 160.048C60.585 158.207 62.881 157.317 64.953 156.943C66.3384 156.712 67.7582 156.687 69.153 156.869C69.2471 157.429 69.4042 157.98 69.622 158.514C69.881 159.281 70.133 160.048 70.399 160.809C70.931 162.338 71.512 163.878 72.03 165.382C72.03 165.395 72.0359 165.408 72.0464 165.417C72.0569 165.426 72.0711 165.431 72.086 165.431C72.1008 165.431 72.1151 165.426 72.1256 165.417C72.1361 165.408 72.142 165.395 72.142 165.382C71.708 163.854 71.337 162.313 70.917 160.779C70.714 160.03 70.497 159.281 70.287 158.532C70.165 158.009 70.0084 157.493 69.818 156.986C70.6355 157.111 71.4442 157.276 72.24 157.483C73.6715 157.858 75.0743 158.314 76.44 158.845C76.573 159.619 76.776 160.386 76.979 161.153C77.231 162.111 77.518 163.062 77.861 164.001C77.865 164.01 77.8721 164.019 77.8815 164.024C77.8909 164.03 77.9021 164.033 77.9135 164.033C77.9249 164.033 77.9361 164.03 77.9455 164.024C77.9549 164.019 77.962 164.01 77.966 164.001L77.924 163.823C77.714 162.933 77.49 162.043 77.273 161.153C77.105 160.435 76.944 159.717 76.769 159.005C77.9312 159.458 79.0667 159.962 80.171 160.515C80.171 160.736 80.255 160.963 80.29 161.165C80.36 161.534 80.437 161.908 80.514 162.282C80.689 163.117 80.878 163.958 81.109 164.787C81.5313 166.392 82.0667 167.972 82.712 169.519C82.704 169.528 82.6997 169.538 82.6997 169.55C82.6997 169.561 82.704 169.572 82.712 169.58L82.768 169.635C82.81 169.678 82.873 169.635 82.859 169.586C82.432 167.972 81.935 166.37 81.529 164.756C81.333 163.946 81.13 163.136 80.941 162.301C80.85 161.896 80.766 161.491 80.675 161.073L80.612 160.711C81.8688 161.357 83.0819 162.066 84.245 162.835C86.2592 164.157 88.1229 165.648 89.81 167.285C89.873 167.352 90.006 167.285 89.943 167.187C89.2503 166.362 88.5097 165.569 87.724 164.811C87.255 164.369 86.765 163.94 86.268 163.522H86.422C86.863 163.59 87.297 163.645 87.738 163.694C88.599 163.798 89.467 163.872 90.335 163.958C90.461 163.97 90.489 163.878 90.412 163.878Z" fill="#263238"/>
<path d="M83.8598 167.561C83.8598 167.469 83.8598 167.371 83.8038 167.279C83.7478 167.186 83.7128 167.045 83.6918 166.923C83.5028 166.192 83.3418 165.462 83.1878 164.725C83.1878 164.676 83.0898 164.688 83.0898 164.725C83.1467 165.699 83.3831 166.659 83.7898 167.567C83.7898 167.598 83.8668 167.567 83.8598 167.567V167.561Z" fill="#263238"/>
<path d="M76.048 167.383C76.048 167.383 76.048 167.334 75.992 167.334C75.726 166.37 75.474 165.407 75.25 164.437C75.131 163.927 75.012 163.418 74.9 162.909C74.837 162.632 74.781 162.356 74.725 162.08C74.7005 161.837 74.632 161.598 74.522 161.374C74.518 161.365 74.5108 161.357 74.5014 161.351C74.4921 161.345 74.4809 161.342 74.4695 161.342C74.458 161.342 74.4469 161.345 74.4375 161.351C74.4281 161.357 74.4209 161.365 74.417 161.374C74.4096 161.869 74.4899 162.362 74.655 162.835C74.767 163.363 74.886 163.897 75.019 164.425C75.292 165.499 75.593 166.567 75.943 167.622C75.9473 167.633 75.9553 167.643 75.966 167.649C75.9766 167.656 75.9894 167.659 76.0025 167.659C76.0155 167.659 76.0283 167.656 76.039 167.649C76.0496 167.643 76.0577 167.633 76.062 167.622L76.048 167.383Z" fill="#263238"/>
<path d="M89.5999 160.73C87.8919 160.527 86.1909 160.312 84.4829 160.116C84.4129 160.116 84.3849 160.208 84.4829 160.214C86.1839 160.435 87.8919 160.62 89.5999 160.828C89.5999 160.841 89.6349 160.742 89.5999 160.73Z" fill="#263238"/>
<path d="M60.2347 130.734C60.2347 130.734 54.5227 108.773 81.4377 99.8798C81.4377 99.8798 88.8997 128.795 60.2347 130.734Z" fill="#FEC7A0"/>
<path d="M66.0451 118.281L66.3321 118.127L67.8581 117.379L70.9801 115.85C73.0311 114.838 75.0611 113.794 77.1261 112.781C77.1961 112.781 77.1261 112.665 77.0701 112.695C74.9701 113.684 72.8701 114.61 70.8051 115.574L67.7181 117.004L66.4581 117.618C67.3541 116.126 68.3131 114.666 69.3701 113.254C70.7701 111.37 72.3171 109.571 73.9201 107.828C73.9368 107.813 73.9458 107.792 73.9452 107.771C73.9445 107.749 73.9343 107.729 73.9166 107.715C73.899 107.7 73.8754 107.692 73.8511 107.693C73.8269 107.693 73.8038 107.702 73.7871 107.718C71.4237 109.728 69.3353 111.974 67.5641 114.408C67.5641 114.328 67.5641 114.248 67.5641 114.175C67.5641 113.628 67.6131 113.082 67.6201 112.536C67.6201 111.462 67.5781 110.388 67.6201 109.32C67.6201 109.252 67.5081 109.258 67.5011 109.32C67.4521 110.375 67.3051 111.431 67.2351 112.487C67.2351 113.008 67.1791 113.536 67.1581 114.064C67.1581 114.346 67.1581 114.678 67.1581 114.985C66.6075 115.758 66.0778 116.542 65.5691 117.336C64.6671 118.768 63.863 120.245 63.1611 121.761C63.1611 121.215 63.0981 120.668 63.0631 120.122C62.9791 118.895 62.8181 117.722 62.7551 116.519C62.7551 116.506 62.7492 116.494 62.7387 116.485C62.7282 116.475 62.714 116.47 62.6991 116.47C62.6843 116.47 62.67 116.475 62.6595 116.485C62.649 116.494 62.6431 116.506 62.6431 116.519C62.6431 117.747 62.6431 118.925 62.6431 120.128C62.6431 120.742 62.6851 121.356 62.7271 121.933C62.7271 122.154 62.7271 122.381 62.7761 122.602C61.9203 124.565 61.2416 126.585 60.7461 128.641C60.2792 130.836 59.9451 133.051 59.7451 135.276C59.7451 135.276 59.7451 135.276 59.7451 135.276C60.0164 133.274 60.4848 131.297 61.1451 129.366C61.4741 128.328 61.8451 127.297 62.2091 126.297C63.3291 125.836 64.4001 125.259 65.4781 124.732L68.8591 123.111C71.1061 122.031 73.3461 120.932 75.6631 119.981C75.7261 119.981 75.6631 119.864 75.6001 119.895C73.2551 120.822 70.8891 121.736 68.6001 122.725C67.4521 123.234 66.3251 123.774 65.2051 124.327C64.2741 124.787 63.3081 125.247 62.4051 125.781C62.6641 125.094 62.9371 124.412 63.2381 123.743C64.0641 121.881 65.001 120.057 66.0451 118.281Z" fill="#263238"/>
<path d="M63.7772 113.254C63.7729 113.243 63.7649 113.234 63.7542 113.227C63.7435 113.22 63.7308 113.217 63.7177 113.217C63.7046 113.217 63.6919 113.22 63.6812 113.227C63.6705 113.234 63.6625 113.243 63.6582 113.254C63.7562 114.482 63.8052 115.758 63.9592 117.01C63.9592 117.025 63.9658 117.039 63.9777 117.049C63.9895 117.06 64.0055 117.066 64.0222 117.066C64.0389 117.066 64.0549 117.06 64.0667 117.049C64.0786 117.039 64.0852 117.025 64.0852 117.01C64.0362 115.758 63.8822 114.512 63.7772 113.254Z" fill="#263238"/>
<path d="M76.6783 117.452C74.9983 118.066 73.2973 118.612 71.6173 119.226C71.5753 119.226 71.6173 119.312 71.6173 119.294C73.3183 118.735 74.9913 118.127 76.6853 117.55C76.7833 117.526 76.7483 117.428 76.6783 117.452Z" fill="#263238"/>
<path d="M79.24 107.319C77.5922 107.982 75.9931 108.734 74.452 109.571C74.4409 109.582 74.434 109.596 74.4325 109.61C74.4309 109.625 74.4348 109.639 74.4434 109.652C74.4521 109.664 74.4651 109.674 74.4805 109.679C74.4959 109.685 74.5129 109.686 74.529 109.682C76.09 108.878 77.679 108.111 79.296 107.405C79.366 107.411 79.303 107.294 79.24 107.319Z" fill="#263238"/>
<path d="M78.8267 178.234H40.0117V214.11H78.8267V178.234Z" fill="#455A64"/>
<path d="M39.3327 190.934H37.3447V252.385H39.3327V190.934Z" fill="#263238"/>
<path d="M81.2981 190.934H79.3101V252.385H81.2981V190.934Z" fill="#263238"/>
<path d="M61.3689 190.934H59.3809V252.385H61.3689V190.934Z" fill="#263238"/>
<path d="M80.3039 211.814H38.3389V216.78H80.3039V211.814Z" fill="#263238"/>
<path d="M234.941 232.314C234.941 232.314 234.941 258.75 234.941 258.768C234.941 263.819 234.892 268.251 234.605 270.54C234.609 270.546 234.611 270.552 234.611 270.559C234.611 270.565 234.609 270.572 234.605 270.577C234.605 271.12 234.462 271.656 234.185 272.142L234.15 272.173C232.442 273.198 186.382 274.585 184.758 274.155C183.134 273.726 184.387 269.638 186.158 268.331C187.929 267.023 205.268 259.584 205.268 259.584L205.555 233.161L234.941 232.314Z" fill="#AD6359"/>
<path d="M234.934 253.336V258.768C234.934 263.819 234.885 268.251 234.598 270.54C234.602 270.546 234.604 270.552 234.604 270.559C234.604 270.565 234.602 270.572 234.598 270.577C234.526 271.111 234.385 271.636 234.178 272.142L234.143 272.173C232.435 273.198 186.375 274.585 184.751 274.155C183.127 273.726 184.38 269.638 186.151 268.331C187.922 267.023 205.261 259.584 205.261 259.584L205.177 254.06L234.934 253.336Z" fill="#C7C7C7"/>
<path d="M184.751 274.156C186.375 274.585 232.435 273.204 234.15 272.173C234.808 271.792 234.969 265.894 234.934 258.768V258.541L205.205 259.155L205.24 259.597C205.24 259.597 187.88 267.042 186.13 268.349C184.38 269.657 183.12 273.744 184.751 274.156Z" fill="#263238"/>
<path d="M185.206 272.578C192.969 272.173 224.301 271.203 232.001 271.351C232.064 271.351 232.064 271.387 232.001 271.394C224.301 271.934 192.983 272.689 185.213 272.713C185.052 272.689 185.045 272.584 185.206 272.578Z" fill="#455A64"/>
<path d="M202.734 259.738C205.772 259.124 209.524 259.443 211.932 261.285C212.03 261.358 211.932 261.469 211.813 261.444C208.86 260.707 205.826 260.248 202.762 260.075C202.716 260.071 202.673 260.053 202.641 260.024C202.609 259.995 202.59 259.957 202.586 259.917C202.583 259.877 202.596 259.837 202.623 259.804C202.65 259.771 202.689 259.748 202.734 259.738Z" fill="#455A64"/>
<path d="M200.578 260.972C203.609 260.358 207.368 260.677 209.776 262.518C209.867 262.586 209.776 262.702 209.65 262.678C206.697 261.94 203.663 261.481 200.599 261.309C200.553 261.304 200.511 261.285 200.48 261.256C200.449 261.226 200.431 261.188 200.428 261.148C200.426 261.108 200.439 261.068 200.467 261.036C200.494 261.004 200.533 260.981 200.578 260.972Z" fill="#455A64"/>
<path d="M198.415 262.199C201.453 261.585 205.205 261.911 207.613 263.746C207.711 263.82 207.613 263.936 207.494 263.912C204.541 263.172 201.507 262.711 198.443 262.537C198.397 262.533 198.355 262.514 198.322 262.485C198.29 262.456 198.271 262.418 198.268 262.378C198.264 262.338 198.277 262.298 198.304 262.265C198.331 262.232 198.37 262.209 198.415 262.199Z" fill="#455A64"/>
<path d="M237.58 134.313L237.552 136.062L236.425 213.312L236.418 213.606L235.753 259.879L203.511 259.314L209.734 134.405L209.818 132.735L210.133 118.244H237.363L237.58 134.313Z" fill="#455A64"/>
<path d="M204.862 254.601C209.895 254.558 208.446 254.508 213.479 254.521C215.943 254.521 232.134 254.576 234.43 254.932C234.479 254.932 234.479 255.018 234.43 255.024C232.12 255.332 215.936 255.024 213.472 254.988C208.439 254.895 209.888 254.871 204.855 254.73C204.84 254.725 204.826 254.716 204.817 254.704C204.808 254.692 204.804 254.677 204.804 254.663C204.805 254.648 204.811 254.635 204.822 254.623C204.832 254.612 204.846 254.604 204.862 254.601Z" fill="#263238"/>
<path d="M219.303 142.439C219.303 142.426 219.297 142.414 219.287 142.404C219.276 142.395 219.262 142.39 219.247 142.39C219.232 142.39 219.218 142.395 219.207 142.404C219.197 142.414 219.191 142.426 219.191 142.439C219.191 149.835 218.848 153.978 218.645 161.368C218.442 168.758 218.197 176.148 217.945 183.531C217.49 198.305 216.811 213.066 216.188 227.834C215.838 236.116 215.402 244.393 214.879 252.667C214.879 252.679 214.884 252.69 214.893 252.698C214.902 252.706 214.915 252.71 214.928 252.71C214.941 252.71 214.953 252.706 214.963 252.698C214.972 252.69 214.977 252.679 214.977 252.667C216.202 237.937 217.371 223.157 218.043 208.383C218.715 193.61 219.191 178.842 219.268 164.069C219.338 155.776 219.282 150.731 219.303 142.439Z" fill="#263238"/>
<path d="M237.573 134.313L236.425 213.312L214.816 118.244H237.356L237.573 134.313Z" fill="#263238"/>
<path d="M271.103 230.884C271.103 230.884 275.163 257.074 275.163 257.093C275.975 262.101 276.563 266.502 276.647 268.803C276.647 268.803 276.647 268.803 276.647 268.84C276.729 269.376 276.672 269.922 276.479 270.436C276.479 270.448 276.479 270.461 276.479 270.473C274.939 271.7 229.509 278.513 227.836 278.28C226.163 278.047 226.779 273.849 228.298 272.345C229.817 270.841 245.889 261.42 245.889 261.42L242.109 235.205L271.103 230.884Z" fill="#AD6359"/>
<path d="M274.33 251.716C274.33 251.716 275.163 257.074 275.163 257.093C275.975 262.101 276.563 266.502 276.647 268.803C276.647 268.803 276.647 268.803 276.647 268.84C276.66 269.376 276.604 269.911 276.479 270.436C276.479 270.448 276.479 270.461 276.479 270.473C274.939 271.7 229.509 278.513 227.836 278.28C226.163 278.047 226.779 273.849 228.298 272.345C229.817 270.841 245.889 261.42 245.889 261.42L244.93 255.945L274.33 251.716Z" fill="#C7C7C7"/>
<path d="M227.808 278.28C229.488 278.513 274.911 271.694 276.451 270.473C277.046 270.013 276.297 264.157 275.163 257.093L275.121 256.872L245.763 260.984L245.861 261.42C245.861 261.42 229.803 270.847 228.27 272.351C226.737 273.855 226.1 278.041 227.808 278.28Z" fill="#263238"/>
<path d="M228.018 276.66C235.648 275.346 266.518 270.675 274.218 269.908C274.281 269.908 274.288 269.939 274.218 269.951C266.693 271.4 235.76 275.85 228.06 276.795C227.878 276.813 227.857 276.69 228.018 276.66Z" fill="#455A64"/>
<path d="M243.411 261.868C246.33 260.923 250.096 260.775 252.763 262.31C252.868 262.371 252.763 262.5 252.665 262.488C249.627 262.103 246.55 262.006 243.488 262.199C243.442 262.2 243.397 262.187 243.361 262.162C243.325 262.137 243.301 262.101 243.292 262.062C243.282 262.022 243.289 261.981 243.311 261.946C243.333 261.91 243.368 261.883 243.411 261.868Z" fill="#455A64"/>
<path d="M241.458 263.341C244.377 262.396 248.143 262.248 250.81 263.789C250.915 263.844 250.81 263.973 250.712 263.961C247.674 263.579 244.597 263.482 241.535 263.672C241.489 263.673 241.445 263.66 241.409 263.635C241.373 263.61 241.348 263.574 241.339 263.535C241.33 263.495 241.337 263.454 241.358 263.419C241.38 263.383 241.416 263.356 241.458 263.341Z" fill="#455A64"/>
<path d="M239.512 264.82C242.431 263.875 246.19 263.727 248.864 265.262C248.969 265.323 248.864 265.452 248.766 265.44C245.728 265.052 242.651 264.956 239.589 265.151C239.543 265.152 239.498 265.139 239.462 265.114C239.426 265.089 239.402 265.053 239.393 265.014C239.383 264.974 239.39 264.933 239.412 264.898C239.434 264.862 239.469 264.835 239.512 264.82Z" fill="#455A64"/>
<path d="M212.905 118.219C213.024 118.711 214.928 126.456 216.902 133.11C218.337 137.971 219.814 142.243 220.661 142.685C221.62 143.182 226.296 144.999 227.864 145.569L235.025 205.615L244.706 261.211L276.36 256.915L253.834 135.24L250.166 118.219H212.905Z" fill="#455A64"/>
<path d="M244.895 255.632C249.865 254.932 248.395 255.067 253.407 254.404C255.843 254.085 271.859 252.004 274.19 252.06C274.239 252.06 274.253 252.133 274.19 252.145C271.964 252.759 255.906 254.601 253.463 254.871C248.472 255.435 249.9 255.227 244.902 255.748C244.89 255.743 244.88 255.735 244.873 255.725C244.865 255.715 244.861 255.704 244.86 255.692C244.86 255.68 244.863 255.668 244.869 255.658C244.875 255.647 244.884 255.638 244.895 255.632Z" fill="#263238"/>
<path d="M263.2 239.029C262.409 235.174 261.625 231.32 260.813 227.465C259.194 219.756 257.561 212.049 255.913 204.345C252.609 188.922 249.343 173.488 246.113 158.041C244.307 149.326 244.349 150.142 242.774 141.383C242.774 141.328 242.648 141.334 242.662 141.383C244.174 149.166 243.46 147.46 244.888 155.255C246.316 163.05 247.814 170.679 249.389 178.369C252.553 193.831 255.871 209.267 259.224 224.697C260.158 229.027 261.112 233.35 262.087 237.666C263.067 242.073 264.187 246.456 265.223 250.85C265.223 250.949 265.426 250.942 265.405 250.85C264.677 246.916 264.019 242.963 263.2 239.029Z" fill="#263238"/>
<path d="M254.499 141.96C253.659 141.77 252.756 141.709 251.902 141.592C251.202 141.494 250.502 141.383 249.802 141.254C248.485 141.048 247.237 140.587 246.148 139.904C244.958 139.094 244.349 137.86 243.775 136.676C243.43 135.976 243.08 135.276 242.725 134.577L242.2 133.564C241.956 133.166 241.738 132.756 241.549 132.336C241.549 132.275 241.416 132.336 241.444 132.336C241.563 132.623 241.662 132.916 241.738 133.214C241.857 133.552 241.962 133.889 242.081 134.227C242.298 134.841 242.508 135.454 242.732 136.068C243.073 137.175 243.564 138.243 244.195 139.247C245.469 141.015 247.737 141.733 250.005 141.985C250.656 142.052 251.314 142.095 251.972 142.126C252.797 142.19 253.626 142.19 254.45 142.126C254.469 142.122 254.487 142.113 254.501 142.1C254.515 142.088 254.525 142.073 254.53 142.056C254.535 142.039 254.535 142.021 254.529 142.004C254.524 141.988 254.514 141.972 254.499 141.96Z" fill="#263238"/>
<path d="M218.176 141.623C221.515 142.686 224.74 144.005 227.815 145.563C227.841 145.574 227.861 145.593 227.871 145.617C227.881 145.64 227.88 145.666 227.868 145.689C227.856 145.712 227.834 145.729 227.807 145.738C227.78 145.747 227.75 145.746 227.724 145.735C224.476 144.507 221.165 143.341 218.001 141.966C217.957 141.942 217.925 141.904 217.91 141.861C217.895 141.817 217.899 141.77 217.92 141.728C217.941 141.687 217.978 141.653 218.026 141.634C218.073 141.614 218.126 141.61 218.176 141.623Z" fill="#263238"/>
<path d="M217.196 122.141C217.196 122.043 217.406 122.019 217.406 122.141C217.404 125.319 217.586 128.494 217.952 131.655C218.099 133.122 219.443 141.224 222.348 140.635C222.831 140.536 223.048 140.113 223.153 139.475C223.143 138.635 223.013 137.8 222.768 136.989C222.446 135.289 222.187 133.588 222.026 131.876C221.684 128.685 221.724 125.472 222.145 122.289C222.145 122.268 222.155 122.247 222.172 122.232C222.189 122.217 222.212 122.209 222.236 122.209C222.26 122.209 222.283 122.217 222.3 122.232C222.317 122.247 222.327 122.268 222.327 122.289C222.246 126.715 222.541 131.14 223.209 135.528C223.573 137.633 224.784 140.806 222.271 141.132C219.758 141.457 218.071 136.148 217.742 134.693C216.94 130.548 216.757 126.328 217.196 122.141Z" fill="#263238"/>
<path d="M222.271 140.819C222.527 141.367 222.744 141.929 222.922 142.5C223.109 142.942 223.202 143.41 223.195 143.881C223.191 143.901 223.181 143.918 223.165 143.932C223.15 143.946 223.13 143.956 223.108 143.96C223.086 143.964 223.064 143.962 223.043 143.954C223.022 143.947 223.005 143.934 222.992 143.918C222.68 143.505 222.444 143.052 222.292 142.574C222.068 142.058 221.837 141.537 221.634 141.015C221.605 140.941 221.61 140.86 221.648 140.789C221.687 140.718 221.756 140.664 221.841 140.638C221.925 140.612 222.018 140.616 222.099 140.65C222.18 140.684 222.242 140.745 222.271 140.819Z" fill="#263238"/>
<path d="M254.163 137.026C250.327 136.805 209.818 132.729 209.818 132.729L210.133 118.238H212.933H250.194L253.862 135.258L254.163 137.026Z" fill="#263238"/>
<path d="M225.792 84.9589C221.158 97.6763 213.311 110.805 211.043 113.389C204.96 120.337 186.683 127.181 181.104 128.064C178.689 128.445 172.9 114.788 174.398 112.91C175.896 111.032 198.611 103.421 199.724 102.409C200.494 101.703 210.077 90.8757 216.524 84.3451C224.581 76.2249 227.01 81.6322 225.792 84.9589Z" fill="#AD6359"/>
<path d="M179.249 110.259L188.223 126.217C188.223 126.217 207.298 118.968 211.841 113.794C216.384 108.62 224.616 91.0844 225.841 85.499C227.066 79.9137 224.952 75.9241 216.419 84.0874C207.886 92.2506 200.816 100.383 199.29 101.746C197.764 103.108 179.249 110.259 179.249 110.259Z" fill="#EBEBEB"/>
<path d="M180.005 109.449L190.757 125.984C190.757 125.984 207.557 118.944 211.841 114.322C216.125 109.7 223.188 95.5097 225.4 87.8498C227.612 80.1899 226.317 74.7579 216.426 84.1303C206.535 93.5027 200.942 100.309 198.926 101.838C197.967 102.501 180.005 109.449 180.005 109.449Z" fill="#37474F"/>
<path d="M184.534 110.977C185.079 110.977 185.521 110.589 185.521 110.112C185.521 109.634 185.079 109.246 184.534 109.246C183.989 109.246 183.547 109.634 183.547 110.112C183.547 110.589 183.989 110.977 184.534 110.977Z" fill="#263238"/>
<path d="M189.189 109.099C189.734 109.099 190.176 108.711 190.176 108.233C190.176 107.755 189.734 107.368 189.189 107.368C188.644 107.368 188.202 107.755 188.202 108.233C188.202 108.711 188.644 109.099 189.189 109.099Z" fill="#263238"/>
<path d="M225.4 87.8253C223.188 95.4852 216.132 109.651 211.841 114.297C210.007 116.28 205.905 118.698 201.796 120.822L223.447 79.2447C226.8 78.4468 226.905 82.6204 225.4 87.8253Z" fill="#263238"/>
<path d="M256.277 130.943C256.165 131.054 207.739 131.182 207.277 130.747C206.654 130.133 217.595 84.0996 222.565 78.4468C223.622 77.2192 227.129 76.8939 230.111 77.2192C230.889 77.2961 231.657 77.4338 232.407 77.6304H232.491C233.096 77.7869 233.666 78.0317 234.178 78.3547C242.466 84.161 249.452 104.459 251.083 110.553C253.813 120.613 256.676 130.544 256.277 130.943Z" fill="#EBEBEB"/>
<path d="M234.038 77.8146C234.038 77.8146 230.097 96.6575 229.411 101.555C228.725 106.453 229.733 132.324 229.733 132.324L260.141 134.294C260.141 134.294 253.568 117.17 253.491 116.084C253.491 116.084 248.031 95.5711 242.914 87.0028C240.679 83.4546 237.662 80.3313 234.038 77.8146Z" fill="#37474F"/>
<path d="M260.141 134.294L246.351 133.398L236.509 79.7111V79.7479L242.683 86.6836C242.753 86.7941 242.823 86.9046 242.886 87.0151C248.003 95.6079 253.463 116.096 253.463 116.096C253.568 117.17 260.141 134.294 260.141 134.294Z" fill="#263238"/>
<path d="M222.271 78.2258C222.271 78.2258 219.044 97.3081 218.694 98.8855C218.344 100.463 213.458 131.581 213.458 131.581L205.849 131.79L209.818 117.563C209.818 117.563 218.645 82.289 222.271 78.2258Z" fill="#37474F"/>
<path d="M226.716 88.6968L224.56 85.0142L221.774 87.678L222.46 90.3295L225.204 90.6425L226.716 88.6968Z" fill="#263238"/>
<path d="M225.204 90.6425L226.52 117.735L220.731 126.696L217.721 116.611L222.46 90.3295L225.204 90.6425Z" fill="#263238"/>
<path d="M272.055 155.193H235.767V207.708H272.055V155.193Z" fill="#FEC7A0"/>
<path opacity="0.1" d="M262.465 146.778H245.378V199.293H262.465V146.778Z" fill="black"/>
<path d="M285.292 160.865H222.565V175.712H285.292V160.865Z" fill="#FEC7A0"/>
<path d="M240.744 152.388L240.73 160.852L245.273 160.858L245.28 156.04L262.605 156.059L262.598 160.877H267.141L267.148 152.407L240.744 152.388Z" fill="#263238"/>
<path d="M276.675 172.189H272.587V179.284H276.675V172.189Z" fill="#263238"/>
<path d="M235.256 172.152H231.168V179.247H235.256V172.152Z" fill="#263238"/>
<path d="M240.73 83.4736C254.24 94.2208 262.815 109.571 263.396 112.671C264.796 120.165 266.567 133.3 266.266 139.063C266.154 141.199 247.695 138.609 247.73 136.326C247.849 129.181 246.764 113.469 246.715 113.193C246.386 111.271 242.368 102.636 238.315 93.2694C234.262 83.9032 235.046 78.9623 240.73 83.4736Z" fill="#AD6359"/>
<path d="M245.784 158.716C246.323 158.931 246.923 158.996 247.505 158.903C248.087 158.81 248.622 158.563 249.039 158.195C249.566 158.945 250.376 159.51 251.328 159.791C253.029 160.22 254.541 158.066 254.541 158.066C255.274 158.744 256.223 159.215 257.264 159.416C258.937 159.68 260.82 157.698 260.82 157.698C261.884 157.992 263.033 157.944 264.061 157.563C265.804 156.844 267.281 152.462 267.645 149.939C268.009 147.417 266.336 139.959 266.182 138.511L247.73 136.338C247.73 136.338 242.438 147.251 242.494 150.271C242.543 152.83 243.754 157.833 245.784 158.716Z" fill="#AD6359"/>
<path d="M248.759 158.047C247.968 155.353 248.129 152.597 248.115 149.847C248.115 149.834 248.121 149.822 248.132 149.813C248.142 149.803 248.156 149.798 248.171 149.798C248.186 149.798 248.2 149.803 248.211 149.813C248.221 149.822 248.227 149.834 248.227 149.847C248.227 152.585 248.801 155.292 248.927 158.029C248.93 158.049 248.924 158.068 248.91 158.084C248.896 158.099 248.876 158.109 248.854 158.112C248.831 158.114 248.809 158.109 248.791 158.097C248.773 158.085 248.762 158.067 248.759 158.047Z" fill="#263238"/>
<path d="M254.31 157.986C254.197 157.359 254.178 156.721 254.254 156.089C254.254 155.42 254.338 154.745 254.401 154.076C254.523 152.734 254.679 151.396 254.87 150.062C254.87 150.001 254.982 150.001 254.975 150.062C254.863 151.4 254.772 152.738 254.716 154.076C254.716 154.751 254.674 155.42 254.66 156.089C254.691 156.724 254.644 157.36 254.52 157.986C254.512 158.005 254.498 158.021 254.479 158.032C254.46 158.044 254.438 158.05 254.415 158.05C254.392 158.05 254.37 158.044 254.351 158.032C254.333 158.021 254.318 158.005 254.31 157.986Z" fill="#263238"/>
<path d="M260.82 157.642C260.731 157.073 260.749 156.494 260.876 155.93C260.946 155.316 261.009 154.702 261.072 154.089C261.198 152.861 261.317 151.633 261.387 150.406C261.387 150.345 261.499 150.345 261.499 150.406C261.429 151.633 261.38 152.898 261.303 154.144L261.177 155.985C261.192 156.546 261.095 157.105 260.89 157.636C260.887 157.642 260.882 157.646 260.877 157.65C260.871 157.653 260.864 157.655 260.857 157.656C260.85 157.657 260.843 157.656 260.837 157.653C260.83 157.651 260.825 157.647 260.82 157.642Z" fill="#263238"/>
<path d="M246.827 136.412L267.288 137.382C267.288 137.382 265.776 117.741 264.152 112.284C262.528 106.828 248.668 88.6416 240.485 82.0496C232.785 75.8443 232.785 81.0062 235.704 88.2794C238.623 95.5527 245.847 113.131 246.092 114.414C246.337 115.697 246.827 136.412 246.827 136.412Z" fill="#37474F"/>
<path d="M247.744 132.791C248.528 132.729 249.319 132.791 250.103 132.791C250.887 132.791 251.671 132.821 252.455 132.852C253.967 132.907 255.479 132.987 256.991 133.073L261.52 133.337C263.081 133.429 264.677 133.453 266.224 133.656C266.235 133.659 266.244 133.666 266.251 133.674C266.257 133.682 266.261 133.692 266.261 133.702C266.261 133.712 266.257 133.722 266.251 133.73C266.244 133.738 266.235 133.745 266.224 133.748C264.663 133.803 263.074 133.68 261.513 133.631L256.893 133.466C255.353 133.404 253.813 133.337 252.273 133.251C251.517 133.214 250.761 133.165 250.012 133.091C249.263 133.018 248.479 133.011 247.737 132.883C247.667 132.87 247.688 132.797 247.744 132.791Z" fill="#263238"/>
<path d="M225.288 84.5231C226.086 84.4925 231.385 80.8405 232.988 78.0294C233.1 77.833 232.687 75.8321 232.323 73.3831C232.106 71.8978 231.903 70.2344 231.847 68.7061C231.847 68.3931 230.643 69.0069 230.643 69.0069L228.403 69.547L221.011 71.3515C221.708 73.2439 222.135 75.2044 222.285 77.1885C222.293 77.394 222.277 77.5998 222.236 77.8023C222.239 77.837 222.239 77.8719 222.236 77.9066C222.075 79.1158 224 84.5661 225.288 84.5231Z" fill="#AD6359"/>
<path d="M222.264 77.8146C222.267 77.8493 222.267 77.8842 222.264 77.9189C222.639 77.9501 223.016 77.9501 223.391 77.9189C230.741 77.5629 231.35 69.326 231.35 69.326L228.445 69.5225L221.053 71.327C221.75 73.2194 222.177 75.1798 222.327 77.164C222.334 77.3822 222.313 77.6004 222.264 77.8146Z" fill="#263238"/>
<path d="M231.574 55.7557C233.338 58.9535 233.044 68.9335 230.699 71.4684C227.311 75.1511 220.899 76.3234 217.119 72.5732C213.458 68.9458 214.109 55.946 216.804 53.5461C220.773 50.0599 228.97 51.0297 231.574 55.7557Z" fill="#AD6359"/>
<path d="M221.816 63.0348C221.816 63.0348 221.872 63.0348 221.872 63.0962C221.83 63.7652 221.914 64.5447 222.572 64.7779C222.572 64.7779 222.572 64.8209 222.572 64.8147C221.753 64.6981 221.655 63.667 221.816 63.0348Z" fill="#263238"/>
<path d="M222.516 62.3474C223.748 62.286 223.797 64.4588 222.649 64.514C221.501 64.5693 221.48 62.3965 222.516 62.3474Z" fill="#263238"/>
<path d="M217.378 63.2189C217.378 63.2189 217.322 63.2496 217.322 63.2803C217.357 63.9493 217.273 64.7288 216.58 64.9621V64.9989C217.434 64.8761 217.539 63.8327 217.378 63.2189Z" fill="#263238"/>
<path d="M216.678 62.5193C215.446 62.4579 215.39 64.6307 216.538 64.6859C217.686 64.7411 217.7 62.6052 216.678 62.5193Z" fill="#263238"/>
<path d="M223.475 61.3408C223.132 61.2672 222.831 61.1567 222.509 61.0585C222.152 61.0028 221.826 60.8427 221.585 60.6043C221.525 60.5181 221.5 60.4166 221.514 60.3163C221.528 60.216 221.58 60.1229 221.662 60.0519C221.845 59.9288 222.062 59.8508 222.291 59.826C222.52 59.8012 222.752 59.8304 222.964 59.9107C223.422 60.0169 223.819 60.2684 224.077 60.6165C224.131 60.6988 224.156 60.7928 224.15 60.8874C224.144 60.982 224.107 61.0731 224.044 61.1496C223.98 61.2262 223.893 61.285 223.792 61.3189C223.691 61.3528 223.581 61.3604 223.475 61.3408Z" fill="#263238"/>
<path d="M215.698 61.4452C216.029 61.3813 216.357 61.3013 216.678 61.2058C217.035 61.1621 217.367 61.0178 217.623 60.7946C217.688 60.7107 217.719 60.6102 217.712 60.5089C217.704 60.4077 217.658 60.3116 217.581 60.236C217.405 60.1044 217.192 60.0167 216.964 59.9821C216.736 59.9475 216.502 59.9674 216.286 60.0396C215.823 60.1254 215.414 60.3596 215.138 60.6964C215.08 60.7761 215.05 60.8689 215.05 60.9634C215.051 61.058 215.083 61.1504 215.142 61.2295C215.201 61.3085 215.285 61.371 215.384 61.4092C215.482 61.4475 215.591 61.46 215.698 61.4452Z" fill="#263238"/>
<path d="M219.485 68.0924C219.814 68.4578 220.246 68.7413 220.738 68.9148C221.01 69.0036 221.305 69.0164 221.585 68.9516C222.201 68.7982 222.201 68.3379 222.082 67.8837C222.014 67.6702 221.917 67.4642 221.795 67.2699C221.145 67.7522 220.335 68.0403 219.485 68.0924Z" fill="#263238"/>
<path d="M220.738 68.9148C221.009 69.0036 221.305 69.0164 221.585 68.9516C222.201 68.7982 222.201 68.3379 222.082 67.8837C221.759 67.9003 221.452 68.0106 221.209 68.1973C220.965 68.3841 220.8 68.6365 220.738 68.9148Z" fill="#FF9ABB"/>
<path d="M215.236 56.8848C215.635 56.0255 216.104 55.1601 216.685 54.976C217.266 54.7918 217.679 56.0439 219.016 56.0992C220.815 56.179 221.655 54.7182 224.168 54.5218C227.773 54.2394 229.418 56.8602 229.607 61.3531C229.768 65.361 232.547 65.6925 232.547 65.6925C232.547 65.6925 234.031 56.8173 231.147 53.9325C228.263 51.0478 221.683 49.8632 217.357 52.705C215.754 53.7791 215.236 56.8848 215.236 56.8848Z" fill="#263238"/>
<path d="M230.202 64.1519C230.202 64.1519 232.225 60.7086 233.975 61.2979C235.725 61.8871 234.542 66.6746 232.722 67.5277C232.497 67.6505 232.247 67.7321 231.985 67.7676C231.724 67.8032 231.457 67.792 231.201 67.7346C230.944 67.6773 230.704 67.575 230.494 67.4339C230.283 67.2929 230.108 67.116 229.978 66.9139L230.202 64.1519Z" fill="#AD6359"/>
<path d="M233.597 62.6666C233.597 62.6666 233.639 62.6973 233.597 62.7095C232.33 63.3233 231.791 64.514 231.497 65.7048C231.556 65.5771 231.646 65.4623 231.761 65.3683C231.876 65.2744 232.013 65.2036 232.162 65.1609C232.312 65.1182 232.47 65.1047 232.626 65.1212C232.782 65.1378 232.932 65.184 233.065 65.2567C233.1 65.2567 233.065 65.3242 233.065 65.3242C232.819 65.2859 232.566 65.3155 232.34 65.409C232.115 65.5025 231.927 65.6552 231.805 65.8459C231.6 66.1648 231.436 66.5023 231.315 66.8525C231.273 66.9691 231.042 66.9384 231.07 66.8096C230.776 65.2874 231.784 63.0348 233.597 62.6666Z" fill="#263238"/>
<path d="M222.229 78.0478L224.868 83.7314L232.876 76.5502L235.158 78.8457C235.158 78.8457 227.332 90.2251 227.283 89.728L224.609 84.8546L220.78 88.2549L221.067 79.7295L222.229 78.0478Z" fill="#EBEBEB"/>
<path d="M220.647 84.0383C220.752 82.6327 220.808 81.2088 220.983 79.8094C220.983 79.7603 221.081 79.7419 221.095 79.8094C221.417 81.1658 220.997 86.5609 221.004 87.8314C221.165 87.6841 224.553 84.8423 224.588 84.8853C225.169 85.6587 227.129 89.1817 227.262 89.5316C228.501 87.7209 233.24 81.1413 234.71 79.4288C234.719 79.422 234.73 79.4178 234.742 79.417C234.754 79.4161 234.766 79.4186 234.776 79.4241C234.786 79.4296 234.794 79.4377 234.798 79.4474C234.803 79.4571 234.804 79.4678 234.801 79.4779C233.73 81.3561 227.458 90.2252 227.36 90.2252C226.327 88.5493 225.393 86.8285 224.56 85.0694C223.986 85.6832 220.563 88.9055 220.549 88.6968C220.489 87.1436 220.522 85.5886 220.647 84.0383Z" fill="#263238"/>
<path d="M131.81 83.9032C140.616 99.1433 149.562 135.804 150.395 140.708C150.962 144.041 130.977 147.055 130.977 144.747C130.977 141.788 126.945 107.184 127.33 93.5088C127.54 85.9655 129.99 80.7546 131.81 83.9032Z" fill="#EB9481"/>
<path d="M130.9 143.286C130.578 145.293 131.341 152.247 132.839 157.403C133.539 159.919 136.535 166.947 138.782 166.61C141.029 166.272 140.364 164.154 140.364 164.154C140.364 164.154 142.128 166.953 144.347 166.432C146.566 165.91 145.425 162.632 145.425 162.632C145.425 162.632 147.469 165.4 149.625 164.738C151.781 164.075 150.01 160.951 150.01 160.951C150.01 160.951 151.753 163.559 153.279 162.35C155.12 160.895 151.298 156.415 150.654 153.598C150.507 152.984 148.722 140.45 148.722 140.45L130.9 143.286Z" fill="#EB9481"/>
<path d="M150.038 160.908C147.238 157.605 146.664 155.733 146.314 151.701C146.309 151.687 146.299 151.675 146.286 151.667C146.273 151.658 146.257 151.654 146.241 151.654C146.224 151.654 146.208 151.658 146.195 151.667C146.182 151.675 146.172 151.687 146.167 151.701C146.104 155.684 146.44 158.121 149.863 161.049C150.031 161.178 150.171 161.061 150.038 160.908Z" fill="#263238"/>
<path d="M145.481 162.81C142.912 159.158 142.268 157.133 141.54 152.928C141.54 152.867 141.414 152.873 141.421 152.928C141.736 157.108 142.121 159.533 145.25 162.89C145.39 163.05 145.6 162.976 145.481 162.81Z" fill="#263238"/>
<path d="M140.161 163.878C137.97 160.196 137.158 157.992 137.053 153.831C137.048 153.814 137.036 153.799 137.02 153.789C137.004 153.779 136.985 153.773 136.965 153.773C136.946 153.773 136.926 153.779 136.911 153.789C136.895 153.799 136.883 153.814 136.878 153.831C136.514 158.084 137.508 160.828 140.028 163.934C140.203 164.111 140.301 164.087 140.161 163.878Z" fill="#263238"/>
<path d="M150.269 139.837C150.269 139.837 153.489 144.133 154.427 146.324C155.365 148.515 155.47 157.704 153.202 157.839C150.276 158.011 149.002 152.701 148.792 150.031C148.792 150.031 142.016 150.43 140.182 146.791C138.348 143.151 150.269 139.837 150.269 139.837Z" fill="#EB9481"/>
<path d="M152.383 157.648C149.583 156.12 149.541 152.597 149.1 150.019C149.095 149.981 149.08 149.944 149.056 149.912C149.032 149.88 148.999 149.853 148.961 149.834C148.922 149.816 148.879 149.805 148.835 149.804C148.791 149.804 148.747 149.812 148.708 149.829C145.859 149.829 141.834 149.105 140.112 146.944C140.108 146.936 140.103 146.928 140.095 146.922C140.088 146.916 140.079 146.911 140.07 146.908C140.06 146.905 140.05 146.904 140.04 146.905C140.03 146.906 140.02 146.909 140.011 146.913C140.002 146.918 139.995 146.924 139.989 146.931C139.983 146.939 139.979 146.947 139.978 146.956C139.976 146.964 139.976 146.974 139.979 146.982C139.982 146.991 139.986 146.999 139.993 147.006C141.477 149.547 145.369 150.541 148.491 150.363C148.897 153.008 149.114 156.544 152.362 157.673C152.383 157.679 152.397 157.661 152.383 157.648Z" fill="#263238"/>
<path d="M152.313 138.806L129.612 141.874C129.612 141.874 125.993 104.919 125.86 92.5145C125.727 80.1101 130.809 77.0719 136.262 89.7587C141.715 102.445 152.313 138.806 152.313 138.806Z" fill="#FEC7A0"/>
<path d="M129.5 138.763C138.789 136.921 148.862 136.24 150.612 136.013C150.696 136.013 150.703 136.117 150.612 136.123C148.89 136.271 137.466 138.155 129.5 138.885C129.437 138.891 129.43 138.775 129.5 138.763Z" fill="#263238"/>
<path d="M179.816 274.125C178.241 274.573 132.076 273.965 130.382 272.989C130.179 272.879 130.151 269.221 130.207 264.206L127.96 234.42L157.171 234.493L159.481 260.272C159.481 260.272 166.033 262.923 171.437 265.243C173.801 266.186 176.099 267.251 178.318 268.435C180.061 269.712 181.391 273.683 179.816 274.125Z" fill="#EB9481"/>
<path d="M179.816 274.125C178.241 274.573 132.076 273.965 130.382 272.989C130.179 272.879 130.151 269.221 130.207 264.206C141.61 266.434 172.018 270.043 172.907 267.95C173.264 267.109 172.536 266.158 171.451 265.28C173.815 266.222 176.113 267.288 178.332 268.472C180.061 269.712 181.391 273.683 179.816 274.125Z" fill="#263238"/>
<path d="M115.626 126.008C115.626 126.008 123.9 202.988 124.082 203.921C124.082 204.044 124.173 205.468 124.25 207.782C124.712 220.481 125.846 260.082 125.846 260.082H160.552C160.552 260.082 158.291 213.177 156.989 202.239C155.33 188.276 145.131 126.008 145.131 126.008H115.626Z" fill="#37474F"/>
<path d="M128.219 206.523C127.151 190.541 125.543 174.583 123.396 158.649C122.178 149.688 120.708 140.757 119.252 131.821C119.252 131.741 119.098 131.747 119.112 131.821C121.8 147.724 123.697 163.737 125.335 179.763C126.973 195.789 128.135 211.777 128.835 227.821C129.262 236.905 129.584 246.002 129.913 255.092C129.922 255.131 129.946 255.166 129.981 255.192C130.016 255.217 130.06 255.231 130.106 255.231C130.151 255.231 130.195 255.217 130.231 255.192C130.266 255.166 130.29 255.131 130.298 255.092C129.836 238.912 129.304 222.709 128.219 206.523Z" fill="#263238"/>
<path d="M158.361 255.178C157.451 255.073 156.464 255.104 155.561 255.08C154.525 255.08 153.461 255.037 152.439 255.006C150.43 254.938 148.414 254.889 146.405 254.865C142.352 254.803 138.292 254.828 134.246 254.938L130.9 255.043C129.71 255.08 128.52 255.178 127.33 255.172C127.246 255.172 127.246 255.264 127.33 255.264C129.367 255.264 131.432 255.417 133.476 255.485C135.52 255.553 137.494 255.577 139.503 255.602C143.556 255.651 147.623 255.602 151.669 255.491C152.782 255.454 153.895 255.442 155.008 255.411L156.8 255.331C157.332 255.331 157.857 255.331 158.389 255.288C158.459 255.288 158.452 255.19 158.361 255.178Z" fill="#263238"/>
<path d="M140.7 126.008L124.845 226.275C124.621 218.799 124.397 211.888 124.25 207.782C124.173 205.468 124.11 204.044 124.082 203.921C123.886 202.988 115.626 126.008 115.626 126.008H140.7Z" fill="#263238"/>
<path d="M121.674 279.465C120.022 279.348 77.6721 263.218 76.5381 261.745C76.3981 261.579 77.9381 258.191 80.2271 253.582L89.5651 224.734L116.585 234.242L108.962 259.855C108.962 259.855 113.862 264.513 117.824 268.447C119.594 270.117 121.249 271.878 122.78 273.72C123.837 275.469 123.319 279.587 121.674 279.465Z" fill="#EB9481"/>
<path d="M121.674 279.465C120.022 279.348 77.6721 263.218 76.5381 261.745C76.3981 261.579 77.9381 258.191 80.2271 253.582C89.7821 259.486 116.263 273.063 118.027 271.43C118.727 270.78 118.468 269.65 117.852 268.472C119.622 270.142 121.277 271.902 122.808 273.744C123.837 275.469 123.319 279.587 121.674 279.465Z" fill="#263238"/>
<path d="M77.189 250.611L111.048 259.818C111.048 259.818 127.582 208.966 128.849 197.022C130.102 185.182 131.313 160.994 131.852 143.446C131.852 143.446 137.508 140.512 138.943 138.91C140.378 137.308 141.666 131.545 144.494 126.021H103.068C93.17 142.881 100.618 150.381 100.618 154.058C100.618 171.808 97.559 195.371 96.586 198.864C94.556 206.143 77.189 250.611 77.189 250.611Z" fill="#37474F"/>
<path d="M110.971 253.324C110.124 253.017 109.165 252.827 108.283 252.587C107.282 252.323 106.274 252.078 105.28 251.808C103.362 251.286 101.43 250.789 99.4981 250.31C95.6014 249.336 91.6767 248.44 87.7241 247.622L84.4621 246.965C83.3071 246.732 82.1241 246.554 80.9621 246.284C80.8711 246.284 80.8501 246.351 80.9621 246.376C82.9361 246.83 84.8821 247.45 86.8351 247.978C88.7881 248.506 90.6921 248.978 92.6241 249.463C96.5231 250.427 100.457 251.305 104.405 252.109C105.497 252.323 106.575 252.563 107.66 252.79L109.403 253.128C109.921 253.232 110.425 253.379 110.95 253.447C110.969 253.449 110.988 253.445 111.003 253.435C111.018 253.425 111.028 253.411 111.031 253.395C111.033 253.378 111.029 253.362 111.017 253.348C111.006 253.335 110.99 253.326 110.971 253.324Z" fill="#263238"/>
<path d="M139.909 138.511C137.932 139.307 136.055 140.283 134.309 141.42C132.454 142.537 130.746 143.82 128.961 145.017C128.891 145.066 128.961 145.164 129.031 145.121C130.914 144.066 132.888 143.139 134.75 142.052C136.62 141.058 138.382 139.916 140.014 138.64C140.063 138.591 140 138.48 139.909 138.511Z" fill="#263238"/>
<path d="M140.168 128.279C139.93 129.409 139.615 130.532 139.335 131.655C139.055 132.778 138.88 133.785 138.565 134.828C138.305 135.838 137.719 136.76 136.878 137.486C136.409 137.873 135.884 138.21 135.38 138.566C135.114 138.756 134.82 138.934 134.54 139.131C134.575 138.977 134.603 138.83 134.631 138.67C134.722 138.247 134.806 137.817 134.883 137.388C135.065 136.436 135.24 135.479 135.408 134.528C135.737 132.649 136.038 130.753 136.486 128.893C136.491 128.877 136.488 128.86 136.478 128.845C136.468 128.831 136.452 128.82 136.434 128.816C136.415 128.812 136.395 128.815 136.379 128.823C136.362 128.832 136.351 128.846 136.346 128.862C135.814 130.704 135.226 132.545 134.764 134.386C134.533 135.295 133.721 139.788 133.686 140.107C133.651 140.426 133.616 140.763 133.602 141.095C133.556 141.431 133.556 141.771 133.602 142.108C133.602 142.187 133.742 142.175 133.777 142.108C133.934 141.796 134.044 141.468 134.106 141.132C134.197 140.813 134.281 140.487 134.344 140.162C134.344 140.045 134.386 139.923 134.407 139.8C134.911 139.53 135.38 139.186 135.856 138.879C136.332 138.572 136.878 138.265 137.361 137.885C138.251 137.226 138.893 136.347 139.202 135.362C139.513 134.302 139.717 133.219 139.811 132.128C139.972 130.851 140.091 129.568 140.294 128.298C140.315 128.279 140.182 128.218 140.168 128.279Z" fill="#263238"/>
<path d="M139.3 79.3367C138.635 86.5486 137.809 93.963 135.891 101.009C134.393 106.496 130.991 110.762 124.201 111.333C117.901 111.861 109.186 110.719 104.566 106.539C102.41 104.594 101.941 102.151 102.508 99.5484C103.299 95.9333 109.718 76.3661 111.671 70.2528C112.861 66.5334 114.037 62.7586 115.969 59.2601C120.015 51.8948 124.369 52.5086 124.971 52.4165C125.538 52.1833 129.066 51.2872 133.602 53.1776C134.795 53.6661 135.858 54.3703 136.719 55.244C137.58 56.1177 138.221 57.1412 138.6 58.2474C141.008 64.8271 139.944 72.5852 139.3 79.3367Z" fill="#263238"/>
<path d="M123.473 53.3188C117.922 54.8287 115.892 59.6775 113.932 63.9985C111.202 70.0196 108.584 76.0837 106.302 82.2522C105.21 85.2167 104.202 88.2058 103.271 91.2133C102.396 94.0981 101.255 97.1485 101.017 100.138C100.625 105.048 105.385 107.92 110.229 109.215C110.278 109.229 110.33 109.226 110.375 109.206C110.421 109.185 110.455 109.15 110.471 109.108C110.487 109.066 110.483 109.02 110.46 108.98C110.437 108.94 110.397 108.91 110.348 108.896C107.604 108.068 104.839 107.055 103.026 104.95C100.695 102.274 101.493 99.2415 102.284 96.2217C103.642 91.0783 105.329 86.0146 107.184 81.0062C109.039 75.9978 111.181 71.0385 113.365 66.1221C115.465 61.439 117.404 55.1785 123.459 53.3986C123.55 53.3986 123.529 53.3004 123.473 53.3188Z" fill="#263238"/>
<path d="M140.147 63.7652C139.741 59.9046 138.089 55.9887 133.77 54.3622C139.328 56.6823 139.874 62.4211 139.916 67.1594C139.963 72.1556 139.802 77.1435 139.433 82.1233C139.083 86.9169 138.607 91.735 137.76 96.4795C136.843 101.598 135.03 106.3 130.914 110.099C130.905 110.106 130.897 110.115 130.892 110.125C130.887 110.135 130.884 110.145 130.883 110.156C130.882 110.167 130.884 110.178 130.888 110.188C130.892 110.198 130.899 110.208 130.907 110.216C130.915 110.224 130.925 110.23 130.936 110.235C130.948 110.24 130.96 110.242 130.972 110.243C130.984 110.244 130.997 110.242 131.008 110.238C131.02 110.235 131.031 110.229 131.04 110.222C134.981 107.208 136.85 102.63 137.809 98.2472C138.966 92.4294 139.684 86.5509 139.958 80.6502C140.322 75.0955 140.735 69.3567 140.147 63.7652Z" fill="#263238"/>
<path d="M123.144 80.3187C123.41 80.9325 127.491 84.6765 130.795 84.1671C131.866 83.9953 131.075 78.8088 131.075 78.8088L131.117 78.416L131.691 72.892L123.9 69.6636L122.787 69.2462C122.787 69.2462 122.738 70.7684 122.71 72.6588C122.71 72.7509 122.71 72.8368 122.71 72.9289C122.703 73.0331 122.703 73.1376 122.71 73.2419C122.71 73.5242 122.71 73.8127 122.71 74.1012C122.71 74.3897 122.71 74.5308 122.71 74.7579C122.71 74.985 122.71 75.2183 122.71 75.4454C122.729 77.0766 122.874 78.7048 123.144 80.3187Z" fill="#EB9481"/>
<path d="M122.71 72.6588C123.55 74.0952 124.736 75.3542 126.187 76.3484C127.638 77.3425 129.317 78.0481 131.11 78.416L131.684 72.892L123.9 69.6636L122.787 69.2462C122.787 69.2462 122.738 70.7684 122.71 72.6588Z" fill="#263238"/>
<path d="M139.699 64.7595C140.581 74.4572 134.057 76.0162 131.67 76.1819C129.5 76.3292 122.101 76.5993 120.085 67.0244C118.069 57.4495 122.934 54.0123 127.869 53.4599C132.804 52.9075 138.824 55.0557 139.699 64.7595Z" fill="#EB9481"/>
<path d="M137.837 62.6973C137.585 62.6647 137.335 62.6196 137.088 62.5622C136.814 62.5478 136.554 62.4551 136.346 62.2983C136.293 62.2374 136.265 62.1631 136.265 62.0866C136.265 62.0101 136.293 61.9357 136.346 61.8748C136.471 61.7692 136.625 61.6943 136.794 61.6577C136.962 61.621 137.138 61.624 137.305 61.6661C137.662 61.7055 137.988 61.8637 138.215 62.1081C138.265 62.1653 138.294 62.2339 138.3 62.3056C138.305 62.3773 138.287 62.4489 138.247 62.5116C138.207 62.5742 138.146 62.6252 138.074 62.6582C138.001 62.6912 137.919 62.7048 137.837 62.6973Z" fill="#263238"/>
<path d="M130.473 62.8323C130.732 62.8016 130.963 62.7402 131.222 62.6911C131.483 62.6655 131.728 62.5689 131.922 62.4149C131.976 62.3545 132.005 62.2799 132.005 62.2032C132.005 62.1264 131.976 62.0519 131.922 61.9914C131.796 61.8863 131.639 61.8127 131.47 61.7782C131.3 61.7437 131.123 61.7495 130.956 61.795C130.604 61.8445 130.285 62.0063 130.06 62.2492C130.009 62.3085 129.98 62.38 129.976 62.4541C129.973 62.5282 129.995 62.6016 130.039 62.6646C130.084 62.7276 130.149 62.7773 130.227 62.8073C130.304 62.8372 130.39 62.8459 130.473 62.8323Z" fill="#263238"/>
<path d="M132.202 65.2813C132.202 65.2813 132.146 65.2812 132.146 65.3365C132.195 65.9994 132.146 66.7666 131.446 67.006C131.446 67.006 131.446 67.0489 131.446 67.0428C132.3 66.9016 132.37 65.9012 132.202 65.2813Z" fill="#263238"/>
<path d="M131.502 64.6061C130.284 64.5631 130.27 66.6991 131.397 66.742C132.524 66.785 132.524 64.6429 131.502 64.6061Z" fill="#263238"/>
<path d="M131.026 64.7166C130.809 64.8394 130.599 65.048 130.326 65.0726C130.053 65.0971 129.808 64.87 129.626 64.6552H129.584C129.584 65.0603 129.745 65.4838 130.284 65.5452C130.823 65.6066 131.075 65.2444 131.194 64.8332C131.187 64.7841 131.11 64.6675 131.026 64.7166Z" fill="#263238"/>
<path d="M136.402 65.134C136.402 65.134 136.458 65.134 136.458 65.1892C136.423 65.8521 136.507 66.6193 137.193 66.8464C137.193 66.8464 137.193 66.8894 137.193 66.8832C136.353 66.7727 136.248 65.7539 136.402 65.134Z" fill="#263238"/>
<path d="M137.088 64.4465C138.299 64.3852 138.362 66.5211 137.235 66.5825C136.108 66.6439 136.066 64.5018 137.088 64.4465Z" fill="#263238"/>
<path d="M137.599 64.5816C137.795 64.6859 137.991 64.8885 138.222 64.9007C138.453 64.913 138.677 64.6736 138.845 64.4465H138.88C138.88 64.8516 138.761 65.2813 138.32 65.3672C137.879 65.4531 137.62 65.1033 137.48 64.7043C137.459 64.6491 137.522 64.5325 137.599 64.5816Z" fill="#263238"/>
<path d="M135.296 68.1292C135.296 68.1292 135.457 69.1174 135.457 69.5838C135.457 69.6329 135.331 69.6513 135.149 69.6636C134.692 69.7394 134.221 69.7032 133.786 69.5592C133.351 69.4152 132.97 69.1689 132.685 68.8473C132.675 68.8375 132.669 68.8246 132.67 68.8114C132.671 68.7981 132.677 68.7857 132.688 68.7767C132.7 68.7678 132.714 68.7631 132.729 68.7636C132.744 68.7642 132.759 68.77 132.769 68.7798C133.448 69.185 134.259 69.3854 135.079 69.3506C135.114 69.2217 134.736 67.6627 134.82 67.6566C135.234 67.6857 135.641 67.7641 136.031 67.8898C135.765 65.8214 135.121 63.8082 134.883 61.7521C134.883 61.7358 134.89 61.7202 134.903 61.7087C134.917 61.6971 134.934 61.6907 134.953 61.6907C134.971 61.6907 134.989 61.6971 135.002 61.7087C135.016 61.7202 135.023 61.7358 135.023 61.7521C135.79 63.8924 136.313 66.0945 136.584 68.3256C136.605 68.5343 135.506 68.1906 135.296 68.1292Z" fill="#263238"/>
<path d="M136.15 65.7784C135.982 64.1949 136.815 62.8323 138.005 62.7095C139.195 62.5868 140.308 63.8143 140.476 65.3979C140.644 66.9814 139.776 68.344 138.621 68.4667C137.466 68.5895 136.318 67.3619 136.15 65.7784ZM136.591 65.7416C136.738 67.1103 137.627 68.1598 138.579 68.0862C139.531 68.0125 140.189 66.828 140.042 65.4592C139.895 64.0905 138.999 63.041 138.047 63.1146C137.095 63.1883 136.444 64.3728 136.591 65.7416Z" fill="#263238"/>
<path d="M127.925 66.4597C127.91 65.9351 128.07 65.4181 128.386 64.9722C128.701 64.5262 129.158 64.1707 129.701 63.9494C130.244 63.728 130.848 63.6504 131.44 63.726C132.033 63.8017 132.587 64.0273 133.035 64.3752C133.483 64.7232 133.805 65.1782 133.962 65.6845C134.12 66.1909 134.105 66.7264 133.92 67.2255C133.735 67.7245 133.387 68.1653 132.921 68.4938C132.454 68.8222 131.888 69.024 131.292 69.0744C130.451 69.1164 129.625 68.8651 128.994 68.3753C128.364 67.8855 127.979 67.1969 127.925 66.4597ZM128.366 66.4229C128.455 66.8642 128.689 67.2732 129.039 67.6C129.389 67.9267 129.84 68.1571 130.336 68.263C130.833 68.3688 131.354 68.3456 131.836 68.1961C132.318 68.0466 132.74 67.7773 133.05 67.4211C133.36 67.0649 133.545 66.6372 133.583 66.1902C133.62 65.7433 133.509 65.2964 133.262 64.9041C133.014 64.5119 132.642 64.1912 132.19 63.9814C131.739 63.7715 131.227 63.6814 130.718 63.7223C129.998 63.8077 129.347 64.14 128.906 64.6463C128.465 65.1525 128.271 65.7914 128.366 66.4229Z" fill="#263238"/>
<path d="M133.861 65.7053C135.443 65.0911 136.234 65.4781 136.241 65.4842L136.479 65.1586C136.444 65.1586 135.506 64.6181 133.679 65.3552L133.861 65.7053Z" fill="#263238"/>
<path d="M128.1 66.1897L128.142 65.803C127.848 65.803 121.058 65.2506 120.33 65.2751C119.602 65.2997 117.873 66.3247 117.684 66.4413L117.936 66.7605C118.655 66.2836 119.459 65.9145 120.316 65.668H120.4C120.932 65.6741 125.685 65.9994 128.1 66.1897Z" fill="#263238"/>
<path d="M120.4 66.3308C121.597 66.2695 124.719 63.3663 124.817 58.2842C124.817 58.2842 124.369 62.8446 123.984 63.5136C123.599 64.1826 125.727 61.881 125.867 57.7871C127.342 58.7095 128.959 59.4431 130.669 59.966C132.874 60.5061 134.225 60.4877 134.386 60.3465C134.547 60.2054 131.292 59.3092 130.41 58.4254C130.41 58.4254 136.29 60.813 138.992 60.9971C139.307 60.9971 139.692 55.3688 135.492 52.9751C131.292 50.5813 124.677 53.1715 122.892 54.6814C122.892 54.6814 120.792 54.9392 118.531 57.6582C116.27 60.3772 119.112 66.3984 120.4 66.3308Z" fill="#263238"/>
<path d="M121.912 67.6504C121.912 67.6504 119.511 64.5815 117.936 65.3426C116.361 66.1037 118.139 70.5045 119.98 71.1183C120.21 71.2112 120.459 71.2626 120.713 71.2692C120.966 71.2758 121.218 71.2376 121.454 71.1568C121.69 71.076 121.905 70.9543 122.086 70.799C122.267 70.6436 122.41 70.4579 122.507 70.2528L121.912 67.6504Z" fill="#EB9481"/>
<path d="M118.482 66.5947V66.6377C119.77 67.1103 120.442 68.166 120.911 69.2585C120.837 69.1438 120.736 69.0446 120.615 68.9678C120.493 68.891 120.353 68.8385 120.206 68.8139C120.058 68.7894 119.907 68.7934 119.761 68.8256C119.616 68.8579 119.48 68.9177 119.364 69.0007C119.364 69.0007 119.364 69.0682 119.399 69.0621C119.627 68.9994 119.871 69.0006 120.098 69.0655C120.326 69.1304 120.524 69.2558 120.666 69.4242C120.903 69.7054 121.104 70.0078 121.268 70.3265C121.324 70.4308 121.534 70.3756 121.492 70.259C121.52 68.7859 120.253 66.7543 118.482 66.5947Z" fill="#263238"/>
<path d="M121.527 70.8973C121.529 71.0384 121.482 71.1766 121.394 71.2945C121.305 71.4124 121.179 71.5046 121.031 71.5595C120.883 71.6143 120.719 71.6293 120.561 71.6025C120.403 71.5757 120.258 71.5084 120.144 71.4091C120.029 71.3098 119.951 71.1829 119.919 71.0446C119.888 70.9064 119.903 70.7629 119.964 70.6324C120.026 70.502 120.13 70.3904 120.263 70.3119C120.397 70.2334 120.554 70.1915 120.715 70.1915C120.929 70.1915 121.135 70.2656 121.287 70.3978C121.439 70.53 121.525 70.7096 121.527 70.8973Z" fill="white"/>
<path d="M146.3 129.292C146.3 129.292 109.018 129.777 99.7642 129.206C99.7642 129.206 107.31 91.7043 117.264 82.2276C117.635 81.8716 118.028 81.5335 118.44 81.2149C119.049 80.7669 118.965 77.1885 119.252 76.9185C119.539 76.6484 131.635 78.0417 131.789 78.2995C131.943 78.5573 132.566 81.933 132.566 81.933C135.31 85.0019 144.137 95.608 145.166 99.9842C146.195 104.36 142.954 109.191 142.954 109.191L146.3 129.292Z" fill="#6E89BE"/>
<path d="M114.415 88.9178C112.21 98.2349 113.519 118.379 118.615 122.062C127.015 128.089 147.203 129.851 152.838 130.434C155.267 130.685 160.104 116.746 158.438 114.948C156.772 113.15 131.957 110.351 130.774 109.424C129.955 108.761 126.098 96.59 122.773 89.728C118.3 80.4416 115.22 85.4807 114.415 88.9178Z" fill="#EB9481"/>
<path d="M154.238 113.825C154.238 113.825 161.686 113.757 166.558 113.917C169.281 114.003 173.922 114.531 175.889 115.39C178.822 116.685 190.162 123.743 188.265 126.192C186.55 128.408 183.176 125.493 183.176 125.493C183.176 125.493 187.208 128.371 184.737 130.114C182.266 131.858 178.269 127.696 178.269 127.696C178.269 127.696 182.791 130.495 179.949 132.128C177.485 133.552 172.312 129.181 172.312 129.181C172.312 129.181 177.429 131.637 175.063 133.337C172.452 135.178 163.758 129.482 163.758 129.482C157.528 130.71 153.601 130.71 149.023 130.053C148.183 129.93 154.238 113.825 154.238 113.825Z" fill="#EB9481"/>
<path d="M179.515 128.666L178.5 127.727C177.872 127.104 177.204 126.514 176.498 125.959C175.798 125.431 175.098 124.928 174.328 124.449C173.558 123.971 172.69 123.492 171.92 122.97C171.857 122.927 171.787 123.007 171.857 123.044C172.622 123.561 173.355 124.112 174.055 124.695C174.755 125.247 175.455 125.812 176.155 126.37C176.855 126.929 177.555 127.426 178.255 127.96C178.598 128.224 178.955 128.5 179.27 128.776C179.569 129.06 179.894 129.321 180.243 129.556C180.278 129.556 180.32 129.556 180.299 129.507C180.073 129.203 179.81 128.921 179.515 128.666Z" fill="#263238"/>
<path d="M184.002 126.107C182.879 124.917 181.663 123.797 180.362 122.755C179.045 121.721 177.612 120.806 176.085 120.024C176.029 120.024 175.973 120.061 176.015 120.098C177.331 121.135 178.668 122.154 180.005 123.167C180.656 123.664 183.54 126.008 183.876 126.235C183.953 126.272 184.051 126.174 184.002 126.107Z" fill="#263238"/>
<path d="M175.364 131.17C174.275 130.072 173.106 129.037 171.864 128.071C170.498 127.188 169.059 126.396 167.559 125.701C167.503 125.701 167.447 125.751 167.496 125.781C168.854 126.665 170.226 127.518 171.535 128.457C172.179 128.918 174.601 130.869 175.259 131.256C175.329 131.293 175.406 131.219 175.364 131.17Z" fill="#263238"/>
<path d="M147.252 131.011L156.135 112.849C156.135 112.849 131.803 109.32 131.054 108.89C130.305 108.46 125.867 94.2945 123.018 88.7337C120.169 83.1728 115.276 79.9075 113.386 91.8455C111.496 103.783 114.233 118.361 116.97 121.393C120.288 125.063 133.427 129.709 147.252 131.011Z" fill="#6E89BE"/>
<path d="M134.75 128.715C131.11 127.85 127.561 126.34 124.082 125.032C121.093 123.934 118.041 122.577 116.382 120.006C115.609 118.696 115.068 117.291 114.779 115.838C114.394 114.218 114.079 112.579 113.813 110.928C113.491 109.046 113.202 107.159 112.945 105.269C112.819 104.299 112.693 103.329 112.581 102.359C112.469 101.39 112.266 100.42 112.224 99.4441C112.224 99.431 112.218 99.4185 112.208 99.4093C112.197 99.4001 112.183 99.395 112.168 99.395C112.153 99.395 112.139 99.4001 112.129 99.4093C112.118 99.4185 112.112 99.431 112.112 99.4441C112.189 100.34 112.112 101.242 112.196 102.145C112.196 102.758 112.28 103.323 112.329 103.912L112.133 103.538C111.918 103.108 111.753 102.66 111.643 102.2C111.643 102.145 111.524 102.169 111.538 102.2C111.664 102.66 111.79 103.127 111.937 103.581C112.007 103.802 112.091 104.023 112.189 104.244C112.248 104.392 112.316 104.538 112.392 104.68C112.56 106.443 112.777 108.199 113.043 109.946C113.302 111.64 113.603 113.322 113.946 115.003C114.2 116.491 114.651 117.947 115.29 119.343C115.926 120.658 116.898 121.828 118.132 122.761C119.411 123.682 120.823 124.45 122.332 125.045C125.744 126.427 129.271 127.58 132.881 128.494C137.2 129.685 138.516 129.605 134.75 128.715Z" fill="#263238"/>
<path d="M143.885 110.959C142.989 110.854 132.398 108.902 131.985 108.798C131.778 108.743 131.591 108.641 131.443 108.504C131.294 108.366 131.189 108.197 131.138 108.012C130.809 107.264 130.522 106.496 130.214 105.741C129.682 104.44 129.141 103.145 128.59 101.856C128.59 101.568 128.527 101.242 128.492 100.991C128.457 100.739 128.387 100.303 128.324 99.9596C128.184 99.217 127.932 98.4866 127.827 97.7439C127.827 97.6703 127.694 97.6948 127.715 97.7439C127.928 98.4752 128.055 99.2239 128.093 99.9781C128.128 100.273 128.149 100.592 128.17 100.868C127.848 100.113 127.519 99.3581 127.176 98.6093C126.777 97.7378 126.322 96.8601 126 95.964C126 95.9026 125.874 95.9333 125.895 95.964C126.259 96.768 126.518 97.6212 126.805 98.4191C127.092 99.217 127.4 100.076 127.708 100.905C128.31 102.531 128.947 104.146 129.591 105.766C129.899 106.545 130.2 107.337 130.529 108.111C130.619 108.4 130.797 108.663 131.043 108.872C131.29 109.08 131.596 109.226 131.929 109.295C133.77 109.731 142.772 111.038 143.864 111.075C143.976 111.137 144.004 110.971 143.885 110.959Z" fill="#263238"/>
<path d="M151.634 113.131C150.234 115.74 148.834 118.33 147.567 120.994C146.286 123.614 145.162 126.292 144.2 129.016C144.195 129.028 144.195 129.042 144.201 129.054C144.207 129.066 144.218 129.075 144.232 129.08C144.246 129.085 144.261 129.085 144.275 129.08C144.289 129.075 144.3 129.065 144.305 129.053C145.705 126.493 146.93 123.836 148.169 121.202C149.408 118.569 150.535 115.863 151.788 113.223C151.851 113.113 151.69 113.027 151.634 113.131Z" fill="#263238"/>
<path d="M177.8 111.057C176.729 111.585 170.597 110.099 168.112 111.732C166.467 112.812 164.857 115.414 164.507 118.809C164.15 122.313 167.307 122.135 168.476 120.65C169.9 118.695 171.143 116.642 172.193 114.512C173.317 114.709 174.425 114.969 175.511 115.292L177.8 111.057Z" fill="#AD6359"/>
<path d="M170.282 123.289C168.385 121.546 158.907 127.936 161.882 130.839C164.857 133.742 172.424 125.266 170.282 123.289Z" fill="#AD6359"/>
<path d="M173.446 125.787C171.549 124.044 162.071 130.434 165.046 133.337C168.021 136.24 175.588 127.764 173.446 125.787Z" fill="#AD6359"/>
<path d="M175.938 126.671C173.943 125.315 166.341 132.281 169.526 134.552C172.711 136.823 178.199 128.206 175.938 126.671Z" fill="#AD6359"/>
<path d="M178.647 127.052C176.358 126.284 171.535 134.632 175.224 135.951C178.913 137.271 181.244 127.893 178.647 127.052Z" fill="#AD6359"/>
<path d="M170.002 126.162C169.475 126.471 168.979 126.818 168.518 127.199C168.007 127.592 167.503 127.991 167.041 128.427C166.59 128.839 166.167 129.273 165.774 129.728C165.361 130.219 165.018 130.753 164.598 131.232C164.59 131.236 164.584 131.242 164.58 131.249C164.575 131.255 164.573 131.263 164.572 131.271C164.572 131.279 164.574 131.287 164.578 131.294C164.582 131.301 164.587 131.307 164.595 131.312C164.602 131.317 164.61 131.32 164.619 131.321C164.628 131.323 164.637 131.322 164.646 131.319C164.654 131.317 164.662 131.313 164.668 131.307C164.675 131.301 164.679 131.294 164.682 131.287C165.097 130.824 165.548 130.387 166.033 129.979C166.488 129.562 166.915 129.126 167.37 128.703C167.825 128.279 168.231 127.868 168.679 127.475C169.127 127.082 169.631 126.677 170.079 126.248C170.1 126.192 170.051 126.137 170.002 126.162Z" fill="#263238"/>
<path d="M173.768 126.941C173.362 127.487 171.941 129.605 171.507 130.139C171.073 130.673 170.618 131.207 170.156 131.729C169.694 132.25 169.246 132.821 168.721 133.312C168.679 133.355 168.756 133.423 168.805 133.38C169.33 132.889 169.904 132.441 170.401 131.925C170.898 131.41 171.353 130.888 171.801 130.342C172.579 129.259 173.28 128.136 173.901 126.978C173.901 126.923 173.803 126.892 173.768 126.941Z" fill="#263238"/>
<path d="M176.4 128.132C175.98 128.942 175.616 129.783 175.189 130.587C174.979 130.986 174.762 131.385 174.552 131.815L174.258 132.398C174.166 132.63 174.049 132.854 173.908 133.067C173.866 133.116 173.978 133.171 174.006 133.104C174.147 132.861 174.311 132.629 174.496 132.41C174.615 132.226 174.741 132.042 174.853 131.858C175.091 131.448 175.308 131.049 175.504 130.661C175.913 129.865 176.255 129.045 176.526 128.206C176.537 128.191 176.541 128.173 176.537 128.156C176.534 128.138 176.522 128.123 176.505 128.114C176.489 128.104 176.468 128.1 176.448 128.104C176.429 128.107 176.411 128.117 176.4 128.132Z" fill="#263238"/>
<path d="M182.581 58.3713C182.247 61.175 181.03 63.842 179.067 66.0749C177.105 68.3078 174.473 70.0187 171.466 71.0167C168.46 72.0148 165.196 72.2608 162.039 71.7273C158.882 71.1938 155.956 69.9017 153.587 67.9953L144.9 69.1123L149.247 62.5327C148.118 60.0986 147.726 57.4495 148.111 54.8434C148.496 52.2374 149.645 49.7631 151.444 47.6617C153.244 45.5603 155.633 43.9034 158.38 42.8524C161.127 41.8014 164.137 41.392 167.118 41.6643C171.695 42.0837 175.894 44.079 178.793 47.2117C181.693 50.3444 183.055 54.3582 182.581 58.3713Z" fill="white"/>
<path d="M182.581 58.3701C182.244 61.1729 181.033 63.8401 179.081 66.0792C178.598 66.6383 178.075 67.1693 177.513 67.6688C176.934 68.1539 176.322 68.6069 175.679 69.0253C174.398 69.8795 172.984 70.5678 171.479 71.0692C169.983 71.5862 168.411 71.9147 166.81 72.0451C166.01 72.1115 165.205 72.1258 164.402 72.088C163.596 72.0701 162.794 71.9962 162.001 71.8671C158.804 71.3624 155.83 70.0872 153.412 68.1844L153.622 68.2397L144.956 69.3567L144.326 69.4427L144.641 68.9578L148.96 62.3658V62.6236C147.947 60.4489 147.516 58.0998 147.698 55.7561C147.88 53.4125 148.671 51.1364 150.01 49.1021C151.361 47.0724 153.218 45.3371 155.442 44.0262C158.207 42.4033 161.441 41.505 164.767 41.4366C168.093 41.3682 171.373 42.1324 174.221 43.6397C177.069 45.1471 179.368 47.3351 180.849 49.9473C182.33 52.5595 182.931 55.4876 182.581 58.3886V58.3701ZM182.581 58.3701C182.858 56.0789 182.531 53.7626 181.626 51.5995C180.721 49.4364 179.262 47.4842 177.361 45.8934C175.46 44.3026 173.169 43.1155 170.662 42.4236C168.156 41.7317 165.502 41.5535 162.904 41.9025C160.333 42.2336 157.882 43.0731 155.736 44.3576C153.617 45.663 151.847 47.3574 150.549 49.3231C149.267 51.2949 148.513 53.4966 148.344 55.7616C148.185 58.021 148.601 60.2832 149.562 62.3842L149.625 62.5193L149.541 62.6482L145.173 69.2156L144.865 68.8105L153.552 67.7425H153.671L153.762 67.81C156.079 69.7124 158.953 71.0129 162.064 71.5663C162.842 71.7022 163.631 71.7864 164.423 71.818C165.213 71.867 166.006 71.867 166.796 71.818C168.381 71.7106 169.941 71.409 171.43 70.9219C172.935 70.4503 174.35 69.7841 175.63 68.9455C176.932 68.1372 178.082 67.1556 179.039 66.0362C180.998 63.8133 182.223 61.1616 182.581 58.3701Z" fill="#263238"/>
<path d="M163.289 65.4654L155.883 58.8857L158.368 56.7313L162.701 60.5736L171.696 48.206L174.643 49.8571L163.289 65.4654Z" fill="#FEC7A0"/>
</svg>
