<svg width="350" height="350" viewBox="0 0 350 350" fill="none" xmlns="http://www.w3.org/2000/svg">
<path d="M217 263.132L237.679 272.16C237.679 272.16 246.198 263.255 244.396 253.557C240.717 233.774 258.311 231.934 265.556 230.057C276.49 227.236 283.679 220.557 276.207 210.934C267.755 200.047 284.556 188.208 302.877 186.198C320.802 184.226 327.641 151.226 288.453 151.934C265.047 152.349 259.085 174.368 253.424 184.764C247.764 195.16 231.302 189.047 231.038 204.651C230.811 217.981 236.16 230.104 225.953 234.887C215.773 239.66 211.273 248.047 217 263.132Z" fill="#FEC7A0"/>
<g opacity="0.5">
<path opacity="0.5" d="M225.113 268.953L225.575 269.066C225.641 268.783 232.481 240.047 247.858 213.604C262.018 189.245 286.528 161.906 322.877 169.991L322.981 169.528C306.802 165.925 291.585 168.925 277.745 178.443C266.688 186.047 256.5 197.792 247.443 213.377C232.037 239.877 225.179 268.67 225.113 268.953Z" fill="#BEB8F2"/>
<path opacity="0.5" d="M272.141 182.67L272.594 182.802C277.094 167.594 291.518 149.509 291.669 149.33L291.302 149.028C291.151 149.217 276.66 167.377 272.141 182.67Z" fill="#BEB8F2"/>
<path opacity="0.5" d="M281.528 176.575C300.217 173.83 312.037 184.217 312.151 184.321L312.471 183.962C312.349 183.859 300.386 173.321 281.462 176.094L281.528 176.575Z" fill="#BEB8F2"/>
<path opacity="0.5" d="M238.755 231.434C252.623 212.981 282.821 220.151 283.104 220.245L283.283 219.802C283.009 219.679 252.359 212.528 238.377 231.151L238.755 231.434Z" fill="#BEB8F2"/>
<path opacity="0.5" d="M242.424 222.651L242.887 222.745C245.906 208.33 235.538 192.981 235.434 192.83L235.038 193.104C235.141 193.255 245.396 208.443 242.424 222.651Z" fill="#BEB8F2"/>
<path opacity="0.5" d="M226.754 264.566C230.877 256.83 245.085 255.481 245.226 255.462L245.188 254.991C244.594 255.047 230.585 256.377 226.339 264.34L226.754 264.566Z" fill="#BEB8F2"/>
<path opacity="0.5" d="M228.283 257.745L228.745 257.859C230.405 251.132 223.99 240.019 221.877 236.368C221.575 235.849 221.32 235.406 221.292 235.321L220.839 235.472C220.877 235.594 221.047 235.896 221.462 236.613C223.547 240.217 229.896 251.198 228.283 257.745Z" fill="#BEB8F2"/>
</g>
<path d="M124.613 224.83C130.735 226.764 132.943 232.585 133.886 237.057C133.452 237.491 133.311 237.858 132.971 238.396C129.896 243.245 127.556 244.651 123.773 248.953C122.962 249.877 119.745 251.868 118.377 252.594L115.811 253.915C115.811 253.915 102.358 247.774 104.99 239.783C107.622 231.792 95.5845 224.34 89.6883 219.604C86.0751 216.698 85.3487 214.208 84.1883 212.925C71.9336 199.358 64.226 199.491 62.9525 192.632C61.5468 185.066 70.5374 182.736 69.443 174.415C68.2072 165.028 55.9053 161.689 56.7166 152.538C56.8581 150.972 57.0374 149.358 58.0374 147.509C60.4902 142.943 65.3864 142.094 64.9619 136.689C64.1034 125.83 70.311 115.462 81.4996 116.415C92.5374 117.349 98.726 134.887 93.6317 158.972C91.9619 176.519 94.2543 179 100.981 183.896C105.688 187.33 120.745 193.519 119.122 203.566C117.471 213.632 117.603 222.623 124.613 224.83Z" fill="#FEC7A0"/>
<g opacity="0.5">
<path opacity="0.5" d="M126.037 246.991L125.707 247.255C124.254 245.434 122.802 243.585 121.415 241.755C111.103 228.17 102.528 214.038 95.9524 199.764C90.377 187.67 86.1506 175.292 83.377 162.991C81.1506 153.094 79.8581 143.189 79.5185 133.547C79.2826 126.774 79.5279 120.198 80.2449 114C80.3675 112.924 80.5562 111.821 80.7355 110.755C80.9808 109.34 81.226 107.868 81.3298 106.443H81.7449C81.6411 107.887 81.3864 109.368 81.1506 110.792C80.9713 111.849 80.7826 112.953 80.66 114.019C79.9524 120.189 79.7072 126.745 79.943 133.509C80.2732 143.123 81.5657 153.009 83.7921 162.877C86.5562 175.16 90.7732 187.5 96.3392 199.575C102.905 213.83 111.462 227.934 121.764 241.5C123.141 243.33 124.585 245.179 126.037 246.991Z" fill="#FCFDFE"/>
<path opacity="0.5" d="M87.7922 177.66L87.4055 177.811C81.83 161.896 56.6696 147.236 56.4243 147.094L56.6507 146.745C56.896 146.887 82.1696 161.613 87.7922 177.66Z" fill="#FCFDFE"/>
<path opacity="0.5" d="M107.509 220.557L107.132 220.755C102.009 210.462 111.49 189.179 111.585 188.962L111.962 189.104C111.868 189.311 102.462 210.434 107.509 220.557Z" fill="#FCFDFE"/>
<path opacity="0.5" d="M110.952 226.113L110.613 226.368C106.056 220.424 96.3863 214.915 83.4051 210.877C82.7542 210.67 82.7542 210.67 82.707 210.613L83.0372 210.358L82.8674 210.491L82.9806 210.311C83.0183 210.33 83.2731 210.406 83.5561 210.5C96.6221 214.566 106.349 220.113 110.952 226.113Z" fill="#FCFDFE"/>
<path opacity="0.5" d="M123.424 243.642L123.037 243.792C120.264 235.972 127.198 224.915 127.264 224.802L127.613 224.991C127.547 225.104 120.717 236 123.424 243.642Z" fill="#FCFDFE"/>
<path opacity="0.5" d="M125.603 247.462C119.764 244.094 112.622 242.321 103.754 242.038L103.802 241.632C112.736 241.915 119.943 243.708 125.83 247.113L125.603 247.462Z" fill="#FCFDFE"/>
<path opacity="0.5" d="M80.2169 139.17L79.8207 139.302C77.2358 130.245 72.3207 121.472 70.7075 118.594C70.3207 117.896 70.1792 117.651 70.1509 117.557L70.5471 117.406C70.5754 117.481 70.7924 117.877 71.0754 118.377C72.6981 121.274 77.6226 130.075 80.2169 139.17Z" fill="#FCFDFE"/>
<path opacity="0.5" d="M82.1319 154.651L81.7168 154.67C82.0281 145.679 95.5658 132.519 96.1413 131.962L96.4243 132.236C96.2828 132.368 82.4338 145.83 82.1319 154.651Z" fill="#FCFDFE"/>
</g>
<path d="M257.443 244.453C256.066 244.585 256.066 237.311 250.141 229.349C248.66 227.358 241.349 215.943 231.339 217.858C229.396 218.226 227.452 218.604 225.509 218.972C222.858 215.019 221.094 210.802 226.566 207.811C235.056 203.16 231.603 188 227.811 183.226C223.103 177.311 212.462 163.34 225.471 155.953C236.311 149.811 244.603 147.915 241.971 133.566C239.339 119.208 245.405 108.5 259.245 106.226C273.811 103.84 281.207 83.1509 294.434 86.4905C317.481 92.3113 306.509 127.774 283.783 142.5C261.066 157.226 277.415 162.434 280.905 173.868C281.169 174.953 281.5 176.641 281.5 178.717C281.528 191.49 269.33 196.472 262.537 208.49C253.273 224.887 259.764 244.226 257.443 244.453Z" fill="#FEC7A0"/>
<g opacity="0.5">
<path opacity="0.5" d="M242.896 213.84L242.198 213.859C241.028 165.859 264.528 117.264 303.538 87.0566L303.972 87.5661C265.132 117.651 241.726 166.038 242.896 213.84Z" fill="#FCFDFE"/>
<path opacity="0.5" d="M244.632 187.585L243.953 187.736C239.556 169.377 219.453 158.811 219.245 158.708L219.585 158.132C219.783 158.236 240.16 168.934 244.632 187.585Z" fill="#FCFDFE"/>
<path opacity="0.5" d="M242.933 205L242.264 204.83C247.726 186.34 283.075 175.953 283.424 175.849L283.622 176.481C283.264 176.585 248.292 186.859 242.933 205Z" fill="#FCFDFE"/>
<path opacity="0.5" d="M259.198 142.396L258.519 142.283C261.519 127.33 247.141 108.594 246.99 108.406L247.556 108.01C247.698 108.208 262.254 127.179 259.198 142.396Z" fill="#FCFDFE"/>
<path opacity="0.5" d="M275.679 115.981L275.198 115.519C288.302 103.292 313.038 102.859 313.283 102.859V103.519C313.038 103.509 288.576 103.934 275.679 115.981Z" fill="#FCFDFE"/>
</g>
<path d="M186.613 273.057C186.302 274.406 179.406 272.076 169.962 275.123C167.604 275.887 154.443 279.151 153.047 289.245C152.773 291.208 152.5 293.16 152.236 295.123C147.641 296.359 143.085 296.679 142.009 290.538C140.33 281 124.858 279.406 119.122 281.472C112.019 284.028 95.3583 289.632 92.547 274.934C90.198 262.698 91.0753 254.236 76.6319 252.123C62.1885 250.009 53.9904 240.83 56.2829 226.991C58.698 212.425 41.481 198.783 48.8772 187.33C61.7829 167.368 91.8489 189.142 98.5093 215.387C105.17 241.632 115.339 227.811 127.302 228.179C128.406 228.274 130.122 228.509 132.085 229.17C144.189 233.236 145 246.396 154.198 256.689C166.745 270.726 187.141 270.783 186.613 273.057Z" fill="#FEC7A0"/>
<g opacity="0.5">
<path opacity="0.5" d="M152.953 277.009L152.755 277.679C106.915 263.387 68.4339 225.538 52.3301 178.896L52.9527 178.641C68.981 225.085 107.302 262.774 152.953 277.009Z" fill="#FCFDFE"/>
<path opacity="0.5" d="M128.641 266.943L128.566 267.632C109.764 265.906 93.3113 281.557 93.1415 281.717L92.7075 281.208C92.8773 281.057 109.547 265.189 128.641 266.943Z" fill="#FCFDFE"/>
<path opacity="0.5" d="M144.594 274.141L144.217 274.717C128.453 263.613 129.962 226.802 129.981 226.434L130.641 226.453C130.613 226.821 129.132 263.245 144.594 274.141Z" fill="#FCFDFE"/>
<path opacity="0.5" d="M90.5187 238.651L90.1885 239.264C76.9904 231.632 54.6319 239.236 54.4055 239.311L54.2168 238.651C54.4526 238.566 77.0847 230.868 90.5187 238.651Z" fill="#FCFDFE"/>
<path opacity="0.5" d="M70.783 214.566L70.1886 214.877C62.8113 198.538 70.3396 174.981 70.4151 174.745L71.0377 174.953C70.9622 175.179 63.5188 198.481 70.783 214.566Z" fill="#FCFDFE"/>
</g>
<path d="M264.538 78.8868L92.2545 68.9245C88.2828 68.7264 84.7168 73.0566 84.7168 76.6981V298.538C84.7168 303.575 89.8677 304.594 93.8394 304.189L264.538 286.755C267.66 286.434 270.17 283.585 270.17 280.377V84.9623C270.17 81.7547 267.651 79.0377 264.538 78.8868Z" fill="black"/>
<path d="M267.368 77.1226L94.745 68.6321C90.7733 68.4339 87.5469 71.2453 87.5469 74.9151V298.49C87.5469 302.151 90.7827 304.792 94.745 304.387L267.368 286.623C270.49 286.302 273 283.424 273 280.198V83.2453C273.009 80.0188 270.49 77.283 267.368 77.1226Z" fill="#D8DEE8"/>
<path opacity="0.3" d="M94.7452 301.349C92.6037 301.566 90.8584 300.132 90.8584 298.16V75.066C90.8584 73.0943 92.6037 71.566 94.7452 71.6698L267.368 79.8207C269.057 79.8962 270.424 81.3868 270.424 83.132V280.443C270.424 282.189 269.057 283.745 267.368 283.915L94.7452 301.349Z" fill="#EBEBEB"/>
<path d="M256.245 278.632L108.604 292.859V87.0283L256.245 92.5849V278.632Z" fill="white"/>
<path opacity="0.3" d="M197.188 93.5943L138.179 94.3301L139.499 81.0188C139.603 79.2924 140.849 77.8679 142.499 77.6131L152.49 76.0754C153.669 75.8962 154.679 75.1131 155.198 73.9999L156.282 71.6509L182.424 73.2641L197.188 93.5943Z" fill="#97A6B7"/>
<path d="M228.698 84.9623C228.415 83.4528 227.207 82.3962 225.688 82.3302L216.264 81.9057C211.981 81.717 208.849 78.2358 209 73.8302L209.368 63.6226C209.434 61.7358 208.085 60.2264 206.236 60.1132L203.141 59.9245C200.783 59.783 199.207 57.6981 199.537 55.2924C200.113 51.0849 197.236 47.4528 193.056 47.1698C188.849 46.8868 184.915 50.1038 184.292 54.3585C184.198 54.9906 183.981 55.6132 183.641 56.1792C182.669 57.7358 180.962 58.6038 179.292 58.5L176.094 58.3113C174.16 58.1981 172.32 59.5566 171.83 61.4623L169.169 71.8207C168.019 76.3019 163.688 79.5377 159.085 79.3302L148.745 78.8679C147.047 78.7924 145.386 79.783 144.613 81.3302L138.377 93.6981C137.868 94.7076 138.5 95.8019 139.603 95.8396L229.292 98.8208C230.273 98.8491 231.103 97.8774 230.924 96.9057L228.698 84.9623ZM191.783 56.0094C190.547 55.934 189.688 54.8585 189.868 53.6132C190.047 52.3679 191.198 51.4151 192.434 51.5C193.669 51.5849 194.519 52.6509 194.339 53.8962C194.16 55.1415 193.019 56.0943 191.783 56.0094Z" fill="url(#paint0_linear)"/>
<path d="M229.236 85.2358C228.953 83.7264 227.745 82.6698 226.226 82.6037L216.802 82.1792C212.519 81.9905 209.387 78.5094 209.538 74.1037L209.906 63.8962C209.972 62.0094 208.623 60.5 206.774 60.3868L203.679 60.1981C201.321 60.0566 199.745 57.9717 200.075 55.566C200.651 51.3585 197.774 47.7264 193.594 47.4434C189.387 47.1603 185.453 50.3773 184.83 54.632C184.736 55.2641 184.519 55.8868 184.179 56.4528C183.208 58.0094 181.5 58.8773 179.83 58.7735L176.632 58.5849C174.698 58.4717 172.859 59.8302 172.368 61.7358L169.708 72.0943C168.557 76.5754 164.226 79.8113 159.623 79.6037L149.283 79.1415C147.585 79.066 145.925 80.0566 145.151 81.6037L138.915 93.9717C138.406 94.9811 139.038 96.0754 140.142 96.1132L229.83 99.0943C230.811 99.1226 231.642 98.1509 231.462 97.1792L229.236 85.2358ZM192.311 56.2924C191.075 56.2169 190.217 55.1415 190.396 53.8962C190.575 52.6509 191.726 51.6981 192.962 51.783C194.198 51.8679 195.047 52.9339 194.868 54.1792C194.689 55.4151 193.547 56.3679 192.311 56.2924Z" fill="#97A6B7"/>
<path opacity="0.5" d="M213.886 90.9245C205.886 85.9811 199.745 89.4906 194.764 83.9151C189.424 77.9528 193.028 70.1038 187.5 66.3962C183.962 64.0283 180.811 66.1132 176.698 65.4717C175.188 65.2358 173.585 64.6415 171.915 63.4717L169.698 72.1132C168.547 76.5943 164.217 79.8302 159.613 79.6226L149.273 79.1604C147.575 79.0849 145.915 80.0755 145.141 81.6226L138.905 93.9906C138.396 95 139.028 96.0943 140.132 96.1321L221.641 98.8396C219.585 95.5755 217.037 92.8679 213.886 90.9245Z" fill="#DEE2E9"/>
<path d="M241.745 122.019L126.5 121.604V116L241.745 116.755V122.019Z" fill="#EBEBEB"/>
<path d="M241.745 155.887L126.5 157.623V152.019L241.745 150.613V155.887Z" fill="#EBEBEB"/>
<path d="M241.745 170.557L126.5 173.226V167.623L241.745 165.292V170.557Z" fill="#EBEBEB"/>
<path d="M241.745 185.236L126.5 188.83V183.236L241.745 179.962V185.236Z" fill="#EBEBEB"/>
<path d="M241.745 199.528L126.5 204.038V198.84L241.745 194.642V199.528Z" fill="#EBEBEB"/>
<path d="M241.745 214.208L126.5 219.651V214.443L241.745 209.311V214.208Z" fill="#EBEBEB"/>
<path d="M176.708 255.5L126.5 258.868V257.264L176.708 253.943V255.5Z" fill="#D8DEE8"/>
<path d="M241.745 229.255L213.773 230.802V226.594L241.745 225.113V229.255Z" fill="#EBEBEB"/>
<path d="M241.745 240.17L213.773 241.877V237.679L241.745 236.028V240.17Z" fill="#EBEBEB"/>
<path d="M241.745 251.075L213.773 252.953V248.377L241.745 246.566V251.075Z" fill="#EBEBEB"/>
<path d="M136.764 261.283C136.764 261.283 137.311 260.33 138.311 258.679C138.802 257.859 139.415 256.868 140.123 255.736C140.83 254.604 141.642 253.34 142.557 251.981C143.472 250.623 144.472 249.16 145.623 247.67C146.208 246.934 146.811 246.179 147.538 245.462C147.717 245.283 147.915 245.113 148.123 244.943C148.34 244.774 148.557 244.613 148.859 244.481C149.009 244.415 149.189 244.359 149.415 244.359C149.528 244.359 149.651 244.377 149.774 244.434C149.896 244.481 150.009 244.566 150.094 244.66C150.434 245.038 150.434 245.453 150.491 245.651C150.67 246.689 150.755 247.755 150.726 248.849C150.708 249.396 150.66 249.953 150.575 250.509C150.491 251.066 150.368 251.632 150.142 252.217C150.028 252.509 149.887 252.802 149.66 253.104C149.547 253.255 149.406 253.406 149.198 253.528C149 253.651 148.717 253.726 148.472 253.689C148.226 253.651 148.019 253.528 147.887 253.425L147.849 253.396L147.792 253.349C147.755 253.321 147.726 253.292 147.698 253.264C147.632 253.208 147.575 253.142 147.519 253.066C147.406 252.915 147.292 252.726 147.236 252.5C147.179 252.274 147.179 252.019 147.217 251.792C147.311 251.34 147.528 251.019 147.726 250.764C147.934 250.5 148.16 250.292 148.387 250.104C148.84 249.726 149.302 249.425 149.783 249.16C150.736 248.632 151.708 248.236 152.708 247.915C153.708 247.613 154.717 247.377 155.764 247.349C156.292 247.34 156.83 247.368 157.396 247.594C157.679 247.708 157.972 247.896 158.198 248.217C158.226 248.255 158.255 248.302 158.274 248.34C158.302 248.387 158.321 248.434 158.33 248.453L158.415 248.623L158.585 248.962C158.811 249.415 159.019 249.849 159.245 250.245C159.472 250.632 159.717 250.981 159.991 251.217C160.264 251.453 160.566 251.575 160.915 251.594C161.264 251.613 161.642 251.528 162.028 251.387C162.792 251.104 163.538 250.642 164.236 250.142C164.962 249.632 165.67 249.132 166.368 248.67C166.717 248.434 167.066 248.208 167.434 248C167.792 247.792 168.17 247.594 168.594 247.462C169.009 247.321 169.472 247.292 169.858 247.33C170.245 247.368 170.585 247.434 170.906 247.491C171.066 247.519 171.226 247.547 171.377 247.575C171.528 247.604 171.708 247.632 171.792 247.642C172.019 247.66 172.217 247.613 172.358 247.519C172.509 247.425 172.632 247.283 172.726 247.094C172.821 246.906 172.877 246.689 172.906 246.462C172.962 246.019 172.896 245.575 172.764 245.226C172.642 244.868 172.443 244.604 172.245 244.415C172.047 244.226 171.83 244.123 171.642 244.057C171.453 243.991 171.302 243.972 171.198 243.953C171.094 243.943 171.038 243.943 171.038 243.943C170.906 243.943 170.811 243.821 170.821 243.679C170.83 243.557 170.915 243.453 171.019 243.434C171.019 243.434 171.085 243.425 171.217 243.406C171.349 243.387 171.538 243.368 171.792 243.406C172.047 243.434 172.368 243.528 172.689 243.745C173.019 243.953 173.33 244.302 173.566 244.774C173.792 245.245 173.943 245.84 173.906 246.519C173.887 246.859 173.811 247.226 173.651 247.594C173.491 247.962 173.226 248.34 172.849 248.575C172.472 248.821 172.047 248.915 171.642 248.887C171.415 248.877 171.283 248.84 171.113 248.811C170.953 248.783 170.792 248.755 170.632 248.726C170.311 248.67 169.981 248.604 169.679 248.575C169.377 248.547 169.113 248.575 168.821 248.67C168.236 248.868 167.566 249.302 166.896 249.745C166.217 250.198 165.519 250.698 164.792 251.208C164.047 251.726 163.245 252.245 162.311 252.604C161.84 252.774 161.33 252.906 160.774 252.877C160.5 252.868 160.217 252.802 159.953 252.698C159.689 252.594 159.443 252.434 159.226 252.255C158.792 251.887 158.491 251.434 158.226 250.981C157.962 250.528 157.745 250.076 157.528 249.632L157.368 249.311L157.283 249.142C157.264 249.104 157.264 249.094 157.255 249.085C157.245 249.075 157.245 249.066 157.236 249.057C157.179 248.972 157.066 248.887 156.906 248.821C156.585 248.689 156.151 248.651 155.708 248.66C154.821 248.689 153.877 248.896 152.953 249.189C152.028 249.481 151.113 249.859 150.264 250.34C149.84 250.576 149.425 250.84 149.066 251.142C148.887 251.292 148.726 251.443 148.594 251.604C148.462 251.755 148.387 251.925 148.368 252C148.359 252.038 148.359 252.066 148.368 252.094C148.377 252.123 148.387 252.16 148.434 252.208C148.453 252.236 148.472 252.255 148.5 252.283L148.538 252.321L148.557 252.34L148.594 252.368C148.651 252.415 148.67 252.415 148.67 252.415C148.66 252.415 148.632 252.425 148.651 252.415C148.67 252.406 148.708 252.368 148.755 252.311C148.849 252.189 148.953 251.991 149.038 251.783C149.208 251.359 149.321 250.868 149.396 250.387C149.472 249.896 149.519 249.396 149.538 248.896C149.575 247.906 149.5 246.915 149.34 245.972L149.311 245.792L149.302 245.745L149.292 245.717C149.292 245.698 149.283 245.679 149.283 245.67C149.264 245.613 149.245 245.576 149.255 245.594C149.264 245.613 149.321 245.632 149.321 245.623C149.321 245.623 149.264 245.632 149.198 245.66C149.066 245.717 148.896 245.83 148.736 245.962C148.575 246.094 148.406 246.245 148.245 246.396C147.594 247.028 147 247.755 146.434 248.462C145.302 249.896 144.292 251.33 143.377 252.66C141.547 255.34 140.094 257.642 139.075 259.255C138.057 260.868 137.5 261.802 137.5 261.802C137.359 262.038 137.076 262.113 136.868 261.972C136.679 261.811 136.623 261.519 136.764 261.283Z" fill="#97A6B7"/>
<path d="M239 293.632C239 293.632 239.651 296.255 239.67 297.198C239.688 298.151 229.245 299.472 229.075 298.774C228.915 298.075 230.66 296.802 231.924 296.302C233.188 295.802 236.887 294.434 236.887 294.434L239 293.632Z" fill="#FEC7A0"/>
<path d="M236.235 291.189L236.83 294.462C236.83 294.462 238.113 295.17 239.132 294.462L239.377 290.83L236.235 291.189Z" fill="#FFDEB4"/>
<path d="M258.047 296.434C258.047 296.434 258.698 299.056 258.716 300C258.735 300.953 248.292 302.273 248.122 301.575C247.962 300.877 249.707 299.604 250.971 299.104C252.235 298.604 255.933 297.236 255.933 297.236L258.047 296.434Z" fill="#FEC7A0"/>
<path d="M255.292 293.991L255.896 297.264C255.896 297.264 257.179 297.972 258.198 297.264L258.443 293.632L255.292 293.991Z" fill="#FFDEB4"/>
<path d="M231.236 204.84C230.217 207.396 229.207 209.953 228.188 212.5C228.339 226.604 229.075 241.887 230.688 258.17C231.896 270.283 233.462 281.726 235.255 292.443C236.896 292.236 238.528 292.028 240.17 291.821C242.17 286.915 244.405 279.547 243.953 270.698C243.481 261.472 240.594 260.481 240.066 251.651C239.377 240.217 243.924 236.783 245.377 222.849C245.934 217.519 246.038 210.604 244.594 202.349C240.141 203.189 235.688 204.019 231.236 204.84Z" fill="#455A64"/>
<path opacity="0.3" d="M244.594 202.358C242.188 202.802 239.783 203.255 237.377 203.698C233.622 211.641 233.037 219.651 234.085 223.085C235.566 227.943 238.556 229.302 238.802 234.283C239.037 239.217 236.245 240.717 234.868 246.66C233.915 250.773 234.547 254.434 235.849 261.594C238.471 276.009 242.339 280.17 239.783 285.17C239.056 286.594 237.679 288.321 234.83 289.792C234.971 290.679 235.113 291.566 235.264 292.443C236.905 292.236 238.537 292.028 240.179 291.821C242.179 286.915 244.415 279.547 243.962 270.698C243.49 261.472 240.604 260.481 240.075 251.651C239.387 240.217 243.934 236.783 245.387 222.849C245.934 217.528 246.047 210.613 244.594 202.358Z" fill="url(#paint1_linear)"/>
<path d="M238.113 208.745C241.386 220.972 244.452 234.085 247.151 248.047C250.405 264.896 252.698 280.849 254.292 295.698C256.103 295.604 257.905 295.509 259.717 295.415C265.698 280.783 265.368 271.217 263.849 265.094C263.264 262.736 261.811 258.132 261.009 251.141C260.443 246.273 260.462 242.528 260.49 238.028C260.556 228.16 261.424 225.934 260.971 218.424C260.547 211.377 260.292 207.811 258.113 205.896C252.377 200.849 239.113 208.179 238.113 208.745Z" fill="#455A64"/>
<path d="M185.622 180.34C185.622 180.34 181.651 180 181.075 179.358C180.5 178.717 180.132 178.679 180.047 178.094C179.962 177.5 178.292 177.792 178.981 179.066C179.679 180.349 178.103 179.679 177.802 179.641C177.094 179.566 174.396 179.49 174.471 179.66C174.547 179.83 173.264 181.509 175.179 182.377C176.858 183.141 176.368 182.802 177.462 182.858C178.556 182.915 181.934 181.811 181.934 181.811L184.83 182.028L185.622 180.34Z" fill="#FFDEB4"/>
<path d="M183.292 178.49C183.113 179.811 182.943 181.141 182.764 182.462C185.396 184.66 191.207 188.858 199.301 189.49C213.566 190.604 227.717 180.047 230.349 168.17C231.65 162.292 230.584 154.038 226.934 152.707C225.915 152.34 224.396 152.387 221.254 154.5C212.867 160.132 212.16 167.528 207.518 172.538C204.188 176.141 197.632 179.792 183.292 178.49Z" fill="#6E89BE"/>
<path d="M227.009 215.132C225.047 212.406 227 209.462 227.056 203.991C227.122 197.792 224.669 196.953 221.509 186.934C219.405 180.274 217.386 173.877 218.566 166.104C219.132 162.377 220.085 156.066 224.981 152.66C227.509 150.906 231.132 150.764 238.283 150.566C247.132 150.321 251.547 150.198 254.971 151.66C255.471 151.877 265.896 156.509 267.292 165.311C268.717 174.274 258.99 176.274 258.651 188.396C258.5 193.84 260.207 202.057 261.32 207.387C262.386 212.5 262.943 213.792 262.047 215.443C259.886 219.415 252.273 218.943 237.047 218C231.066 217.641 228.471 217.17 227.009 215.132Z" fill="#6E89BE"/>
<path opacity="0.3" d="M247.839 187.33C248.66 189.623 251.094 191.189 253.141 196.764C253.585 197.972 256.735 206.538 253.726 208.943C251.99 210.34 250.151 208.104 245.669 208.16C237.905 208.245 234.745 215.028 229.556 213.66C228.66 213.425 227.452 212.858 226.169 211.443C226.047 212.821 226.179 214 227 215.132C228.462 217.17 231.056 217.641 237.028 218.009C252.254 218.953 259.868 219.424 262.028 215.453C262.924 213.802 262.368 212.519 261.302 207.396C260.188 202.066 258.481 193.849 258.632 188.406C258.981 176.274 268.698 174.283 267.273 165.321C266.896 162.925 265.83 160.849 264.5 159.075C252.462 165.113 245.245 180.123 247.839 187.33Z" fill="url(#paint2_linear)"/>
<path d="M272.33 215.028C272.33 215.028 274.754 215.84 275.009 219.858C274.613 219.821 273.688 219.84 273.688 219.84C273.688 219.84 273.858 216.915 272.132 216.33C272.273 216 272.33 215.028 272.33 215.028Z" fill="#FEC7A0"/>
<path d="M263.33 214.651C263.396 215.387 263.453 216.132 263.519 216.868C264.736 216.557 266.066 216.189 267.5 216.141C269.349 216.075 271.038 216.302 272.538 216.679C272.604 216.585 272.745 216.368 272.811 216.009C272.915 215.424 272.736 214.943 272.707 214.858C271.943 214.575 271.113 214.34 270.226 214.17C267.66 213.679 265.34 214.075 263.33 214.651Z" fill="#FEC7A0"/>
<path d="M263.216 215.292C263.216 215.028 263.245 214.689 263.33 214.651C263.415 214.613 263.528 214.858 263.584 214.99C263.603 215.047 263.65 215.179 263.679 215.613C263.716 216.17 263.669 216.443 263.632 216.613C263.613 216.717 263.575 216.868 263.518 216.868C263.471 216.868 263.433 216.773 263.377 216.585C263.301 216.33 263.207 215.906 263.216 215.292Z" fill="url(#paint3_linear)"/>
<path d="M260.953 219.934C261.471 220.038 262.717 220.33 262.717 220.33C262.717 220.33 261.905 217.726 263.434 216.547C263.471 216.349 263.509 216.038 263.462 215.67C263.424 215.377 263.349 215.151 263.283 214.99C262.641 215.34 261.217 216.547 260.953 219.934Z" fill="#FEC7A0"/>
<path d="M250.198 220.509C250.198 220.509 250.264 219.132 252.452 219.151C252.792 219.406 252.811 220.528 252.811 220.528L250.198 220.509Z" fill="url(#paint4_linear)"/>
<path d="M248.254 247.679L254.235 251.207L257.83 237.877L251.896 220.028L250.198 220.509L247.613 246.273C247.556 246.858 247.811 247.415 248.254 247.679Z" fill="#FEC7A0"/>
<path opacity="0.3" d="M257.83 237.877L251.896 220.028L250.198 220.509C250.613 222.094 250.82 224.67 250.905 226.104C251.302 232.198 252.632 233.887 251.99 238.141C251.452 241.679 250.283 242.17 250.386 244.547C250.5 247.141 252 249.283 253.792 250.953L254.235 251.207L257.83 237.877Z" fill="url(#paint5_linear)"/>
<path d="M251.896 220.028L283.726 220.368L288.566 247.773L254.236 251.207L251.896 220.028Z" fill="#FEC7A0"/>
<g opacity="0.2">
<path opacity="0.2" d="M283.726 220.368L273.217 220.255C273.018 220.821 272.726 221.604 272.283 222.49C267.509 232.198 256.405 233.453 256.603 235.075C256.905 237.491 281.292 233.99 281.896 237.236C282.188 238.802 277.141 242.415 271.82 243.84C265.367 245.557 260.575 243.547 257.367 247.302C256.273 248.575 255.792 250.057 255.556 251.066L288.556 247.792L283.726 220.368Z" fill="#FEC7A0"/>
</g>
<path d="M252.452 219.16C252.084 219.16 251.566 219.104 250.999 219.434C250.877 219.5 250.773 219.575 250.679 219.66L250.933 219.575C251.349 219.453 251.924 219.623 252.141 220.047C252.405 220.566 252.499 221.755 252.556 222.349C252.716 224.028 253.726 234.472 253.726 234.472C253.801 235.349 254.462 236.019 255.245 235.99L284.726 234.311C284.943 234.302 285.16 234.236 285.339 234.094C285.717 233.792 285.886 233.283 285.792 232.792L284.339 220.726C284.217 220.028 283.688 219.528 283.075 219.519L252.452 219.16Z" fill="url(#paint6_linear)"/>
<path d="M252.783 219.16C252.415 219.16 251.971 219.104 251.49 219.226C251.358 219.264 251.15 219.321 251.056 219.406C251.056 219.406 252.094 219.17 252.481 220.038C252.717 220.566 252.839 221.745 252.896 222.34C253.056 224.019 254.066 234.462 254.066 234.462C254.141 235.34 254.801 236 255.584 235.981L285.377 235.198C285.594 235.189 285.811 235.123 285.99 234.981C286.368 234.679 286.528 234.17 286.443 233.679L284.669 220.717C284.547 220.019 284.018 219.519 283.405 219.509L252.783 219.16Z" fill="#FEC7A0"/>
<path opacity="0.1" d="M286.434 233.67L284.66 220.707C284.537 220.009 284.009 219.509 283.396 219.5L252.773 219.151C252.405 219.151 251.962 219.094 251.481 219.217C251.349 219.255 251.141 219.311 251.047 219.396C251.047 219.396 252.085 219.16 252.471 220.028C252.509 220.113 252.547 220.217 252.575 220.321C255.566 220.472 258.537 220.415 261.49 220.641C267.283 221.066 273.075 221.123 278.424 223.509C280.122 224.264 281.283 226.953 280.83 228.189C280.5 229.075 279.368 229.009 278.971 230.179C278.556 231.415 279.556 232.255 279.132 233.113C278.688 234.019 277.358 233.594 275.188 234.245C273.99 234.604 273.066 235.141 272.49 235.519L285.377 235.179C285.594 235.17 285.811 235.104 285.99 234.962C286.349 234.679 286.519 234.16 286.434 233.67Z" fill="url(#paint7_linear)"/>
<path d="M272.424 237.689L268.698 238.632L268.302 238.67C267.906 238.708 267.556 238.359 267.538 237.897L267.377 233.538C267.358 233.076 267.679 232.689 268.075 232.689L268.472 232.68L272.226 233.161C272.585 233.151 272.887 232.963 272.896 233.387L273.047 237.453C273.066 237.878 272.773 237.661 272.424 237.689Z" fill="url(#paint8_linear)"/>
<path d="M272.707 238.292L268.575 238.67C268.179 238.707 267.83 238.358 267.82 237.896L267.66 233.538C267.641 233.075 267.962 232.698 268.358 232.689L272.5 232.623C272.858 232.613 273.16 232.962 273.179 233.396L273.33 237.462C273.339 237.877 273.056 238.255 272.707 238.292Z" fill="black"/>
<path d="M267.707 209.085C267.707 209.085 267.358 211.387 267.009 211.604C266.66 211.821 265.575 213.038 265.792 213.821C266.009 214.604 265.188 216.387 266.726 216.821C268.264 217.255 270.037 217.717 270.216 216.33C270.396 214.943 269.962 213.387 269.999 212.217C270.047 211.047 270.65 209.868 270.65 209.868L267.707 209.085Z" fill="url(#paint9_linear)"/>
<path d="M253.141 150.981C251.085 161.028 252.858 167.538 255.009 171.708C259.358 180.16 266.839 182.151 268.085 189.641C268.981 195.047 269.377 205.708 266.736 209.17C269.113 210.123 269.358 210.066 271.16 210.066C273.566 208.689 278.688 199.519 280.858 187.821C283.471 173.632 272.5 156.868 253.141 150.981Z" fill="#6E89BE"/>
<path d="M246.726 150.868C245.707 150.453 240.754 149.443 239.651 147.292C238.434 144.915 238.028 141.641 238.028 141.641C238.028 141.641 234.613 142.547 235.113 144.311C235.613 146.075 234.764 150.123 232.802 151.028C231.424 151.66 229.726 151.915 229.358 152.34C229.32 152.349 229.292 152.349 229.283 152.358C229 152.538 229.877 153.896 233.415 155.858C245.603 154.019 246.887 151.934 246.943 151.217C246.981 151.075 246.924 150.953 246.726 150.868Z" fill="#FFDEB4"/>
<path d="M233.452 140.821C231.868 139.49 231.651 139.34 231.452 138.858C230.651 136.906 231.981 134.038 233.971 133.198C234.075 133.151 235.405 132.604 235.971 133.16C236.452 133.632 235.858 134.377 236.245 135.321C236.603 136.207 237.405 136.207 238.952 137.283C240.235 138.17 241.028 138.717 241.273 139.566C241.773 141.311 239.83 144.038 237.934 144.123C237.245 144.151 237.028 143.821 233.452 140.821Z" fill="#263238"/>
<path d="M237.764 144.415C237.764 144.415 236.339 146.311 233.915 145.915C231.745 145.566 231.896 140.632 233.387 139.717C233.887 139.415 234.83 139.358 235.575 139.641C236.009 139.811 236.141 140.009 236.868 140.273C237.528 140.519 237.726 140.462 237.915 140.651C238.151 140.887 238.283 141.434 237.717 142.83C238.179 142.443 238.688 142.33 239.028 142.538C239.085 142.566 239.226 142.689 239.292 142.849C239.547 143.443 238.971 144.104 237.764 144.415Z" fill="#FFDEB4"/>
<path d="M236.745 155.462C236.745 155.462 236.057 159.141 234.981 159.207C233.906 159.283 233.113 159.424 233.113 159.424L231.906 154.924C231.906 154.924 233.472 156.207 236.745 155.462Z" fill="white"/>
<path d="M235.49 158.906C235.49 158.906 237.886 185.802 246.283 190.113C246.066 190.972 246.283 197.972 246.283 197.972C246.283 197.972 238.452 195.613 238.009 195.774C237.566 195.934 228.528 180.953 233.113 159.434L235.49 158.906Z" fill="white"/>
<path d="M171.188 181.17C171.188 181.17 175.056 178.255 176.339 178.085C176.773 178.028 176.981 177.858 177.443 178.387C177.953 178.981 184.424 177.707 182.67 179.434C180.915 181.16 179.651 182.792 177.292 182.896C174.934 183.009 172.151 183.717 171.67 184.038C171.188 184.358 171.188 181.17 171.188 181.17Z" fill="#FFDEB4"/>
<path d="M106.792 161.198C105.99 161.5 93.811 166.349 91.3016 179.066C91.1035 180.094 89.1412 191.019 96.5469 198.736C104.858 207.387 120.849 207.179 127.207 199.943C128.688 198.255 129.471 196.387 129.905 194.811L128.236 190.368C126.198 187.906 123.415 187.321 121.934 186.953C118.273 186.047 115.509 187.679 113.415 185.915C112.254 184.943 112.028 183.538 111.82 182.273C111.122 178 113.537 175.368 113.707 172.726C113.839 170.755 114.528 166.434 111.953 163.623C110.32 161.84 108.066 161.358 106.792 161.198Z" fill="#FBC1A0"/>
<path d="M102.047 302.925C101.906 302.142 99.3773 301.434 98.1226 302.481C97.5 303 97.0754 304.057 97.4339 304.538C97.566 304.708 97.0283 305.019 97.5377 305.019C99.2453 305.038 102.189 303.698 102.047 302.925Z" fill="#FEC7A0"/>
<path d="M99.3958 303.207L96.792 302.839C97.9995 301.387 97.7731 296.773 97.7731 296.773L100.537 297.387C100.537 297.387 100.226 298.651 99.6882 300.528C99.509 301.17 99.4241 302.17 99.3958 303.207Z" fill="#FFDEB4"/>
<path d="M99.6225 302.887C99.6225 302.887 96.4904 302.17 96.1508 302.783C95.8112 303.406 95.547 305.066 97.5376 305.009C99.5282 304.962 99.8018 303.415 99.6225 302.887Z" fill="#FEC7A0"/>
<path d="M137.717 305.858C137.462 305.104 134.868 304.755 133.773 305.972C133.226 306.575 132.953 307.679 133.377 308.104C133.528 308.255 133.047 308.632 133.556 308.566C135.245 308.34 137.971 306.604 137.717 305.858Z" fill="#FEC7A0"/>
<path d="M135.141 306.509H132.519C133.509 304.906 132.641 300.358 132.641 300.358L135.462 300.585C135.462 300.585 135.33 301.887 135.056 303.811C134.962 304.472 135.019 305.481 135.141 306.509Z" fill="#FFDEB4"/>
<path d="M141.943 207.208C143.16 211.226 144.896 217.708 146.019 225.84C149.207 249.038 142.424 249.783 143.698 275.491C144.104 283.698 136.585 302.623 135.924 303.038C135.604 303.066 135.254 303.094 134.887 303.075C134.236 303.057 133.311 302.953 132.236 302.632C131.047 302.424 126.754 290.802 127.745 283.896C128.453 279.009 128.245 273.755 127.839 263.255C127.773 261.557 123.424 230.16 123.424 230.16C122.104 241.783 120.575 251.651 119.254 259.311C115.009 283.906 101.226 298.792 100.509 299.028C100.368 299.085 99.0752 299.557 98.0186 298.858C97.5469 298.547 97.3866 298.151 97.3866 298.151C97.0186 297.858 97.4998 273.594 101.698 255.33C107.802 228.821 105.141 222.623 107.075 210.783C108.745 200.547 141.943 207.208 141.943 207.208Z" fill="#455A64"/>
<path d="M143.575 211.217C139.905 213.094 130.471 216.462 119.217 214.792C114.075 214.028 109.962 212.321 107.075 210.792C107.424 209.726 107.707 208.717 107.915 207.764C109.453 200.821 107.575 196.698 106.622 192.868C105.085 186.651 105.056 187.123 103.792 182.179C101.698 174.028 101.358 165.707 102.792 164C106.67 159.406 113.66 159.245 117.292 159.132C121.339 159.009 130.66 157.585 135.792 162.198C135.877 162.283 134.83 162.84 135.349 163.443C135.83 164.009 137.481 165.981 138.971 168.641C140.056 170.575 141.028 172.821 142.019 176.17C143.377 180.802 143.981 184.896 144.254 187.5C144.33 188.226 144.377 188.83 144.415 189.311C145.349 201.651 144.415 207.349 143.575 211.217Z" fill="#FEC7A0"/>
<path d="M135.32 306.16C135.32 306.16 132.122 305.887 131.867 306.547C131.622 307.207 131.594 308.896 133.547 308.556C135.509 308.226 135.566 306.66 135.32 306.16Z" fill="#FEC7A0"/>
<path d="M127.66 154.547C128.84 152.547 128.311 150.264 128.198 149.774C127.698 147.707 127.519 147.396 127.132 146.962L126.594 146.387C126.594 146.387 126.557 146.358 126.528 146.34C126.151 146.085 124.745 145.66 124.443 145.641C123.472 145.594 121.5 149.075 120.368 154.434C120.274 154.623 120.189 154.821 120.094 155.019C119.538 156.236 119.057 157.434 118.641 158.594C112.085 159.151 111.17 159.915 111.141 160.358C111.075 161.292 114.821 162.377 117.623 162.783C123.755 163.679 130.047 162.066 130.019 160.924C130.009 160.424 128.792 159.783 123.594 159.094C123.717 158.236 123.84 157.377 123.962 156.519C124.377 156.424 126.792 156.019 127.66 154.547Z" fill="#FFDEB4"/>
<path d="M128.896 145.387C128.453 147.019 127.217 148.566 126.745 148.745C126.689 148.764 126.34 148.915 125.981 149.236C125.934 149.283 125.887 149.33 125.84 149.406C125.208 150.34 126.519 151.99 126.085 152.368C125.764 152.641 124.774 151.896 124.557 152.151C124.359 152.387 125.132 153.198 124.906 153.49C124.736 153.707 124.227 153.33 123.764 153.613C123.538 153.755 123.547 153.915 123.208 154.443C123.01 154.736 122.764 155.057 122.594 155.226C121.774 156.038 120.076 155.962 119.868 155.49C119.811 155.358 119.906 155.292 119.915 154.906C119.915 154.906 119.925 154.547 119.793 154.104C119.604 153.462 118.915 152.858 118.255 152.057C117.047 150.585 116.887 149.557 116.849 149.207C116.84 149.085 116.83 148.99 116.83 148.934C116.764 147.623 117.236 145.849 118.066 144.906C119.462 143.321 121.283 144.736 123.444 143.368C125.934 141.792 125.547 138.632 126.679 138.594C127.925 138.557 129.708 142.368 128.896 145.387Z" fill="#263238"/>
<path d="M125.594 151.83C125.34 151.17 124.5 151.5 124.302 152.217C124.104 152.934 124.604 153.858 125.311 153.896C126.01 153.934 125.934 152.717 125.594 151.83Z" fill="url(#paint10_linear)"/>
<path d="M108.368 205.255C108.358 205.255 108.358 205.255 108.349 205.255C108.254 205.245 108.188 205.16 108.198 205.066C108.679 200.764 107.783 197.641 107 194.877C106.802 194.198 106.622 193.556 106.462 192.906C105.585 189.377 105.207 188.019 104.802 186.575C104.537 185.632 104.264 184.66 103.839 183.038C103.811 182.943 103.868 182.849 103.962 182.83C104.056 182.802 104.151 182.858 104.17 182.953C104.594 184.575 104.868 185.547 105.132 186.481C105.537 187.924 105.924 189.292 106.802 192.821C106.962 193.462 107.141 194.104 107.339 194.783C108.132 197.575 109.037 200.736 108.547 205.104C108.528 205.189 108.453 205.255 108.368 205.255Z" fill="url(#paint11_linear)"/>
<path d="M125.585 150.547L126.189 152.009C126.189 152.009 126.792 153.764 127.604 153.104C128.264 152.566 128.377 152.613 128.405 152.651C128.405 152.66 128.405 152.67 128.415 152.67C128.424 152.67 128.434 152.321 128.443 152.009C128.594 152.434 128.783 153.104 128.783 153.934C128.783 154.745 128.783 155.604 128.151 156.274C128.113 156.311 127.424 157.009 126.5 156.981C126.5 156.981 126.132 156.972 124.745 156.321C124.745 156.321 126.641 155.594 126.745 155.321C127.009 154.594 126.085 153.915 125.726 152.179C125.566 151.509 125.566 150.934 125.585 150.547Z" fill="#263238"/>
<path opacity="0.3" d="M143.575 211.217C139.905 213.094 130.471 216.462 119.217 214.792C114.075 214.028 109.962 212.321 107.075 210.792C107.424 209.726 107.707 208.717 107.915 207.764C115.396 213.009 118.528 207.906 123.358 206.708C128.387 205.462 134.849 208.057 130.915 196.443C126.971 184.83 133.509 185.679 133.509 185.679L144.245 187.519C144.32 188.245 144.368 188.849 144.405 189.33C145.349 201.651 144.415 207.349 143.575 211.217Z" fill="url(#paint12_linear)"/>
<path d="M171.255 180.726C172.717 181.755 173.509 183.141 173.915 184.038C172.839 186.566 170.396 191.264 165.33 194.726C157.038 200.406 144.877 200.594 136.405 194.122C126.283 186.387 124.594 171.566 128.849 165.217C129.339 164.49 130.943 162.085 133.443 161.811C135.019 161.641 137.17 162.283 140.556 166.255C147.622 174.528 145.132 179.698 149.302 182.113C155.566 185.736 164.868 176.255 171.255 180.726Z" fill="#FEC7A0"/>
<path d="M142.764 197.67C142.754 197.67 142.736 197.67 142.726 197.67C142.622 197.651 132.67 195.358 128.188 183.019C128.16 182.924 128.198 182.83 128.292 182.792C128.387 182.764 128.481 182.802 128.519 182.896C132.924 195.047 142.698 197.311 142.802 197.33C142.896 197.349 142.953 197.443 142.934 197.538C142.915 197.613 142.849 197.67 142.764 197.67Z" fill="black"/>
<path d="M180.66 178.585C180.66 178.585 179.924 177.17 178.896 177.858C177.867 178.557 176.424 179.028 177.386 179.273C178.339 179.528 180.66 178.585 180.66 178.585Z" fill="#FFDEB4"/>
<path d="M277.688 85.7546C277.688 103.019 264.188 116.594 246.943 116.066C228.99 115.519 213.896 100.009 213.896 81.4527C213.896 62.8961 228.99 49.4338 246.943 51.3017C264.188 53.0942 277.688 68.4904 277.688 85.7546Z" fill="url(#paint13_linear)"/>
<path d="M282.349 84.2641C282.349 101.528 268.849 115.104 251.603 114.575C233.65 114.028 218.556 98.5188 218.556 79.9622C218.556 61.4056 233.65 47.9433 251.603 49.8113C268.849 51.6037 282.349 66.9999 282.349 84.2641Z" fill="url(#paint14_linear)"/>
<path d="M280.99 84.1697C280.99 100.67 268.075 113.632 251.594 113.094C234.471 112.538 220.104 97.7452 220.104 80.0659C220.104 62.3867 234.481 49.5282 251.604 51.2829C268.075 52.9716 280.99 67.6697 280.99 84.1697Z" fill="url(#paint15_linear)"/>
<path d="M280.019 84.1037C280.019 100.057 267.519 112.575 251.594 112.038C235.066 111.481 221.217 97.1886 221.217 80.1414C221.217 63.0943 235.075 50.6603 251.594 52.3395C267.528 53.9527 280.019 68.1509 280.019 84.1037Z" fill="url(#paint16_linear)"/>
<path d="M251.434 57.7642C252.283 57.8491 252.972 58.6038 252.972 59.4717V62.4057C254.67 62.5944 256.368 62.8868 258.066 63.2925C259.321 63.5849 260.566 63.934 261.802 64.3396C262.547 64.5849 263.047 65.3302 262.972 66.1038L262.613 69.783C262.519 70.7642 261.547 71.3302 260.641 70.9245C259.83 70.5661 258.99 70.2547 258.132 69.9906C256.641 69.5378 255.066 69.2453 253.406 69.1038L252.972 69.0661V77.4811C257.396 78.717 260.641 80.3868 262.736 82.4717C264.821 84.5566 265.868 87.151 265.868 90.2642C265.868 93.6321 264.717 96.3302 262.406 98.3679C260.085 100.415 256.83 101.566 252.613 101.811V105.057C252.613 105.915 251.924 106.585 251.075 106.557H251.047C250.198 106.519 249.509 105.792 249.509 104.934V101.736L248.83 101.708C246.858 101.623 244.962 101.415 243.16 101.104C241.821 100.868 240.519 100.575 239.245 100.198C238.472 99.9717 237.943 99.2453 238.019 98.4528L238.443 93.717C238.538 92.6887 239.566 92.0944 240.538 92.4811C241.67 92.9245 242.821 93.3019 243.981 93.6132C245.792 94.0944 247.632 94.3962 249.49 94.5378L249.519 85.1793C245.273 84.1321 242.094 82.5755 240.009 80.5095C237.915 78.4434 236.858 75.7925 236.858 72.5661C236.858 69.2359 238 66.6604 240.273 64.8585C242.538 63.0661 245.755 62.1698 249.896 62.1698V59.1698C249.896 58.3208 250.585 57.6887 251.434 57.7642ZM249.896 69C248.585 69.0944 247.566 69.4529 246.83 70.0849C246.094 70.7076 245.726 71.5566 245.726 72.6132C245.726 73.6132 246.066 74.4528 246.745 75.1227C247.424 75.7925 248.472 76.3302 249.896 76.7264V69ZM252.623 85.9434V94.5283C254.047 94.5283 255.141 94.1887 255.906 93.5095C256.67 92.8302 257.047 91.8679 257.047 90.6227C257.047 89.4906 256.698 88.5472 255.981 87.8019C255.274 87.0378 254.151 86.4245 252.623 85.9434Z" fill="url(#paint17_linear)"/>
<path opacity="0.3" d="M246.453 88.0094C247.415 78.5283 256.132 74.5094 254.99 65.783C254.292 60.4056 250.217 55.8773 245.67 52.3396C231.877 53.783 221.217 65.2075 221.217 80.1415C221.217 97.1981 235.075 111.491 251.594 112.038C253.198 112.094 254.764 112.009 256.292 111.811C249.736 105.283 245.632 96.1603 246.453 88.0094Z" fill="url(#paint18_linear)"/>
<defs>
<linearGradient id="paint0_linear" x1="138.185" y1="72.9977" x2="230.947" y2="72.9977" gradientUnits="userSpaceOnUse">
<stop stop-color="#444B8C"/>
<stop offset="0.9964" stop-color="#26264F"/>
</linearGradient>
<linearGradient id="paint1_linear" x1="228.189" y1="247.404" x2="245.762" y2="247.404" gradientUnits="userSpaceOnUse">
<stop stop-color="#444B8C"/>
<stop offset="0.9964" stop-color="#26264F"/>
</linearGradient>
<linearGradient id="paint2_linear" x1="291.724" y1="253.08" x2="232.188" y2="167.607" gradientUnits="userSpaceOnUse">
<stop stop-color="#AA80F9"/>
<stop offset="0.9964" stop-color="#6165D7"/>
</linearGradient>
<linearGradient id="paint3_linear" x1="263.672" y1="215.885" x2="271.564" y2="220.116" gradientUnits="userSpaceOnUse">
<stop offset="0.0999605" stop-color="#311944"/>
<stop offset="0.267" stop-color="#371B47"/>
<stop offset="0.4803" stop-color="#462150"/>
<stop offset="0.7186" stop-color="#612A5F"/>
<stop offset="0.9736" stop-color="#853774"/>
<stop offset="1" stop-color="#893976"/>
</linearGradient>
<linearGradient id="paint4_linear" x1="252.453" y1="229.096" x2="247.941" y2="187.855" gradientUnits="userSpaceOnUse">
<stop offset="0.0999605" stop-color="#311944"/>
<stop offset="0.6853" stop-color="#6D2F66"/>
<stop offset="1" stop-color="#893976"/>
</linearGradient>
<linearGradient id="paint5_linear" x1="245.122" y1="223.061" x2="254.132" y2="238.169" gradientUnits="userSpaceOnUse">
<stop stop-color="#311944"/>
<stop offset="1" stop-color="#893976"/>
</linearGradient>
<linearGradient id="paint6_linear" x1="256.009" y1="227.474" x2="266.197" y2="227.079" gradientUnits="userSpaceOnUse">
<stop offset="0.0999605" stop-color="#311944"/>
<stop offset="0.6853" stop-color="#6D2F66"/>
<stop offset="1" stop-color="#893976"/>
</linearGradient>
<linearGradient id="paint7_linear" x1="273.592" y1="270.873" x2="267.592" y2="216.024" gradientUnits="userSpaceOnUse">
<stop stop-color="#311944"/>
<stop offset="1" stop-color="#893976"/>
</linearGradient>
<linearGradient id="paint8_linear" x1="282.053" y1="241.969" x2="263.96" y2="232.512" gradientUnits="userSpaceOnUse">
<stop stop-color="#FFC444"/>
<stop offset="0.9964" stop-color="#F36F56"/>
</linearGradient>
<linearGradient id="paint9_linear" x1="269.595" y1="228.218" x2="268.053" y2="210.885" gradientUnits="userSpaceOnUse">
<stop stop-color="#FFC444"/>
<stop offset="0.9964" stop-color="#F36F56"/>
</linearGradient>
<linearGradient id="paint10_linear" x1="131.473" y1="144.742" x2="106.018" y2="176.767" gradientUnits="userSpaceOnUse">
<stop stop-color="#FFC444"/>
<stop offset="0.9964" stop-color="#F36F56"/>
</linearGradient>
<linearGradient id="paint11_linear" x1="103.826" y1="194.038" x2="108.674" y2="194.038" gradientUnits="userSpaceOnUse">
<stop stop-color="#FF9085"/>
<stop offset="1" stop-color="#FB6FBB"/>
</linearGradient>
<linearGradient id="paint12_linear" x1="107.073" y1="200.451" x2="144.804" y2="200.451" gradientUnits="userSpaceOnUse">
<stop stop-color="#FF9085"/>
<stop offset="1" stop-color="#FB6FBB"/>
</linearGradient>
<linearGradient id="paint13_linear" x1="234.853" y1="87.1009" x2="197.648" y2="99.0412" gradientUnits="userSpaceOnUse">
<stop stop-color="#FCB148"/>
<stop offset="0.0520724" stop-color="#FDBA46"/>
<stop offset="0.1424" stop-color="#FFC244"/>
<stop offset="0.3183" stop-color="#FFC444"/>
<stop offset="0.4849" stop-color="#FDB946"/>
<stop offset="0.7754" stop-color="#F99C4D"/>
<stop offset="0.8658" stop-color="#F8924F"/>
<stop offset="1" stop-color="#F8924F"/>
</linearGradient>
<linearGradient id="paint14_linear" x1="264.95" y1="50.067" x2="231.735" y2="123.344" gradientUnits="userSpaceOnUse">
<stop stop-color="#FFDB44"/>
<stop offset="1" stop-color="#FEEF06"/>
</linearGradient>
<linearGradient id="paint15_linear" x1="258.84" y1="127.44" x2="252.432" y2="92.4287" gradientUnits="userSpaceOnUse">
<stop stop-color="#FCB148"/>
<stop offset="0.0520724" stop-color="#FDBA46"/>
<stop offset="0.1424" stop-color="#FFC244"/>
<stop offset="0.3183" stop-color="#FFC444"/>
<stop offset="0.4849" stop-color="#FDB946"/>
<stop offset="0.7754" stop-color="#F99C4D"/>
<stop offset="0.8658" stop-color="#F8924F"/>
<stop offset="1" stop-color="#F8924F"/>
</linearGradient>
<linearGradient id="paint16_linear" x1="245.253" y1="70.7705" x2="271.664" y2="126.837" gradientUnits="userSpaceOnUse">
<stop stop-color="#FCB148"/>
<stop offset="0.0520724" stop-color="#FDBA46"/>
<stop offset="0.1424" stop-color="#FFC244"/>
<stop offset="0.3183" stop-color="#FFC444"/>
<stop offset="0.4849" stop-color="#FDB946"/>
<stop offset="0.7754" stop-color="#F99C4D"/>
<stop offset="0.8658" stop-color="#F8924F"/>
<stop offset="1" stop-color="#F8924F"/>
</linearGradient>
<linearGradient id="paint17_linear" x1="244.2" y1="58.7058" x2="257.481" y2="108.479" gradientUnits="userSpaceOnUse">
<stop stop-color="#FFDB44"/>
<stop offset="1" stop-color="#FEEF06"/>
</linearGradient>
<linearGradient id="paint18_linear" x1="237.482" y1="74.3989" x2="263.841" y2="130.352" gradientUnits="userSpaceOnUse">
<stop stop-color="#FCB148"/>
<stop offset="0.0520724" stop-color="#FDBA46"/>
<stop offset="0.1424" stop-color="#FFC244"/>
<stop offset="0.3183" stop-color="#FFC444"/>
<stop offset="0.4849" stop-color="#FDB946"/>
<stop offset="0.7754" stop-color="#F99C4D"/>
<stop offset="0.8658" stop-color="#F8924F"/>
<stop offset="1" stop-color="#F8924F"/>
</linearGradient>
</defs>
</svg>
