<svg width="12" height="364" viewBox="0 0 12 364" fill="none" xmlns="http://www.w3.org/2000/svg">
<path d="M6 0.669873L1.66987 5L6 9.33013L10.3301 5L6 0.669873ZM5.46967 363.53C5.76256 363.823 6.23744 363.823 6.53033 363.53L11.3033 358.757C11.5962 358.464 11.5962 357.99 11.3033 357.697C11.0104 357.404 10.5355 357.404 10.2426 357.697L6 361.939L1.75736 357.697C1.46447 357.404 0.989593 357.404 0.696699 357.697C0.403806 357.99 0.403806 358.464 0.696699 358.757L5.46967 363.53ZM5.25 6.49167C5.25 6.90588 5.58579 7.24167 6 7.24167C6.41421 7.24167 6.75 6.90588 6.75 6.49167H5.25ZM6.75 12.4583C6.75 12.0441 6.41421 11.7083 6 11.7083C5.58579 11.7083 5.25 12.0441 5.25 12.4583H6.75ZM5.25 15.4417C5.25 15.8559 5.58579 16.1917 6 16.1917C6.41421 16.1917 6.75 15.8559 6.75 15.4417H5.25ZM6.75 21.4083C6.75 20.9941 6.41421 20.6583 6 20.6583C5.58579 20.6583 5.25 20.9941 5.25 21.4083H6.75ZM5.25 24.3917C5.25 24.8059 5.58579 25.1417 6 25.1417C6.41421 25.1417 6.75 24.8059 6.75 24.3917H5.25ZM6.75 30.3583C6.75 29.9441 6.41421 29.6083 6 29.6083C5.58579 29.6083 5.25 29.9441 5.25 30.3583H6.75ZM5.25 33.3417C5.25 33.7559 5.58579 34.0917 6 34.0917C6.41421 34.0917 6.75 33.7559 6.75 33.3417H5.25ZM6.75 39.3083C6.75 38.8941 6.41421 38.5583 6 38.5583C5.58579 38.5583 5.25 38.8941 5.25 39.3083H6.75ZM5.25 42.2917C5.25 42.7059 5.58579 43.0417 6 43.0417C6.41421 43.0417 6.75 42.7059 6.75 42.2917H5.25ZM6.75 48.2583C6.75 47.8441 6.41421 47.5083 6 47.5083C5.58579 47.5083 5.25 47.8441 5.25 48.2583H6.75ZM5.25 51.2417C5.25 51.6559 5.58579 51.9917 6 51.9917C6.41421 51.9917 6.75 51.6559 6.75 51.2417H5.25ZM6.75 57.2083C6.75 56.7941 6.41421 56.4583 6 56.4583C5.58579 56.4583 5.25 56.7941 5.25 57.2083H6.75ZM5.25 60.1917C5.25 60.6059 5.58579 60.9417 6 60.9417C6.41421 60.9417 6.75 60.6059 6.75 60.1917H5.25ZM6.75 66.1583C6.75 65.7441 6.41421 65.4083 6 65.4083C5.58579 65.4083 5.25 65.7441 5.25 66.1583H6.75ZM5.25 69.1417C5.25 69.5559 5.58579 69.8917 6 69.8917C6.41421 69.8917 6.75 69.5559 6.75 69.1417H5.25ZM6.75 75.1083C6.75 74.6941 6.41421 74.3583 6 74.3583C5.58579 74.3583 5.25 74.6941 5.25 75.1083H6.75ZM5.25 78.0917C5.25 78.5059 5.58579 78.8417 6 78.8417C6.41421 78.8417 6.75 78.5059 6.75 78.0917H5.25ZM6.75 84.0583C6.75 83.6441 6.41421 83.3083 6 83.3083C5.58579 83.3083 5.25 83.6441 5.25 84.0583H6.75ZM5.25 87.0417C5.25 87.4559 5.58579 87.7917 6 87.7917C6.41421 87.7917 6.75 87.4559 6.75 87.0417H5.25ZM6.75 93.0083C6.75 92.5941 6.41421 92.2583 6 92.2583C5.58579 92.2583 5.25 92.5941 5.25 93.0083H6.75ZM5.25 95.9917C5.25 96.4059 5.58579 96.7417 6 96.7417C6.41421 96.7417 6.75 96.4059 6.75 95.9917H5.25ZM6.75 101.958C6.75 101.544 6.41421 101.208 6 101.208C5.58579 101.208 5.25 101.544 5.25 101.958H6.75ZM5.25 104.942C5.25 105.356 5.58579 105.692 6 105.692C6.41421 105.692 6.75 105.356 6.75 104.942H5.25ZM6.75 110.908C6.75 110.494 6.41421 110.158 6 110.158C5.58579 110.158 5.25 110.494 5.25 110.908H6.75ZM5.25 113.892C5.25 114.306 5.58579 114.642 6 114.642C6.41421 114.642 6.75 114.306 6.75 113.892H5.25ZM6.75 119.858C6.75 119.444 6.41421 119.108 6 119.108C5.58579 119.108 5.25 119.444 5.25 119.858H6.75ZM5.25 122.842C5.25 123.256 5.58579 123.592 6 123.592C6.41421 123.592 6.75 123.256 6.75 122.842H5.25ZM6.75 128.808C6.75 128.394 6.41421 128.058 6 128.058C5.58579 128.058 5.25 128.394 5.25 128.808H6.75ZM5.25 131.792C5.25 132.206 5.58579 132.542 6 132.542C6.41421 132.542 6.75 132.206 6.75 131.792H5.25ZM6.75 137.758C6.75 137.344 6.41421 137.008 6 137.008C5.58579 137.008 5.25 137.344 5.25 137.758H6.75ZM5.25 140.742C5.25 141.156 5.58579 141.492 6 141.492C6.41421 141.492 6.75 141.156 6.75 140.742H5.25ZM6.75 146.708C6.75 146.294 6.41421 145.958 6 145.958C5.58579 145.958 5.25 146.294 5.25 146.708H6.75ZM5.25 149.692C5.25 150.106 5.58579 150.442 6 150.442C6.41421 150.442 6.75 150.106 6.75 149.692H5.25ZM6.75 155.658C6.75 155.244 6.41421 154.908 6 154.908C5.58579 154.908 5.25 155.244 5.25 155.658H6.75ZM5.25 158.642C5.25 159.056 5.58579 159.392 6 159.392C6.41421 159.392 6.75 159.056 6.75 158.642H5.25ZM6.75 164.608C6.75 164.194 6.41421 163.858 6 163.858C5.58579 163.858 5.25 164.194 5.25 164.608H6.75ZM5.25 167.592C5.25 168.006 5.58579 168.342 6 168.342C6.41421 168.342 6.75 168.006 6.75 167.592H5.25ZM6.75 173.558C6.75 173.144 6.41421 172.808 6 172.808C5.58579 172.808 5.25 173.144 5.25 173.558H6.75ZM5.25 176.542C5.25 176.956 5.58579 177.292 6 177.292C6.41421 177.292 6.75 176.956 6.75 176.542H5.25ZM6.75 182.508C6.75 182.094 6.41421 181.758 6 181.758C5.58579 181.758 5.25 182.094 5.25 182.508H6.75ZM5.25 185.492C5.25 185.906 5.58579 186.242 6 186.242C6.41421 186.242 6.75 185.906 6.75 185.492H5.25ZM6.75 191.458C6.75 191.044 6.41421 190.708 6 190.708C5.58579 190.708 5.25 191.044 5.25 191.458H6.75ZM5.25 194.442C5.25 194.856 5.58579 195.192 6 195.192C6.41421 195.192 6.75 194.856 6.75 194.442H5.25ZM6.75 200.408C6.75 199.994 6.41421 199.658 6 199.658C5.58579 199.658 5.25 199.994 5.25 200.408H6.75ZM5.25 203.392C5.25 203.806 5.58579 204.142 6 204.142C6.41421 204.142 6.75 203.806 6.75 203.392H5.25ZM6.75 209.358C6.75 208.944 6.41421 208.608 6 208.608C5.58579 208.608 5.25 208.944 5.25 209.358H6.75ZM5.25 212.342C5.25 212.756 5.58579 213.092 6 213.092C6.41421 213.092 6.75 212.756 6.75 212.342H5.25ZM6.75 218.308C6.75 217.894 6.41421 217.558 6 217.558C5.58579 217.558 5.25 217.894 5.25 218.308H6.75ZM5.25 221.292C5.25 221.706 5.58579 222.042 6 222.042C6.41421 222.042 6.75 221.706 6.75 221.292H5.25ZM6.75 227.258C6.75 226.844 6.41421 226.508 6 226.508C5.58579 226.508 5.25 226.844 5.25 227.258H6.75ZM5.25 230.242C5.25 230.656 5.58579 230.992 6 230.992C6.41421 230.992 6.75 230.656 6.75 230.242H5.25ZM6.75 236.208C6.75 235.794 6.41421 235.458 6 235.458C5.58579 235.458 5.25 235.794 5.25 236.208H6.75ZM5.25 239.192C5.25 239.606 5.58579 239.942 6 239.942C6.41421 239.942 6.75 239.606 6.75 239.192H5.25ZM6.75 245.158C6.75 244.744 6.41421 244.408 6 244.408C5.58579 244.408 5.25 244.744 5.25 245.158H6.75ZM5.25 248.142C5.25 248.556 5.58579 248.892 6 248.892C6.41421 248.892 6.75 248.556 6.75 248.142H5.25ZM6.75 254.108C6.75 253.694 6.41421 253.358 6 253.358C5.58579 253.358 5.25 253.694 5.25 254.108H6.75ZM5.25 257.092C5.25 257.506 5.58579 257.842 6 257.842C6.41421 257.842 6.75 257.506 6.75 257.092H5.25ZM6.75 263.058C6.75 262.644 6.41421 262.308 6 262.308C5.58579 262.308 5.25 262.644 5.25 263.058H6.75ZM5.25 266.042C5.25 266.456 5.58579 266.792 6 266.792C6.41421 266.792 6.75 266.456 6.75 266.042H5.25ZM6.75 272.008C6.75 271.594 6.41421 271.258 6 271.258C5.58579 271.258 5.25 271.594 5.25 272.008H6.75ZM5.25 274.992C5.25 275.406 5.58579 275.742 6 275.742C6.41421 275.742 6.75 275.406 6.75 274.992H5.25ZM6.75 280.958C6.75 280.544 6.41421 280.208 6 280.208C5.58579 280.208 5.25 280.544 5.25 280.958H6.75ZM5.25 283.942C5.25 284.356 5.58579 284.692 6 284.692C6.41421 284.692 6.75 284.356 6.75 283.942H5.25ZM6.75 289.908C6.75 289.494 6.41421 289.158 6 289.158C5.58579 289.158 5.25 289.494 5.25 289.908H6.75ZM5.25 292.892C5.25 293.306 5.58579 293.642 6 293.642C6.41421 293.642 6.75 293.306 6.75 292.892H5.25ZM6.75 298.858C6.75 298.444 6.41421 298.108 6 298.108C5.58579 298.108 5.25 298.444 5.25 298.858H6.75ZM5.25 301.842C5.25 302.256 5.58579 302.592 6 302.592C6.41421 302.592 6.75 302.256 6.75 301.842H5.25ZM6.75 307.808C6.75 307.394 6.41421 307.058 6 307.058C5.58579 307.058 5.25 307.394 5.25 307.808H6.75ZM5.25 310.792C5.25 311.206 5.58579 311.542 6 311.542C6.41421 311.542 6.75 311.206 6.75 310.792H5.25ZM6.75 316.758C6.75 316.344 6.41421 316.008 6 316.008C5.58579 316.008 5.25 316.344 5.25 316.758H6.75ZM5.25 319.742C5.25 320.156 5.58579 320.492 6 320.492C6.41421 320.492 6.75 320.156 6.75 319.742H5.25ZM6.75 325.708C6.75 325.294 6.41421 324.958 6 324.958C5.58579 324.958 5.25 325.294 5.25 325.708H6.75ZM5.25 328.692C5.25 329.106 5.58579 329.442 6 329.442C6.41421 329.442 6.75 329.106 6.75 328.692H5.25ZM6.75 334.658C6.75 334.244 6.41421 333.908 6 333.908C5.58579 333.908 5.25 334.244 5.25 334.658H6.75ZM5.25 337.642C5.25 338.056 5.58579 338.392 6 338.392C6.41421 338.392 6.75 338.056 6.75 337.642H5.25ZM6.75 343.608C6.75 343.194 6.41421 342.858 6 342.858C5.58579 342.858 5.25 343.194 5.25 343.608H6.75ZM5.25 346.592C5.25 347.006 5.58579 347.342 6 347.342C6.41421 347.342 6.75 347.006 6.75 346.592H5.25ZM6.75 352.558C6.75 352.144 6.41421 351.808 6 351.808C5.58579 351.808 5.25 352.144 5.25 352.558H6.75ZM5.25 355.542C5.25 355.956 5.58579 356.292 6 356.292C6.41421 356.292 6.75 355.956 6.75 355.542H5.25ZM6.75 361.508C6.75 361.094 6.41421 360.758 6 360.758C5.58579 360.758 5.25 361.094 5.25 361.508H6.75ZM5.25 5V6.49167H6.75V5H5.25ZM5.25 12.4583L5.25 15.4417H6.75L6.75 12.4583H5.25ZM5.25 21.4083V24.3917H6.75V21.4083H5.25ZM5.25 30.3583V33.3417H6.75V30.3583H5.25ZM5.25 39.3083L5.25 42.2917H6.75L6.75 39.3083H5.25ZM5.25 48.2583V51.2417H6.75V48.2583H5.25ZM5.25 57.2083V60.1917H6.75V57.2083H5.25ZM5.25 66.1583V69.1417H6.75V66.1583H5.25ZM5.25 75.1083V78.0917H6.75V75.1083H5.25ZM5.25 84.0583V87.0417H6.75V84.0583H5.25ZM5.25 93.0083V95.9917H6.75V93.0083H5.25ZM5.25 101.958V104.942H6.75V101.958H5.25ZM5.25 110.908L5.25 113.892H6.75L6.75 110.908H5.25ZM5.25 119.858V122.842H6.75V119.858H5.25ZM5.25 128.808L5.25 131.792H6.75L6.75 128.808H5.25ZM5.25 137.758V140.742H6.75V137.758H5.25ZM5.25 146.708V149.692H6.75V146.708H5.25ZM5.25 155.658L5.25 158.642H6.75L6.75 155.658H5.25ZM5.25 164.608V167.592H6.75V164.608H5.25ZM5.25 173.558V176.542H6.75V173.558H5.25ZM5.25 182.508V185.492H6.75V182.508H5.25ZM5.25 191.458V194.442H6.75V191.458H5.25ZM5.25 200.408V203.392H6.75V200.408H5.25ZM5.25 209.358V212.342H6.75V209.358H5.25ZM5.25 218.308V221.292H6.75V218.308H5.25ZM5.25 227.258L5.25 230.242H6.75L6.75 227.258H5.25ZM5.25 236.208V239.192H6.75V236.208H5.25ZM5.25 245.158L5.25 248.142H6.75L6.75 245.158H5.25ZM5.25 254.108V257.092H6.75V254.108H5.25ZM5.25 263.058V266.042H6.75V263.058H5.25ZM5.25 272.008L5.25 274.992H6.75L6.75 272.008H5.25ZM5.25 280.958V283.942H6.75V280.958H5.25ZM5.25 289.908V292.892H6.75V289.908H5.25ZM5.25 298.858V301.842H6.75V298.858H5.25ZM5.25 307.808V310.792H6.75V307.808H5.25ZM5.25 316.758V319.742H6.75V316.758H5.25ZM5.25 325.708V328.692H6.75V325.708H5.25ZM5.25 334.658V337.642H6.75V334.658H5.25ZM5.25 343.608L5.25 346.592H6.75L6.75 343.608H5.25ZM5.25 352.558V355.542H6.75V352.558H5.25ZM5.25 361.508V363H6.75V361.508H5.25Z" fill="#FFA362"/>
</svg>
