<svg width="350" height="307" viewBox="0 0 350 307" fill="none" xmlns="http://www.w3.org/2000/svg">
<path d="M178.094 281.281C240.356 281.281 290.829 275.926 290.829 269.319C290.829 262.712 240.356 257.356 178.094 257.356C115.832 257.356 65.3589 262.712 65.3589 269.319C65.3589 275.926 115.832 281.281 178.094 281.281Z" fill="#EBEBEB"/>
<path d="M234.822 227.226H192.5V229.681H234.822V227.226Z" fill="#455A64"/>
<path d="M195.678 141.813L195.475 153.444L194.187 227.226L194.145 229.681L193.578 262.046H191.422L190.855 229.681L190.813 227.226L189.525 153.444L189.322 141.813H195.678Z" fill="#455A64"/>
<path d="M189.322 141.813H195.678L195.475 153.444H189.525L189.322 141.813Z" fill="#263238"/>
<path d="M237.993 141.813L237.79 153.444L235.893 262.046H233.737L233.17 229.681L233.128 227.226L231.84 153.444L231.637 141.813H237.993Z" fill="#455A64"/>
<path d="M237.993 141.813L237.79 153.444H231.84L231.637 141.813H237.993Z" fill="#263238"/>
<path d="M215.082 227.226H172.76V229.681H215.082V227.226Z" fill="#37474F"/>
<path d="M175.938 141.813L175.735 153.444L174.447 227.226L174.405 229.681L173.838 262.046H171.682L169.785 153.444L169.582 141.813H175.938Z" fill="#37474F"/>
<path d="M169.582 141.813H175.938L175.735 153.444H169.785L169.582 141.813Z" fill="#263238"/>
<path d="M218.26 141.813L218.057 153.444L216.769 227.226L216.727 229.681L216.16 262.046H214.004L213.437 229.681L213.395 227.226L212.107 153.444L211.904 141.813H218.26Z" fill="#37474F"/>
<path d="M211.904 141.813H218.26L218.057 153.444H212.107L211.904 141.813Z" fill="#263238"/>
<path d="M241.297 136.4H167.055V142.771H241.297V136.4Z" fill="#FEC7A0"/>
<path opacity="0.1" d="M226.821 136.4H167.055V142.771H226.821V136.4Z" fill="#263238"/>
<path d="M246.022 80.3126L241.283 136.399H197.001L196.602 131.017L192.773 79.8339L240.086 80.2574L246.022 80.3126Z" fill="#FEC7A0"/>
<path opacity="0.1" d="M240.086 80.2574L236.831 136.399H197.001L196.602 131.017L192.773 79.8339L240.086 80.2574Z" fill="#263238"/>
<path d="M241.738 131.017L241.283 136.4H197.001L196.602 131.017H241.738Z" fill="#263238"/>
<path d="M188.104 49.8386C179.41 57.965 178.605 77.9619 190.547 90.9187C200.655 101.887 222.852 103.145 231.98 95.9885C241.668 88.3961 240.079 76.2003 231.917 71.4374C224.035 66.8403 214.991 67.8346 210.119 62.8139C207.781 60.4079 206.682 55.1601 203.413 51.4774C199.766 47.3774 192.556 45.6711 188.104 49.8386Z" fill="#263238"/>
<path d="M198.548 80.5705C196.287 93.7115 194.299 103.894 190.463 106.748C187.369 109.031 182.84 110.879 178.122 112.333C173.07 113.83 167.912 115.033 162.68 115.936C161.07 116.225 159.726 116.44 158.774 116.599C156.415 116.98 150.661 103.624 152.117 101.77C152.453 101.347 153.979 100.886 156.142 100.414C163.429 98.8303 177.968 97.1241 178.738 96.3077C179.508 95.4914 183.491 89.5194 188.888 81.6937C192.612 76.2863 196.014 74.4573 197.673 75.6787C198.604 76.3723 198.982 78.0356 198.548 80.5705Z" fill="#EB9481"/>
<path d="M162.68 115.936C160.339 117.164 157.907 118.253 155.4 119.195C153.384 119.87 147.525 121.65 146.461 119.809C145.761 118.532 149.037 117.121 151.361 116.077C152.579 115.525 154.028 114.236 153.587 113.573C152.824 112.346 149.695 113.855 147.665 115.095C143.738 117.489 138.565 121.669 135.905 120.006C134.89 119.392 135.905 118.035 137.375 116.685C134.89 118.318 132.195 119.699 131.075 119.042C130.779 118.873 130.567 118.612 130.481 118.311C130.395 118.011 130.443 117.693 130.613 117.422C130.295 117.581 129.929 117.653 129.564 117.629C129.199 117.604 128.85 117.485 128.562 117.286C127.638 116.562 127.946 115.378 128.765 114.126C128.604 114.123 128.447 114.086 128.305 114.019C128.164 113.951 128.043 113.855 127.953 113.739C125.916 111.449 134.316 103.869 137.389 102.998C146.412 100.42 156.289 100.42 156.289 100.42C160.041 102.691 162.687 115.93 162.68 115.936Z" fill="#EB9481"/>
<path d="M148.449 109.381C146.28 109.822 144.25 110.679 142.506 111.891C140.476 113.34 138.936 115.224 137.088 116.802C137.083 116.806 137.08 116.811 137.077 116.817C137.075 116.823 137.074 116.829 137.074 116.835C137.075 116.841 137.076 116.846 137.079 116.852C137.082 116.857 137.086 116.862 137.091 116.866C137.096 116.87 137.102 116.873 137.109 116.875C137.115 116.877 137.122 116.878 137.129 116.878C137.136 116.878 137.142 116.876 137.148 116.874C137.155 116.871 137.16 116.868 137.165 116.863C138.026 116.041 138.992 115.292 139.895 114.5C140.798 113.708 141.631 112.923 142.569 112.205C144.264 110.884 146.279 109.918 148.463 109.381C148.463 109.381 148.47 109.375 148.449 109.381Z" fill="#263238"/>
<path d="M146.419 106.079C144.007 106.765 141.68 107.663 139.475 108.761C137.123 110.032 135.366 111.959 133.637 113.819C132.592 114.932 131.581 116.065 130.606 117.219C130.564 117.268 130.606 117.336 130.683 117.286C132.433 115.372 134.251 113.504 136.136 111.683C137.87 109.984 139.971 108.603 142.317 107.62C143.654 107.055 145.047 106.588 146.426 106.116C146.454 106.11 146.44 106.073 146.419 106.079Z" fill="#263238"/>
<path d="M143.556 103.274C141.246 103.888 139.23 104.373 137.256 105.625C135.047 107.152 133.065 108.915 131.355 110.873C130.417 111.91 129.514 112.978 128.632 114.052C128.597 114.095 128.681 114.15 128.723 114.107C130.75 111.734 132.95 109.479 135.31 107.356C136.414 106.33 137.694 105.462 139.104 104.784C140.539 104.169 142.03 103.662 143.563 103.268C143.563 103.268 143.563 103.268 143.556 103.274Z" fill="#263238"/>
<path d="M198.548 80.5704C196.287 93.7113 194.299 103.894 190.463 106.748C187.369 109.031 182.84 110.879 178.122 112.333L197.673 75.6786C198.604 76.3722 198.982 78.0355 198.548 80.5704Z" fill="#263238"/>
<path d="M199.5 78.2995C199.5 78.5021 199.5 78.7169 199.5 78.9133C199.5 79.1097 199.5 79.257 199.458 79.4411C199.139 82.7216 198.524 85.9747 197.617 89.1695H197.001H196.399L191.499 89.3107H190.799L185.941 89.4518H185.318L183.533 89.5009L182.133 89.5439C182.133 89.5439 187.033 81.307 192.633 76.3354C193.156 75.8591 193.749 75.4463 194.397 75.1079C196.931 73.9233 199.451 74.623 199.5 78.2995Z" fill="#6E89BE"/>
<path d="M196.714 75.3974C196.915 75.3974 197.078 75.2543 197.078 75.0777C197.078 74.9011 196.915 74.7579 196.714 74.7579C196.513 74.7579 196.35 74.9011 196.35 75.0777C196.35 75.2543 196.513 75.3974 196.714 75.3974Z" fill="white"/>
<path d="M191.534 82.2467C191.534 82.3102 191.512 82.3722 191.472 82.4249C191.431 82.4776 191.374 82.5186 191.307 82.5426C191.24 82.5666 191.167 82.5726 191.096 82.5597C191.025 82.5469 190.96 82.5158 190.91 82.4705C190.859 82.4251 190.825 82.3676 190.812 82.3052C190.799 82.2428 190.807 82.1783 190.835 82.12C190.864 82.0617 190.912 82.0122 190.973 81.9778C191.033 81.9434 191.104 81.9257 191.177 81.9269C191.224 81.9269 191.271 81.9352 191.315 81.9514C191.359 81.9675 191.398 81.9912 191.432 82.0209C191.465 82.0507 191.491 82.086 191.509 82.1248C191.526 82.1635 191.535 82.205 191.534 82.2467Z" fill="white"/>
<path d="M196.714 82.5541C196.915 82.5541 197.078 82.411 197.078 82.2344C197.078 82.0578 196.915 81.9147 196.714 81.9147C196.513 81.9147 196.35 82.0578 196.35 82.2344C196.35 82.411 196.513 82.5541 196.714 82.5541Z" fill="white"/>
<path d="M193.942 78.9328C194.143 78.9328 194.306 78.7897 194.306 78.6131C194.306 78.4365 194.143 78.2933 193.942 78.2933C193.741 78.2933 193.578 78.4365 193.578 78.6131C193.578 78.7897 193.741 78.9328 193.942 78.9328Z" fill="white"/>
<path d="M199.5 78.2995C199.5 78.5024 199.5 78.7176 199.5 78.9144C199.446 78.928 199.389 78.9303 199.334 78.9213C199.278 78.9122 199.226 78.892 199.181 78.8622C199.136 78.8324 199.099 78.7938 199.074 78.7496C199.049 78.7053 199.036 78.6565 199.036 78.607C199.036 78.5575 199.049 78.5087 199.074 78.4644C199.099 78.4201 199.136 78.3815 199.181 78.3517C199.226 78.3219 199.278 78.3017 199.334 78.2926C199.389 78.2836 199.446 78.2859 199.5 78.2995Z" fill="white"/>
<path d="M185.997 89.3845C185.998 89.436 185.983 89.4868 185.955 89.5319H185.332C185.296 89.4825 185.276 89.4249 185.276 89.3661C185.298 89.2993 185.344 89.2406 185.407 89.1988C185.47 89.157 185.547 89.1344 185.626 89.1344C185.705 89.1344 185.782 89.157 185.845 89.1988C185.908 89.2406 185.954 89.2993 185.976 89.3661L185.997 89.3845Z" fill="white"/>
<path d="M191.534 89.3661H190.834C190.856 89.2993 190.902 89.2406 190.965 89.1988C191.028 89.157 191.105 89.1344 191.184 89.1344C191.263 89.1344 191.34 89.157 191.403 89.1988C191.466 89.2406 191.512 89.2993 191.534 89.3661Z" fill="white"/>
<path d="M197.008 89.2081H196.406C196.437 89.1607 196.483 89.1214 196.537 89.0942C196.591 89.067 196.652 89.0527 196.714 89.0529C196.773 89.0554 196.831 89.0709 196.883 89.0979C196.934 89.125 196.977 89.1629 197.008 89.2081Z" fill="white"/>
<path d="M188.405 86.0894C188.606 86.0894 188.769 85.9463 188.769 85.7697C188.769 85.5931 188.606 85.45 188.405 85.45C188.204 85.45 188.041 85.5931 188.041 85.7697C188.041 85.9463 188.204 86.0894 188.405 86.0894Z" fill="white"/>
<path d="M193.942 86.0894C194.143 86.0894 194.306 85.9463 194.306 85.7697C194.306 85.5931 194.143 85.45 193.942 85.45C193.741 85.45 193.578 85.5931 193.578 85.7697C193.578 85.9463 193.741 86.0894 193.942 86.0894Z" fill="white"/>
<path d="M199.5 78.2995C199.5 78.5021 199.5 78.7169 199.5 78.9133C199.5 79.1097 199.5 79.257 199.458 79.4412C199.139 82.7216 198.524 85.9747 197.617 89.1695H197.001H196.399L191.499 89.3107H190.799L185.941 89.4519H185.318L183.533 89.501L194.362 75.1202C196.931 73.9233 199.451 74.623 199.5 78.2995Z" fill="#263238"/>
<path d="M164.885 235.813C166.614 235.555 208.614 215.865 209.685 214.226C210.091 213.613 207.179 208.089 203.441 201.478C202.629 200.054 201.789 198.587 200.921 197.102C195.321 187.453 189.105 177.332 189.105 177.332L160.965 190.436L173.565 209.844L176.323 214.11C176.323 214.11 164.08 227.957 163.135 229.859C162.19 231.762 163.156 236.071 164.885 235.813Z" fill="#EB9481"/>
<path d="M164.885 235.813C166.614 235.555 208.614 215.865 209.685 214.226C210.175 213.465 205.772 205.462 200.921 197.102L173.558 209.844L176.316 214.11C176.316 214.11 164.08 227.957 163.135 229.859C162.19 231.762 163.156 236.071 164.885 235.813Z" fill="white"/>
<path d="M164.885 235.813C166.614 235.555 208.614 215.865 209.685 214.226C210.091 213.613 207.179 208.089 203.441 201.478L176.316 214.11C176.316 214.11 164.08 227.957 163.135 229.859C162.19 231.762 163.156 236.071 164.885 235.813Z" fill="#FEC7A0"/>
<path d="M164.591 234.057C171.542 230.608 199.934 217.252 207.102 214.306C207.158 214.306 207.179 214.306 207.102 214.343C200.305 217.897 171.787 231.044 164.633 234.162C164.5 234.223 164.444 234.131 164.591 234.057Z" fill="#263238"/>
<path d="M165.025 227.269C165.796 226.884 166.651 226.643 167.534 226.563C168.418 226.483 169.31 226.564 170.156 226.803C171.683 227.217 172.968 228.134 173.74 229.362C173.74 229.399 173.684 229.436 173.656 229.399C172.671 228.288 171.302 227.488 169.755 227.118C168.207 226.749 166.564 226.83 165.074 227.349C165.018 227.367 164.969 227.3 165.025 227.269Z" fill="#263238"/>
<path d="M173.957 216C176.757 214.644 180.551 213.987 183.533 215.184C183.652 215.233 183.575 215.374 183.463 215.38C180.31 215.403 177.168 215.72 174.09 216.326C174.041 216.341 173.987 216.339 173.94 216.319C173.892 216.3 173.856 216.264 173.838 216.221C173.821 216.178 173.823 216.131 173.846 216.089C173.868 216.048 173.908 216.016 173.957 216Z" fill="#263238"/>
<path d="M172.235 217.768C175.035 216.411 178.829 215.749 181.811 216.952C181.93 216.995 181.853 217.142 181.741 217.142C178.587 217.164 175.445 217.483 172.368 218.093C172.344 218.101 172.318 218.104 172.292 218.103C172.266 218.102 172.241 218.096 172.217 218.087C172.194 218.077 172.173 218.063 172.156 218.047C172.138 218.03 172.125 218.01 172.116 217.989C172.107 217.967 172.103 217.945 172.105 217.922C172.106 217.9 172.112 217.877 172.123 217.857C172.134 217.836 172.15 217.818 172.169 217.803C172.188 217.787 172.211 217.776 172.235 217.768Z" fill="#263238"/>
<path d="M170.513 219.529C173.313 218.173 177.107 217.516 180.089 218.713C180.208 218.762 180.131 218.903 180.019 218.903C176.865 218.926 173.722 219.245 170.646 219.855C170.597 219.87 170.542 219.868 170.495 219.848C170.448 219.829 170.412 219.794 170.394 219.75C170.376 219.707 170.379 219.66 170.401 219.618C170.424 219.577 170.464 219.545 170.513 219.529Z" fill="#263238"/>
<path d="M168.791 221.291C171.591 219.935 175.385 219.278 178.367 220.475C178.486 220.524 178.409 220.665 178.297 220.671C175.143 220.693 172 221.012 168.924 221.622C168.876 221.63 168.827 221.622 168.786 221.601C168.744 221.58 168.713 221.546 168.697 221.506C168.681 221.466 168.681 221.423 168.699 221.383C168.716 221.344 168.748 221.311 168.791 221.291Z" fill="#263238"/>
<path d="M201.733 209.298C204.897 207.825 207.515 212.14 204.344 213.594C201.173 215.049 198.562 210.759 201.733 209.298Z" fill="#263238"/>
<path d="M169.323 214.355C171.892 215.362 174.867 215.356 177.618 215.632C177.68 215.634 177.741 215.624 177.797 215.601C177.853 215.578 177.901 215.544 177.939 215.501C177.977 215.459 178.002 215.409 178.014 215.356C178.025 215.302 178.021 215.248 178.003 215.196C178.015 215.192 178.026 215.186 178.035 215.178C178.044 215.17 178.051 215.161 178.055 215.15C178.059 215.139 178.06 215.128 178.059 215.117C178.057 215.106 178.052 215.095 178.045 215.086C176.455 212.917 174.244 211.152 171.633 209.967C170.1 209.304 167.685 209.132 166.887 210.838C166.089 212.545 167.818 213.766 169.323 214.355ZM167.923 212.367C166.565 209.549 170.59 210.317 171.696 210.844C172.41 211.198 173.095 211.593 173.747 212.029C175.112 212.913 176.309 213.95 177.562 214.945C176.225 214.736 174.874 214.631 173.53 214.466C171.941 214.269 168.7 213.919 167.944 212.367H167.923Z" fill="#263238"/>
<path d="M187.096 208.813C185.892 207.303 183.596 207.941 182.245 208.887C179.997 210.549 178.285 212.699 177.282 215.123C177.278 215.133 177.276 215.144 177.277 215.155C177.279 215.166 177.283 215.177 177.29 215.187C177.296 215.196 177.305 215.204 177.316 215.21C177.327 215.216 177.339 215.22 177.352 215.221C177.349 215.275 177.361 215.329 177.386 215.378C177.411 215.427 177.448 215.471 177.496 215.506C177.543 215.54 177.599 215.564 177.659 215.577C177.719 215.589 177.782 215.589 177.842 215.577C180.453 214.773 183.358 214.196 185.605 212.717C186.9 211.851 188.23 210.243 187.096 208.813ZM181.496 213.649C180.222 214.073 178.934 214.435 177.674 214.877C178.647 213.649 179.557 212.422 180.67 211.293C181.194 210.743 181.76 210.224 182.364 209.74C183.309 209.009 187.047 207.481 186.431 210.495C186.109 212.176 183.029 213.146 181.517 213.649H181.496Z" fill="#263238"/>
<path d="M180.6 155.285C181.3 162.473 200.158 193.953 200.158 193.953L175.371 204.848L170.408 207.033C170.408 207.033 147.469 171.575 148.708 155.617C149.765 142.077 176.498 125.014 192.941 108.356H215.103C208.103 127.242 182.455 148.092 180.663 154.457C180.596 154.729 180.575 155.008 180.6 155.285Z" fill="#455A64"/>
<path d="M170.38 201.804C175.28 199.514 173.817 200.116 178.717 197.875C181.118 196.777 193.158 191.247 195.587 190.547C195.6 190.544 195.613 190.545 195.624 190.55C195.636 190.554 195.646 190.562 195.651 190.573C195.657 190.583 195.659 190.594 195.656 190.605C195.653 190.616 195.646 190.626 195.636 190.633C193.536 191.946 181.391 197.256 178.969 198.311C174.027 200.472 175.42 199.809 170.45 201.92C170.441 201.927 170.431 201.932 170.42 201.934C170.409 201.937 170.397 201.937 170.386 201.935C170.374 201.933 170.364 201.929 170.354 201.923C170.345 201.917 170.337 201.909 170.332 201.9C170.327 201.891 170.324 201.881 170.323 201.871C170.323 201.861 170.325 201.851 170.33 201.842C170.334 201.833 170.341 201.824 170.35 201.818C170.359 201.811 170.369 201.806 170.38 201.804Z" fill="#263238"/>
<path d="M212.499 111.29C205.467 121.721 197.509 131.65 188.699 140.984C186.543 143.255 184.317 145.465 182.084 147.681C180.194 149.522 178.283 151.627 177.919 154.193C177.52 157.053 178.941 159.834 180.082 162.436C181.342 165.308 182.616 168.175 183.946 171.029C185.388 174.098 186.893 177.167 188.566 180.119C189.424 181.641 190.323 183.145 191.261 184.63C191.727 185.371 192.21 186.107 192.71 186.84C192.955 187.208 194.691 189.718 194.943 190.087C195.027 190.203 195.237 190.344 195.027 190.037C194.551 189.35 192.612 186.502 192.164 185.802C190.4 183.04 188.825 180.199 187.334 177.314C185.843 174.429 184.415 171.434 183.071 168.457C181.727 165.48 180.341 162.559 179.2 159.582C178.525 158.058 178.19 156.435 178.213 154.801C178.36 153.223 179 151.711 180.061 150.43C181.965 147.975 184.513 145.839 186.704 143.575C191.258 138.873 195.584 134.012 199.682 128.991C204.34 123.312 208.658 117.424 212.618 111.351C212.618 111.284 212.534 111.247 212.499 111.29Z" fill="#263238"/>
<path d="M200.158 193.953L175.371 204.848L180.6 155.285C181.3 162.473 200.158 193.953 200.158 193.953Z" fill="#263238"/>
<path d="M190.841 274.358C192.598 274.358 237.79 261.162 239.141 259.707C239.659 259.155 237.853 253.275 235.438 246.204C234.92 244.682 234.367 243.135 233.8 241.521C230.132 231.185 225.96 220.284 225.96 220.284L195.699 229.037L204.379 250.028L206.276 254.637C206.276 254.637 191.576 266.477 190.253 268.214C188.93 269.951 189.091 274.321 190.841 274.358Z" fill="#EB9481"/>
<path d="M190.841 274.358C192.598 274.358 237.79 261.162 239.141 259.707C239.771 259.032 236.971 250.501 233.8 241.533L204.4 250.04L206.297 254.65C206.297 254.65 191.597 266.489 190.274 268.226C188.951 269.963 189.091 274.321 190.841 274.358Z" fill="white"/>
<path d="M190.841 274.358C192.598 274.358 237.79 261.162 239.141 259.707C239.659 259.155 237.853 253.275 235.438 246.204L206.276 254.637C206.276 254.637 191.576 266.477 190.253 268.214C188.93 269.951 189.091 274.321 190.841 274.358Z" fill="#FEC7A0"/>
<path d="M190.89 272.547C198.401 270.178 228.963 261.217 236.593 259.376C236.656 259.376 236.67 259.376 236.593 259.413C229.208 261.911 198.569 270.651 190.918 272.658C190.771 272.701 190.729 272.603 190.89 272.547Z" fill="#263238"/>
<path d="M192.626 265.925C193.46 265.659 194.348 265.548 195.234 265.599C196.119 265.649 196.983 265.861 197.771 266.219C199.2 266.859 200.291 267.959 200.816 269.288C200.816 269.325 200.746 269.35 200.725 269.288C199.969 268.048 198.774 267.056 197.32 266.462C195.866 265.867 194.231 265.703 192.661 265.992C192.598 266.017 192.563 265.943 192.626 265.925Z" fill="#263238"/>
<path d="M203.595 256.141C206.612 255.214 210.483 255.128 213.192 256.755C213.297 256.816 213.192 256.945 213.087 256.933C209.974 256.487 206.815 256.335 203.665 256.479C203.615 256.484 203.565 256.472 203.525 256.447C203.485 256.421 203.457 256.382 203.448 256.339C203.44 256.296 203.45 256.251 203.477 256.215C203.504 256.178 203.546 256.152 203.595 256.141Z" fill="#263238"/>
<path d="M201.558 257.62C204.575 256.7 208.446 256.614 211.155 258.234C211.26 258.302 211.155 258.431 211.05 258.412C207.936 257.968 204.778 257.818 201.628 257.964C201.581 257.963 201.536 257.948 201.5 257.921C201.464 257.895 201.44 257.858 201.432 257.817C201.424 257.777 201.432 257.735 201.455 257.699C201.478 257.663 201.514 257.635 201.558 257.62Z" fill="#263238"/>
<path d="M199.5 259.106C202.517 258.185 206.388 258.093 209.097 259.719C209.202 259.781 209.097 259.91 208.999 259.897C205.883 259.454 202.722 259.304 199.57 259.449C199.523 259.449 199.478 259.434 199.442 259.407C199.407 259.38 199.383 259.343 199.374 259.303C199.366 259.262 199.374 259.22 199.397 259.184C199.42 259.149 199.456 259.121 199.5 259.106Z" fill="#263238"/>
<path d="M197.484 260.591C200.501 259.664 204.372 259.578 207.081 261.205C207.186 261.266 207.081 261.395 206.983 261.383C203.868 260.937 200.707 260.785 197.554 260.929C197.504 260.934 197.454 260.922 197.414 260.896C197.374 260.87 197.347 260.832 197.338 260.789C197.329 260.746 197.339 260.701 197.366 260.664C197.393 260.628 197.436 260.601 197.484 260.591Z" fill="#263238"/>
<path d="M232.267 253.625C235.676 252.643 237.426 257.307 234.01 258.265C230.594 259.222 228.858 254.613 232.267 253.625Z" fill="#263238"/>
<path d="M199.346 253.827C201.684 255.202 204.624 255.638 207.277 256.319C207.55 256.387 207.746 256.153 207.739 255.945C207.752 255.943 207.764 255.938 207.775 255.932C207.786 255.925 207.795 255.917 207.801 255.907C207.808 255.897 207.812 255.886 207.813 255.874C207.815 255.863 207.813 255.851 207.809 255.84C206.658 253.466 204.816 251.398 202.468 249.844C201.068 248.966 198.737 248.438 197.624 250.003C196.511 251.569 197.981 253.023 199.346 253.827ZM198.373 251.648C197.575 248.665 201.39 250.022 202.384 250.709C203.018 251.163 203.616 251.653 204.176 252.176C205.309 253.275 206.377 254.424 207.375 255.619C206.094 255.214 204.785 254.907 203.49 254.545C201.943 254.134 198.8 253.312 198.373 251.648Z" fill="#263238"/>
<path d="M217.931 251.035C217.035 249.365 214.634 249.647 213.136 250.384C210.6 251.69 208.5 253.557 207.046 255.797C207.039 255.807 207.034 255.818 207.033 255.83C207.032 255.841 207.034 255.853 207.038 255.864C207.043 255.874 207.051 255.884 207.061 255.892C207.07 255.899 207.082 255.905 207.095 255.908C207.06 256.11 207.221 256.368 207.508 256.325C210.238 255.92 213.206 255.785 215.712 254.656C217.175 253.968 218.778 252.575 217.931 251.035ZM211.498 254.969C210.161 255.196 208.824 255.368 207.494 255.638C208.691 254.582 209.825 253.49 211.134 252.569C211.756 252.103 212.416 251.676 213.108 251.292C214.179 250.709 218.155 249.752 216.972 252.636C216.3 254.165 213.094 254.668 211.498 254.938V254.969Z" fill="#263238"/>
<path d="M201.047 247.745L233.8 238.28C233.8 238.28 218.064 198.551 214.319 178.609C212.345 168.12 221.648 138.327 224.952 135.313C233.394 127.61 233.772 119.551 227.661 108.307H200.018C200.018 108.307 201.712 120.202 201.474 120.675C195.3 132.944 177.38 160.466 180.292 181.064C185.038 214.693 201.047 247.745 201.047 247.745Z" fill="#455A64"/>
<path d="M200.074 241.828C206.808 239.459 228.298 233.303 230.685 232.947C230.741 232.947 230.769 233.014 230.72 233.032C228.62 234.051 217.336 237.433 200.123 241.957C200.113 241.96 200.103 241.961 200.093 241.96C200.083 241.959 200.073 241.957 200.064 241.953C200.055 241.949 200.047 241.944 200.04 241.937C200.033 241.93 200.028 241.922 200.025 241.914C200.022 241.905 200.02 241.896 200.021 241.888C200.022 241.879 200.025 241.87 200.029 241.862C200.034 241.854 200.04 241.847 200.048 241.841C200.055 241.835 200.064 241.831 200.074 241.828Z" fill="#263238"/>
<path d="M199.325 108.792C199.773 111.904 199.913 117.237 201.978 117.237C204.043 117.237 203.336 110.731 203.315 109.258C203.315 107.896 203.833 108.062 203.98 109.663C204.365 113.997 204.442 117.833 201.796 117.765C199.15 117.698 198.8 110.934 198.8 109.393C198.8 108.596 199.185 107.81 199.325 108.792Z" fill="#263238"/>
<path d="M201.852 117.446C202.038 118.535 202.068 119.64 201.943 120.736C201.943 120.828 201.516 120.773 201.474 120.705C201.201 120.263 201.285 118.121 201.187 117.55C201.171 117.473 201.191 117.394 201.242 117.329C201.293 117.265 201.372 117.221 201.46 117.207C201.548 117.193 201.639 117.21 201.712 117.255C201.786 117.3 201.836 117.369 201.852 117.446Z" fill="#263238"/>
<path d="M201.474 120.705C196.406 128.433 189 143.01 188.489 145.698C188.489 145.833 188.629 145.901 188.692 145.766C189.847 143.311 197.568 128.635 201.943 120.736C202.034 120.582 201.558 120.57 201.474 120.705Z" fill="#263238"/>
<path d="M215.432 155.015C217.63 147.57 220.206 140.082 224.686 133.417C225.925 131.575 227.423 129.863 228.592 127.991C229.7 126.251 230.305 124.3 230.356 122.307C230.447 118.011 228.361 113.935 226.338 110.124C226.282 110.013 226.093 110.124 226.156 110.228C228.102 113.911 230.132 117.894 230.097 122.043C230.078 124.082 229.466 126.083 228.319 127.856C227.283 129.495 225.995 130.998 224.889 132.594C220.381 139.063 217.686 146.343 215.481 153.634C213.136 161.411 210.343 169.408 211.456 177.529C212.12 181.541 213.105 185.508 214.403 189.399C215.656 193.524 216.965 197.636 218.295 201.748C221.277 210.955 224.266 220.223 227.738 229.319C227.738 229.35 227.815 229.319 227.801 229.319C225.05 221.07 222.124 212.876 219.464 204.602C218.148 200.49 216.86 196.372 215.6 192.247C214.347 188.135 212.989 184.029 212.17 179.83C211.326 175.579 211.34 171.231 212.212 166.984C213.038 162.939 214.263 158.968 215.432 155.015Z" fill="#263238"/>
<path d="M228.781 108.988C227.484 109.657 226.14 110.252 224.756 110.768L224.098 111.001C220.246 112.326 216.212 113.203 212.1 113.61C199.801 114.923 188.195 112.677 187.215 111.278L188.524 100.383L188.594 99.7693L188.769 98.2901C188.769 98.2901 185.731 94.8775 185.57 90.9248C185.563 90.4981 185.61 90.0719 185.71 89.6543C185.745 89.4702 185.794 89.2799 185.85 89.0774C186.746 85.8857 189.644 81.1596 192.115 77.8821C192.912 76.7795 193.808 75.7347 194.796 74.758C197.596 72.174 200.725 71.5847 203.798 72.3029C205.205 72.6609 206.534 73.2209 207.732 73.96C210.662 75.8247 213.156 78.167 215.075 80.8589C217.287 83.8234 219.639 88.169 221.753 92.5575C221.83 92.7109 221.9 92.8644 221.97 93.0178C225.771 101.034 228.781 108.988 228.781 108.988Z" fill="#6E89BE"/>
<path d="M197.078 75.0771C197.078 75.1617 197.04 75.2429 196.971 75.3028C196.903 75.3626 196.811 75.3963 196.714 75.3963C196.642 75.3963 196.572 75.3775 196.512 75.3425C196.452 75.3074 196.405 75.2576 196.378 75.1992C196.35 75.1409 196.343 75.0767 196.357 75.0148C196.371 74.9529 196.406 74.896 196.457 74.8514C196.507 74.8068 196.572 74.7764 196.643 74.7641C196.714 74.7518 196.787 74.7581 196.853 74.7822C196.92 74.8064 196.977 74.8473 197.017 74.8998C197.057 74.9523 197.078 75.014 197.078 75.0771ZM202.251 74.7641C202.179 74.7641 202.108 74.783 202.048 74.8183C201.988 74.8537 201.941 74.9039 201.914 74.9626C201.887 75.0212 201.88 75.0857 201.895 75.1478C201.909 75.2099 201.945 75.2667 201.996 75.3111C202.048 75.3555 202.113 75.3854 202.184 75.397C202.255 75.4086 202.329 75.4014 202.395 75.3763C202.462 75.3512 202.518 75.3093 202.557 75.2561C202.596 75.2028 202.616 75.1405 202.615 75.0771C202.615 75.0355 202.606 74.9943 202.587 74.9559C202.569 74.9175 202.542 74.8827 202.508 74.8536C202.474 74.8244 202.434 74.8015 202.39 74.7861C202.346 74.7708 202.298 74.7633 202.251 74.7641ZM207.795 74.7641C207.722 74.7629 207.651 74.7807 207.59 74.8153C207.529 74.8499 207.482 74.8997 207.453 74.9582C207.425 75.0168 207.417 75.0815 207.431 75.144C207.445 75.2064 207.479 75.2639 207.531 75.3089C207.582 75.3539 207.647 75.3844 207.719 75.3965C207.79 75.4086 207.864 75.4018 207.931 75.3769C207.997 75.352 208.054 75.3101 208.094 75.2567C208.133 75.2033 208.153 75.1407 208.152 75.0771C208.152 74.9941 208.114 74.9145 208.047 74.8558C207.98 74.7971 207.89 74.7641 207.795 74.7641ZM191.177 81.9146C191.129 81.9146 191.082 81.9228 191.038 81.9389C190.994 81.9549 190.953 81.9784 190.92 82.0081C190.886 82.0377 190.859 82.0729 190.841 82.1116C190.822 82.1503 190.813 82.1918 190.813 82.2337C190.797 82.2812 190.795 82.3312 190.805 82.3798C190.815 82.4284 190.838 82.4742 190.872 82.5136C190.906 82.553 190.95 82.585 191.001 82.6071C191.051 82.6291 191.107 82.6406 191.163 82.6406C191.219 82.6406 191.275 82.6291 191.325 82.6071C191.376 82.585 191.42 82.553 191.454 82.5136C191.487 82.4742 191.511 82.4284 191.521 82.3798C191.531 82.3312 191.528 82.2812 191.513 82.2337C191.515 82.1528 191.481 82.0743 191.418 82.0147C191.356 81.9552 191.269 81.9193 191.177 81.9146ZM196.714 81.9146C196.666 81.9146 196.619 81.9228 196.575 81.9389C196.531 81.9549 196.49 81.9784 196.457 82.0081C196.423 82.0377 196.396 82.0729 196.378 82.1116C196.359 82.1503 196.35 82.1918 196.35 82.2337C196.35 82.3184 196.388 82.3996 196.457 82.4594C196.525 82.5193 196.617 82.5529 196.714 82.5529C196.81 82.5513 196.901 82.5172 196.969 82.4577C197.037 82.3982 197.076 82.3179 197.078 82.2337C197.078 82.1908 197.068 82.1482 197.049 82.1087C197.03 82.0691 197.002 82.0334 196.966 82.0036C196.931 81.9738 196.889 81.9506 196.844 81.9353C196.798 81.92 196.749 81.9129 196.7 81.9146H196.714ZM202.251 81.9146C202.203 81.9146 202.156 81.9229 202.113 81.939C202.069 81.9551 202.029 81.9787 201.996 82.0084C201.963 82.0381 201.937 82.0734 201.919 82.1121C201.902 82.1507 201.893 82.1921 201.894 82.2337C201.894 82.2971 201.916 82.3591 201.956 82.4117C201.996 82.4643 202.053 82.5052 202.12 82.5291C202.187 82.5531 202.261 82.5591 202.332 82.5462C202.402 82.5334 202.467 82.5024 202.518 82.4572C202.568 82.4119 202.603 82.3545 202.616 82.2922C202.629 82.2298 202.621 82.1655 202.592 82.1073C202.564 82.0491 202.516 81.9997 202.455 81.9654C202.394 81.931 202.323 81.9134 202.251 81.9146ZM207.795 81.9146C207.747 81.9146 207.7 81.9228 207.656 81.9389C207.612 81.9549 207.571 81.9784 207.538 82.0081C207.504 82.0377 207.477 82.0729 207.459 82.1116C207.44 82.1503 207.431 82.1918 207.431 82.2337C207.415 82.2812 207.413 82.3312 207.423 82.3798C207.433 82.4284 207.456 82.4742 207.49 82.5136C207.524 82.553 207.568 82.585 207.619 82.6071C207.669 82.6291 207.725 82.6406 207.781 82.6406C207.837 82.6406 207.893 82.6291 207.943 82.6071C207.994 82.585 208.038 82.553 208.072 82.5136C208.105 82.4742 208.129 82.4284 208.139 82.3798C208.149 82.3312 208.146 82.2812 208.131 82.2337C208.133 82.1528 208.099 82.0743 208.036 82.0147C207.974 81.9552 207.887 81.9193 207.795 81.9146ZM213.332 81.9146C213.284 81.9146 213.237 81.9228 213.193 81.9389C213.149 81.9549 213.108 81.9784 213.075 82.0081C213.041 82.0377 213.014 82.0729 212.996 82.1116C212.977 82.1503 212.968 82.1918 212.968 82.2337C212.968 82.3184 213.006 82.3996 213.075 82.4594C213.143 82.5193 213.235 82.5529 213.332 82.5529C213.428 82.5513 213.519 82.5172 213.587 82.4577C213.655 82.3982 213.694 82.3179 213.696 82.2337C213.696 82.1918 213.687 82.1503 213.668 82.1116C213.65 82.0729 213.623 82.0377 213.589 82.0081C213.556 81.9784 213.515 81.9549 213.471 81.9389C213.427 81.9228 213.38 81.9146 213.332 81.9146ZM193.942 78.2994C193.87 78.2994 193.799 78.3183 193.739 78.3537C193.679 78.389 193.632 78.4392 193.605 78.4979C193.578 78.5566 193.571 78.6211 193.586 78.6831C193.6 78.7452 193.636 78.8021 193.687 78.8465C193.739 78.8908 193.804 78.9207 193.875 78.9324C193.946 78.944 194.02 78.9368 194.086 78.9117C194.153 78.8866 194.209 78.8447 194.248 78.7914C194.287 78.7381 194.307 78.6758 194.306 78.6125C194.306 78.5708 194.297 78.5296 194.278 78.4912C194.26 78.4528 194.233 78.4181 194.199 78.3889C194.165 78.3598 194.125 78.3368 194.081 78.3215C194.037 78.3061 193.989 78.2986 193.942 78.2994ZM199.486 78.2994C199.413 78.2982 199.342 78.3161 199.281 78.3507C199.22 78.3852 199.173 78.435 199.144 78.4936C199.116 78.5522 199.108 78.6168 199.122 78.6793C199.136 78.7418 199.17 78.7992 199.222 78.8442C199.273 78.8892 199.338 78.9197 199.41 78.9319C199.481 78.944 199.555 78.9371 199.622 78.9122C199.688 78.8873 199.745 78.8455 199.785 78.792C199.824 78.7386 199.844 78.6761 199.843 78.6125C199.843 78.5315 199.807 78.4537 199.743 78.3953C199.679 78.337 199.592 78.3026 199.5 78.2994H199.486ZM205.023 78.2994C204.969 78.2859 204.912 78.2835 204.856 78.2925C204.801 78.3016 204.749 78.3218 204.704 78.3515C204.659 78.3813 204.622 78.4198 204.597 78.464C204.572 78.5082 204.559 78.5569 204.559 78.6063C204.559 78.6557 204.572 78.7044 204.597 78.7487C204.622 78.7929 204.659 78.8314 204.704 78.8611C204.749 78.8909 204.801 78.9111 204.856 78.9201C204.912 78.9291 204.969 78.9268 205.023 78.9132C205.077 78.9268 205.134 78.9291 205.19 78.9201C205.245 78.9111 205.297 78.8909 205.342 78.8611C205.387 78.8314 205.424 78.7929 205.449 78.7487C205.474 78.7044 205.487 78.6557 205.487 78.6063C205.487 78.5569 205.474 78.5082 205.449 78.464C205.424 78.4198 205.387 78.3813 205.342 78.3515C205.297 78.3218 205.245 78.3016 205.19 78.2925C205.134 78.2835 205.077 78.2859 205.023 78.2994ZM210.56 78.2994C210.488 78.2994 210.417 78.3183 210.357 78.3537C210.297 78.389 210.25 78.4392 210.223 78.4979C210.196 78.5566 210.189 78.6211 210.204 78.6831C210.218 78.7452 210.254 78.8021 210.305 78.8465C210.357 78.8908 210.422 78.9207 210.493 78.9324C210.564 78.944 210.638 78.9368 210.704 78.9117C210.771 78.8866 210.827 78.8447 210.866 78.7914C210.905 78.7381 210.925 78.6758 210.924 78.6125C210.924 78.5708 210.915 78.5296 210.896 78.4912C210.878 78.4528 210.851 78.4181 210.817 78.3889C210.783 78.3598 210.743 78.3368 210.699 78.3215C210.655 78.3061 210.607 78.2986 210.56 78.2994ZM185.829 89.1203C185.773 89.3229 185.724 89.5131 185.689 89.6973C185.775 89.6868 185.854 89.6493 185.91 89.5917C185.967 89.5341 185.998 89.4603 185.997 89.3842C185.997 89.3313 185.982 89.2791 185.953 89.2329C185.923 89.1866 185.881 89.1478 185.829 89.1203ZM191.177 89.0712C191.104 89.07 191.033 89.0878 190.972 89.1224C190.911 89.157 190.863 89.2068 190.835 89.2654C190.807 89.3239 190.799 89.3886 190.813 89.4511C190.827 89.5136 190.861 89.571 190.913 89.616C190.964 89.661 191.029 89.6915 191.101 89.7036C191.172 89.7158 191.246 89.7089 191.313 89.684C191.379 89.6591 191.436 89.6172 191.476 89.5638C191.515 89.5104 191.535 89.4479 191.534 89.3842C191.534 89.3012 191.496 89.2216 191.429 89.1629C191.362 89.1042 191.272 89.0712 191.177 89.0712ZM196.714 89.0712C196.66 89.0576 196.603 89.0553 196.547 89.0643C196.492 89.0734 196.44 89.0935 196.395 89.1233C196.35 89.153 196.313 89.1915 196.288 89.2358C196.263 89.28 196.25 89.3287 196.25 89.3781C196.25 89.4275 196.263 89.4762 196.288 89.5204C196.313 89.5647 196.35 89.6031 196.395 89.6329C196.44 89.6626 196.492 89.6828 196.547 89.6919C196.603 89.7009 196.66 89.6985 196.714 89.685C196.768 89.6985 196.825 89.7009 196.881 89.6919C196.936 89.6828 196.988 89.6626 197.033 89.6329C197.078 89.6031 197.115 89.5647 197.14 89.5204C197.165 89.4762 197.178 89.4275 197.178 89.3781C197.178 89.3287 197.165 89.28 197.14 89.2358C197.115 89.1915 197.078 89.153 197.033 89.1233C196.988 89.0935 196.936 89.0734 196.881 89.0643C196.825 89.0553 196.768 89.0576 196.714 89.0712ZM202.251 89.0712C202.179 89.0712 202.108 89.0901 202.048 89.1254C201.988 89.1608 201.941 89.211 201.914 89.2697C201.887 89.3284 201.88 89.3929 201.895 89.4549C201.909 89.517 201.945 89.5738 201.996 89.6182C202.048 89.6626 202.113 89.6925 202.184 89.7041C202.255 89.7157 202.329 89.7085 202.395 89.6834C202.462 89.6583 202.518 89.6165 202.557 89.5632C202.596 89.5099 202.616 89.4476 202.615 89.3842C202.615 89.3426 202.606 89.3014 202.587 89.263C202.569 89.2246 202.542 89.1898 202.508 89.1607C202.474 89.1315 202.434 89.1086 202.39 89.0932C202.346 89.0779 202.298 89.0704 202.251 89.0712ZM207.795 89.0712C207.722 89.07 207.651 89.0878 207.59 89.1224C207.529 89.157 207.482 89.2068 207.453 89.2654C207.425 89.3239 207.417 89.3886 207.431 89.4511C207.445 89.5136 207.479 89.571 207.531 89.616C207.582 89.661 207.647 89.6915 207.719 89.7036C207.79 89.7158 207.864 89.7089 207.931 89.684C207.997 89.6591 208.054 89.6172 208.094 89.5638C208.133 89.5104 208.153 89.4479 208.152 89.3842C208.152 89.3012 208.114 89.2216 208.047 89.1629C207.98 89.1042 207.89 89.0712 207.795 89.0712ZM213.332 89.0712C213.278 89.0576 213.221 89.0553 213.165 89.0643C213.11 89.0734 213.058 89.0935 213.013 89.1233C212.968 89.153 212.931 89.1915 212.906 89.2358C212.881 89.28 212.868 89.3287 212.868 89.3781C212.868 89.4275 212.881 89.4762 212.906 89.5204C212.931 89.5647 212.968 89.6031 213.013 89.6329C213.058 89.6626 213.11 89.6828 213.165 89.6919C213.221 89.7009 213.278 89.6985 213.332 89.685C213.386 89.6985 213.443 89.7009 213.499 89.6919C213.554 89.6828 213.606 89.6626 213.651 89.6329C213.696 89.6031 213.733 89.5647 213.758 89.5204C213.783 89.4762 213.796 89.4275 213.796 89.3781C213.796 89.3287 213.783 89.28 213.758 89.2358C213.733 89.1915 213.696 89.153 213.651 89.1233C213.606 89.0935 213.554 89.0734 213.499 89.0643C213.443 89.0553 213.386 89.0576 213.332 89.0712ZM218.869 89.0712C218.797 89.0712 218.726 89.0901 218.666 89.1254C218.606 89.1608 218.559 89.211 218.532 89.2697C218.505 89.3284 218.498 89.3929 218.513 89.4549C218.527 89.517 218.563 89.5738 218.614 89.6182C218.666 89.6626 218.731 89.6925 218.802 89.7041C218.873 89.7157 218.947 89.7085 219.013 89.6834C219.08 89.6583 219.136 89.6165 219.175 89.5632C219.214 89.5099 219.234 89.4476 219.233 89.3842C219.233 89.3426 219.224 89.3014 219.205 89.263C219.187 89.2246 219.16 89.1898 219.126 89.1607C219.092 89.1315 219.052 89.1086 219.008 89.0932C218.964 89.0779 218.916 89.0704 218.869 89.0712ZM188.405 85.4499C188.308 85.4499 188.216 85.4835 188.148 85.5434C188.079 85.6033 188.041 85.6844 188.041 85.7691C188.041 85.8537 188.079 85.9349 188.148 85.9948C188.216 86.0546 188.308 86.0882 188.405 86.0882C188.501 86.0867 188.592 86.0525 188.66 85.993C188.728 85.9335 188.767 85.8532 188.769 85.7691C188.769 85.7272 188.76 85.6857 188.741 85.6469C188.723 85.6082 188.696 85.573 188.662 85.5434C188.629 85.5138 188.588 85.4903 188.544 85.4742C188.5 85.4582 188.453 85.4499 188.405 85.4499ZM193.942 85.4499C193.894 85.4499 193.847 85.4582 193.804 85.4743C193.76 85.4904 193.72 85.514 193.687 85.5438C193.654 85.5735 193.628 85.6087 193.61 85.6474C193.593 85.6861 193.584 85.7275 193.585 85.7691C193.585 85.8325 193.607 85.8944 193.647 85.947C193.687 85.9996 193.744 86.0405 193.811 86.0645C193.878 86.0885 193.952 86.0944 194.023 86.0816C194.093 86.0688 194.158 86.0378 194.209 85.9925C194.259 85.9473 194.294 85.8898 194.307 85.8275C194.32 85.7652 194.312 85.7008 194.283 85.6426C194.255 85.5844 194.207 85.535 194.146 85.5007C194.085 85.4664 194.014 85.4487 193.942 85.4499ZM199.486 85.4499C199.389 85.4499 199.297 85.4835 199.229 85.5434C199.16 85.6033 199.122 85.6844 199.122 85.7691C199.106 85.8166 199.104 85.8666 199.114 85.9152C199.124 85.9637 199.147 86.0095 199.181 86.049C199.215 86.0884 199.259 86.1204 199.31 86.1424C199.36 86.1644 199.416 86.1759 199.472 86.1759C199.528 86.1759 199.584 86.1644 199.634 86.1424C199.685 86.1204 199.729 86.0884 199.763 86.049C199.796 86.0095 199.82 85.9637 199.83 85.9152C199.84 85.8666 199.837 85.8166 199.822 85.7691C199.824 85.6901 199.792 85.6133 199.732 85.5541C199.673 85.4948 199.59 85.4577 199.5 85.4499H199.486ZM205.023 85.4499C204.926 85.4499 204.834 85.4835 204.766 85.5434C204.697 85.6033 204.659 85.6844 204.659 85.7691C204.659 85.8537 204.697 85.9349 204.766 85.9948C204.834 86.0546 204.926 86.0882 205.023 86.0882C205.119 86.0867 205.21 86.0525 205.278 85.993C205.346 85.9335 205.385 85.8532 205.387 85.7691C205.387 85.7272 205.378 85.6857 205.359 85.6469C205.341 85.6082 205.314 85.573 205.28 85.5434C205.247 85.5138 205.206 85.4903 205.162 85.4742C205.118 85.4582 205.071 85.4499 205.023 85.4499ZM210.56 85.4499C210.512 85.4499 210.465 85.4582 210.422 85.4743C210.378 85.4904 210.338 85.514 210.305 85.5438C210.272 85.5735 210.246 85.6087 210.228 85.6474C210.211 85.6861 210.202 85.7275 210.203 85.7691C210.203 85.8325 210.225 85.8944 210.265 85.947C210.305 85.9996 210.362 86.0405 210.429 86.0645C210.496 86.0885 210.57 86.0944 210.641 86.0816C210.711 86.0688 210.776 86.0378 210.827 85.9925C210.877 85.9473 210.912 85.8898 210.925 85.8275C210.938 85.7652 210.93 85.7008 210.901 85.6426C210.873 85.5844 210.825 85.535 210.764 85.5007C210.703 85.4664 210.632 85.4487 210.56 85.4499ZM216.104 85.4499C216.007 85.4499 215.915 85.4835 215.847 85.5434C215.778 85.6033 215.74 85.6844 215.74 85.7691C215.724 85.8166 215.722 85.8666 215.732 85.9152C215.742 85.9637 215.765 86.0095 215.799 86.049C215.833 86.0884 215.877 86.1204 215.928 86.1424C215.978 86.1644 216.034 86.1759 216.09 86.1759C216.146 86.1759 216.202 86.1644 216.252 86.1424C216.303 86.1204 216.347 86.0884 216.381 86.049C216.414 86.0095 216.438 85.9637 216.448 85.9152C216.458 85.8666 216.455 85.8166 216.44 85.7691C216.442 85.6881 216.408 85.6096 216.345 85.5501C216.283 85.4906 216.196 85.4547 216.104 85.4499ZM191.177 96.2217C191.08 96.2217 190.988 96.2553 190.92 96.3152C190.851 96.375 190.813 96.4562 190.813 96.5409C190.797 96.5884 190.795 96.6384 190.805 96.6869C190.815 96.7355 190.838 96.7813 190.872 96.8207C190.906 96.8602 190.95 96.8922 191.001 96.9142C191.051 96.9362 191.107 96.9477 191.163 96.9477C191.219 96.9477 191.275 96.9362 191.325 96.9142C191.376 96.8922 191.42 96.8602 191.454 96.8207C191.487 96.7813 191.511 96.7355 191.521 96.6869C191.531 96.6384 191.528 96.5884 191.513 96.5409C191.515 96.4599 191.481 96.3814 191.418 96.3219C191.356 96.2624 191.269 96.2265 191.177 96.2217ZM196.714 96.2217C196.617 96.2217 196.525 96.2553 196.457 96.3152C196.388 96.375 196.35 96.4562 196.35 96.5409C196.35 96.6255 196.388 96.7067 196.457 96.7666C196.525 96.8264 196.617 96.86 196.714 96.86C196.81 96.8585 196.901 96.8243 196.969 96.7648C197.037 96.7053 197.076 96.625 197.078 96.5409C197.078 96.4979 197.068 96.4554 197.049 96.4158C197.03 96.3763 197.002 96.3405 196.966 96.3107C196.931 96.2809 196.889 96.2577 196.844 96.2424C196.798 96.2271 196.749 96.2201 196.7 96.2217H196.714ZM202.251 96.2217C202.203 96.2217 202.156 96.23 202.113 96.2461C202.069 96.2622 202.029 96.2858 201.996 96.3155C201.963 96.3453 201.937 96.3805 201.919 96.4192C201.902 96.4579 201.893 96.4992 201.894 96.5409C201.894 96.6042 201.916 96.6662 201.956 96.7188C201.996 96.7714 202.053 96.8123 202.12 96.8363C202.187 96.8602 202.261 96.8662 202.332 96.8534C202.402 96.8405 202.467 96.8095 202.518 96.7643C202.568 96.719 202.603 96.6616 202.616 96.5993C202.629 96.537 202.621 96.4726 202.592 96.4144C202.564 96.3562 202.516 96.3068 202.455 96.2725C202.394 96.2382 202.323 96.2205 202.251 96.2217ZM207.795 96.2217C207.698 96.2217 207.606 96.2553 207.538 96.3152C207.469 96.375 207.431 96.4562 207.431 96.5409C207.415 96.5884 207.413 96.6384 207.423 96.6869C207.433 96.7355 207.456 96.7813 207.49 96.8207C207.524 96.8602 207.568 96.8922 207.619 96.9142C207.669 96.9362 207.725 96.9477 207.781 96.9477C207.837 96.9477 207.893 96.9362 207.943 96.9142C207.994 96.8922 208.038 96.8602 208.072 96.8207C208.105 96.7813 208.129 96.7355 208.139 96.6869C208.149 96.6384 208.146 96.5884 208.131 96.5409C208.133 96.4599 208.099 96.3814 208.036 96.3219C207.974 96.2624 207.887 96.2265 207.795 96.2217ZM213.332 96.2217C213.235 96.2217 213.143 96.2553 213.075 96.3152C213.006 96.375 212.968 96.4562 212.968 96.5409C212.968 96.6255 213.006 96.7067 213.075 96.7666C213.143 96.8264 213.235 96.86 213.332 96.86C213.428 96.8585 213.519 96.8243 213.587 96.7648C213.655 96.7053 213.694 96.625 213.696 96.5409C213.696 96.499 213.687 96.4575 213.668 96.4187C213.65 96.38 213.623 96.3448 213.589 96.3152C213.556 96.2855 213.515 96.262 213.471 96.246C213.427 96.23 213.38 96.2217 213.332 96.2217ZM218.869 96.2217C218.821 96.2217 218.774 96.23 218.731 96.2461C218.687 96.2622 218.647 96.2858 218.614 96.3155C218.581 96.3453 218.555 96.3805 218.537 96.4192C218.52 96.4579 218.511 96.4992 218.512 96.5409C218.512 96.6042 218.534 96.6662 218.574 96.7188C218.614 96.7714 218.671 96.8123 218.738 96.8363C218.805 96.8602 218.879 96.8662 218.95 96.8534C219.02 96.8405 219.085 96.8095 219.136 96.7643C219.186 96.719 219.221 96.6616 219.234 96.5993C219.247 96.537 219.239 96.4726 219.21 96.4144C219.182 96.3562 219.134 96.3068 219.073 96.2725C219.012 96.2382 218.941 96.2205 218.869 96.2217ZM188.405 92.6066C188.351 92.593 188.294 92.5906 188.238 92.5997C188.183 92.6087 188.131 92.6289 188.086 92.6587C188.041 92.6884 188.004 92.7269 187.979 92.7711C187.954 92.8153 187.941 92.8641 187.941 92.9135C187.941 92.9629 187.954 93.0116 187.979 93.0558C188.004 93.1 188.041 93.1385 188.086 93.1682C188.131 93.198 188.183 93.2182 188.238 93.2272C188.294 93.2363 188.351 93.2339 188.405 93.2203C188.459 93.2339 188.516 93.2363 188.572 93.2272C188.627 93.2182 188.679 93.198 188.724 93.1682C188.769 93.1385 188.806 93.1 188.831 93.0558C188.856 93.0116 188.869 92.9629 188.869 92.9135C188.869 92.8641 188.856 92.8153 188.831 92.7711C188.806 92.7269 188.769 92.6884 188.724 92.6587C188.679 92.6289 188.627 92.6087 188.572 92.5997C188.516 92.5906 188.459 92.593 188.405 92.6066ZM193.942 92.6066C193.87 92.6066 193.799 92.6255 193.739 92.6608C193.679 92.6962 193.632 92.7464 193.605 92.805C193.578 92.8637 193.571 92.9282 193.586 92.9903C193.6 93.0524 193.636 93.1092 193.687 93.1536C193.739 93.198 193.804 93.2279 193.875 93.2395C193.946 93.2511 194.02 93.2439 194.086 93.2188C194.153 93.1937 194.209 93.1518 194.248 93.0985C194.287 93.0453 194.307 92.983 194.306 92.9196C194.306 92.878 194.297 92.8367 194.278 92.7984C194.26 92.76 194.233 92.7252 194.199 92.696C194.165 92.6669 194.125 92.644 194.081 92.6286C194.037 92.6132 193.989 92.6057 193.942 92.6066ZM199.486 92.6066C199.413 92.6054 199.342 92.6232 199.281 92.6578C199.22 92.6924 199.173 92.7422 199.144 92.8007C199.116 92.8593 199.108 92.924 199.122 92.9864C199.136 93.0489 199.17 93.1063 199.222 93.1514C199.273 93.1964 199.338 93.2269 199.41 93.239C199.481 93.2511 199.555 93.2443 199.622 93.2194C199.688 93.1944 199.745 93.1526 199.785 93.0992C199.824 93.0458 199.844 92.9832 199.843 92.9196C199.843 92.8386 199.807 92.7608 199.743 92.7025C199.679 92.6441 199.592 92.6097 199.5 92.6066H199.486ZM205.023 92.6066C204.969 92.593 204.912 92.5906 204.856 92.5997C204.801 92.6087 204.749 92.6289 204.704 92.6587C204.659 92.6884 204.622 92.7269 204.597 92.7711C204.572 92.8153 204.559 92.8641 204.559 92.9135C204.559 92.9629 204.572 93.0116 204.597 93.0558C204.622 93.1 204.659 93.1385 204.704 93.1682C204.749 93.198 204.801 93.2182 204.856 93.2272C204.912 93.2363 204.969 93.2339 205.023 93.2203C205.077 93.2339 205.134 93.2363 205.19 93.2272C205.245 93.2182 205.297 93.198 205.342 93.1682C205.387 93.1385 205.424 93.1 205.449 93.0558C205.474 93.0116 205.487 92.9629 205.487 92.9135C205.487 92.8641 205.474 92.8153 205.449 92.7711C205.424 92.7269 205.387 92.6884 205.342 92.6587C205.297 92.6289 205.245 92.6087 205.19 92.5997C205.134 92.5906 205.077 92.593 205.023 92.6066ZM210.56 92.6066C210.488 92.6066 210.417 92.6255 210.357 92.6608C210.297 92.6962 210.25 92.7464 210.223 92.805C210.196 92.8637 210.189 92.9282 210.204 92.9903C210.218 93.0524 210.254 93.1092 210.305 93.1536C210.357 93.198 210.422 93.2279 210.493 93.2395C210.564 93.2511 210.638 93.2439 210.704 93.2188C210.771 93.1937 210.827 93.1518 210.866 93.0985C210.905 93.0453 210.925 92.983 210.924 92.9196C210.924 92.878 210.915 92.8367 210.896 92.7984C210.878 92.76 210.851 92.7252 210.817 92.696C210.783 92.6669 210.743 92.644 210.699 92.6286C210.655 92.6132 210.607 92.6057 210.56 92.6066ZM216.104 92.6066C216.031 92.6054 215.96 92.6232 215.899 92.6578C215.838 92.6924 215.79 92.7422 215.762 92.8007C215.734 92.8593 215.726 92.924 215.74 92.9864C215.754 93.0489 215.788 93.1063 215.84 93.1514C215.891 93.1964 215.956 93.2269 216.028 93.239C216.099 93.2511 216.173 93.2443 216.24 93.2194C216.306 93.1944 216.363 93.1526 216.403 93.0992C216.442 93.0458 216.462 92.9832 216.461 92.9196C216.461 92.8785 216.452 92.8378 216.434 92.7998C216.416 92.7618 216.39 92.7273 216.356 92.6982C216.323 92.6692 216.284 92.6461 216.241 92.6304C216.197 92.6147 216.151 92.6066 216.104 92.6066ZM221.704 92.6066H221.606C221.542 92.6059 221.478 92.6203 221.422 92.6481C221.366 92.676 221.319 92.7164 221.287 92.7653C221.255 92.8141 221.238 92.8696 221.238 92.9261C221.238 92.9825 221.255 93.038 221.288 93.0867C221.32 93.1355 221.367 93.1758 221.423 93.2036C221.479 93.2314 221.542 93.2456 221.607 93.2448C221.671 93.2441 221.734 93.2283 221.789 93.1992C221.845 93.1701 221.89 93.1287 221.921 93.0792C221.9 92.9257 221.816 92.7723 221.739 92.6188L221.704 92.6066ZM191.142 103.366C191.069 103.365 190.998 103.383 190.937 103.417C190.876 103.452 190.829 103.502 190.8 103.56C190.772 103.619 190.764 103.683 190.778 103.746C190.792 103.808 190.826 103.866 190.878 103.911C190.929 103.956 190.994 103.986 191.066 103.998C191.137 104.011 191.211 104.004 191.278 103.979C191.344 103.954 191.401 103.912 191.441 103.859C191.48 103.805 191.5 103.743 191.499 103.679C191.496 103.603 191.462 103.531 191.402 103.476C191.343 103.42 191.263 103.386 191.177 103.378L191.142 103.366ZM196.679 103.366C196.625 103.352 196.568 103.35 196.512 103.359C196.457 103.368 196.405 103.388 196.36 103.418C196.315 103.448 196.278 103.486 196.253 103.531C196.228 103.575 196.215 103.624 196.215 103.673C196.215 103.722 196.228 103.771 196.253 103.815C196.278 103.86 196.315 103.898 196.36 103.928C196.405 103.958 196.457 103.978 196.512 103.987C196.568 103.996 196.625 103.993 196.679 103.98C196.733 103.993 196.79 103.996 196.846 103.987C196.901 103.978 196.953 103.958 196.998 103.928C197.043 103.898 197.08 103.86 197.105 103.815C197.13 103.771 197.143 103.722 197.143 103.673C197.143 103.624 197.13 103.575 197.105 103.531C197.08 103.486 197.043 103.448 196.998 103.418C196.953 103.388 196.901 103.368 196.846 103.359C196.79 103.35 196.733 103.352 196.679 103.366ZM202.216 103.366C202.144 103.366 202.073 103.385 202.013 103.42C201.953 103.456 201.906 103.506 201.879 103.565C201.852 103.623 201.845 103.688 201.86 103.75C201.874 103.812 201.91 103.869 201.961 103.913C202.013 103.957 202.078 103.987 202.149 103.999C202.22 104.011 202.294 104.003 202.36 103.978C202.427 103.953 202.483 103.911 202.522 103.858C202.561 103.805 202.581 103.742 202.58 103.679C202.577 103.602 202.542 103.529 202.481 103.474C202.42 103.418 202.338 103.384 202.251 103.378L202.216 103.366ZM207.76 103.366C207.687 103.365 207.616 103.383 207.555 103.417C207.494 103.452 207.446 103.502 207.418 103.56C207.39 103.619 207.382 103.683 207.396 103.746C207.41 103.808 207.444 103.866 207.496 103.911C207.547 103.956 207.612 103.986 207.684 103.998C207.755 104.011 207.829 104.004 207.896 103.979C207.962 103.954 208.019 103.912 208.059 103.859C208.098 103.805 208.118 103.743 208.117 103.679C208.114 103.603 208.08 103.531 208.02 103.476C207.961 103.42 207.881 103.386 207.795 103.378L207.76 103.366ZM213.297 103.366C213.243 103.352 213.186 103.35 213.13 103.359C213.075 103.368 213.023 103.388 212.978 103.418C212.933 103.448 212.896 103.486 212.871 103.531C212.846 103.575 212.833 103.624 212.833 103.673C212.833 103.722 212.846 103.771 212.871 103.815C212.896 103.86 212.933 103.898 212.978 103.928C213.023 103.958 213.075 103.978 213.13 103.987C213.186 103.996 213.243 103.993 213.297 103.98C213.351 103.993 213.408 103.996 213.464 103.987C213.519 103.978 213.571 103.958 213.616 103.928C213.661 103.898 213.698 103.86 213.723 103.815C213.748 103.771 213.761 103.722 213.761 103.673C213.761 103.624 213.748 103.575 213.723 103.531C213.698 103.486 213.661 103.448 213.616 103.418C213.571 103.388 213.519 103.368 213.464 103.359C213.408 103.35 213.351 103.352 213.297 103.366ZM218.834 103.366C218.762 103.366 218.691 103.385 218.631 103.42C218.571 103.456 218.524 103.506 218.497 103.565C218.47 103.623 218.463 103.688 218.478 103.75C218.492 103.812 218.528 103.869 218.579 103.913C218.631 103.957 218.696 103.987 218.767 103.999C218.838 104.011 218.912 104.003 218.978 103.978C219.045 103.953 219.101 103.911 219.14 103.858C219.179 103.805 219.199 103.742 219.198 103.679C219.195 103.602 219.16 103.529 219.099 103.474C219.038 103.418 218.956 103.384 218.869 103.378L218.834 103.366ZM224.378 103.366C224.305 103.365 224.234 103.383 224.173 103.417C224.112 103.452 224.064 103.502 224.036 103.56C224.008 103.619 224 103.683 224.014 103.746C224.028 103.808 224.062 103.866 224.114 103.911C224.165 103.956 224.23 103.986 224.302 103.998C224.373 104.011 224.447 104.004 224.514 103.979C224.58 103.954 224.637 103.912 224.677 103.859C224.716 103.805 224.736 103.743 224.735 103.679C224.732 103.603 224.698 103.531 224.638 103.476C224.579 103.42 224.499 103.386 224.413 103.378L224.378 103.366ZM188.37 99.7448C188.273 99.7448 188.181 99.7784 188.113 99.8383C188.044 99.8981 188.006 99.9793 188.006 100.064C188.006 100.149 188.044 100.23 188.113 100.29C188.181 100.349 188.273 100.383 188.37 100.383C188.466 100.382 188.558 100.347 188.625 100.288C188.693 100.228 188.732 100.148 188.734 100.064C188.731 99.9865 188.696 99.9126 188.635 99.8562C188.575 99.7997 188.493 99.7645 188.405 99.7571L188.37 99.7448ZM193.907 99.7448C193.859 99.7448 193.812 99.7531 193.769 99.7692C193.725 99.7853 193.685 99.8089 193.652 99.8386C193.619 99.8683 193.593 99.9036 193.575 99.9423C193.558 99.981 193.549 100.022 193.55 100.064C193.55 100.127 193.572 100.189 193.612 100.242C193.652 100.295 193.709 100.335 193.776 100.359C193.843 100.383 193.917 100.389 193.988 100.376C194.058 100.364 194.123 100.333 194.174 100.287C194.224 100.242 194.259 100.185 194.272 100.122C194.285 100.06 194.277 99.9957 194.248 99.9375C194.22 99.8793 194.172 99.8299 194.111 99.7956C194.05 99.7612 193.979 99.7436 193.907 99.7448ZM199.451 99.7448C199.354 99.7448 199.262 99.7784 199.194 99.8383C199.125 99.8981 199.087 99.9793 199.087 100.064C199.071 100.111 199.069 100.161 199.079 100.21C199.089 100.259 199.112 100.304 199.146 100.344C199.18 100.383 199.224 100.415 199.275 100.437C199.325 100.459 199.381 100.471 199.437 100.471C199.493 100.471 199.549 100.459 199.599 100.437C199.65 100.415 199.694 100.383 199.728 100.344C199.761 100.304 199.785 100.259 199.795 100.21C199.805 100.161 199.802 100.111 199.787 100.064C199.787 99.9916 199.758 99.9215 199.706 99.8655C199.654 99.8096 199.581 99.7712 199.5 99.7571L199.451 99.7448ZM204.988 99.7448C204.891 99.7448 204.799 99.7784 204.731 99.8383C204.662 99.8981 204.624 99.9793 204.624 100.064C204.624 100.149 204.662 100.23 204.731 100.29C204.799 100.349 204.891 100.383 204.988 100.383C205.084 100.382 205.175 100.347 205.243 100.288C205.311 100.228 205.35 100.148 205.352 100.064C205.349 99.9865 205.314 99.9126 205.253 99.8562C205.193 99.7997 205.111 99.7645 205.023 99.7571L204.988 99.7448ZM210.525 99.7448C210.477 99.7448 210.43 99.7531 210.387 99.7692C210.343 99.7853 210.303 99.8089 210.27 99.8386C210.237 99.8683 210.211 99.9036 210.193 99.9423C210.176 99.981 210.167 100.022 210.168 100.064C210.168 100.127 210.19 100.189 210.23 100.242C210.27 100.295 210.327 100.335 210.394 100.359C210.461 100.383 210.535 100.389 210.606 100.376C210.676 100.364 210.741 100.333 210.792 100.287C210.842 100.242 210.877 100.185 210.89 100.122C210.903 100.06 210.895 99.9957 210.866 99.9375C210.838 99.8793 210.79 99.8299 210.729 99.7956C210.668 99.7612 210.597 99.7436 210.525 99.7448ZM216.069 99.7448C215.972 99.7448 215.88 99.7784 215.812 99.8383C215.743 99.8981 215.705 99.9793 215.705 100.064C215.689 100.111 215.687 100.161 215.697 100.21C215.707 100.259 215.73 100.304 215.764 100.344C215.798 100.383 215.842 100.415 215.893 100.437C215.943 100.459 215.999 100.471 216.055 100.471C216.111 100.471 216.167 100.459 216.217 100.437C216.268 100.415 216.312 100.383 216.346 100.344C216.379 100.304 216.403 100.259 216.413 100.21C216.423 100.161 216.42 100.111 216.405 100.064C216.404 99.9898 216.374 99.9183 216.319 99.8621C216.264 99.8059 216.187 99.7687 216.104 99.7571L216.069 99.7448ZM221.606 99.7448C221.509 99.7448 221.417 99.7784 221.349 99.8383C221.28 99.8981 221.242 99.9793 221.242 100.064C221.242 100.149 221.28 100.23 221.349 100.29C221.417 100.349 221.509 100.383 221.606 100.383C221.702 100.382 221.793 100.347 221.861 100.288C221.929 100.228 221.968 100.148 221.97 100.064C221.967 99.9865 221.932 99.9126 221.871 99.8562C221.811 99.7997 221.729 99.7645 221.641 99.7571L221.606 99.7448ZM191.142 110.517C191.094 110.517 191.047 110.525 191.003 110.541C190.959 110.557 190.918 110.58 190.885 110.61C190.851 110.64 190.824 110.675 190.806 110.714C190.787 110.752 190.778 110.794 190.778 110.836C190.763 110.883 190.76 110.933 190.77 110.982C190.78 111.03 190.803 111.076 190.837 111.116C190.871 111.155 190.915 111.187 190.966 111.209C191.016 111.231 191.072 111.243 191.128 111.243C191.184 111.243 191.24 111.231 191.29 111.209C191.341 111.187 191.385 111.155 191.419 111.116C191.452 111.076 191.476 111.03 191.486 110.982C191.496 110.933 191.493 110.883 191.478 110.836C191.477 110.762 191.447 110.69 191.392 110.634C191.337 110.578 191.26 110.54 191.177 110.529L191.142 110.517ZM196.679 110.517C196.582 110.517 196.49 110.55 196.422 110.61C196.353 110.67 196.315 110.751 196.315 110.836C196.315 110.92 196.353 111.002 196.422 111.061C196.49 111.121 196.582 111.155 196.679 111.155C196.775 111.153 196.866 111.119 196.934 111.06C197.002 111 197.041 110.92 197.043 110.836C197.04 110.756 197.003 110.681 196.939 110.624C196.876 110.567 196.79 110.533 196.7 110.529L196.679 110.517ZM202.216 110.517C202.168 110.517 202.121 110.525 202.078 110.541C202.034 110.557 201.994 110.581 201.961 110.61C201.928 110.64 201.902 110.675 201.884 110.714C201.867 110.753 201.858 110.794 201.859 110.836C201.859 110.899 201.881 110.961 201.921 111.014C201.961 111.066 202.018 111.107 202.085 111.131C202.152 111.155 202.226 111.161 202.297 111.148C202.367 111.135 202.432 111.104 202.483 111.059C202.533 111.014 202.568 110.956 202.581 110.894C202.594 110.832 202.586 110.767 202.557 110.709C202.529 110.651 202.481 110.602 202.42 110.567C202.359 110.533 202.288 110.515 202.216 110.517ZM207.76 110.517C207.712 110.517 207.665 110.525 207.621 110.541C207.577 110.557 207.536 110.58 207.503 110.61C207.469 110.64 207.442 110.675 207.424 110.714C207.405 110.752 207.396 110.794 207.396 110.836C207.38 110.883 207.378 110.933 207.388 110.982C207.398 111.03 207.421 111.076 207.455 111.116C207.489 111.155 207.533 111.187 207.584 111.209C207.634 111.231 207.69 111.243 207.746 111.243C207.802 111.243 207.858 111.231 207.908 111.209C207.959 111.187 208.003 111.155 208.037 111.116C208.07 111.076 208.094 111.03 208.104 110.982C208.114 110.933 208.111 110.883 208.096 110.836C208.095 110.762 208.065 110.69 208.01 110.634C207.955 110.578 207.878 110.54 207.795 110.529L207.76 110.517ZM213.297 110.517C213.249 110.517 213.202 110.525 213.158 110.541C213.114 110.557 213.073 110.58 213.04 110.61C213.006 110.64 212.979 110.675 212.961 110.714C212.942 110.752 212.933 110.794 212.933 110.836C212.933 110.92 212.971 111.002 213.04 111.061C213.108 111.121 213.2 111.155 213.297 111.155C213.393 111.153 213.484 111.119 213.552 111.06C213.62 111 213.659 110.92 213.661 110.836C213.658 110.758 213.623 110.684 213.562 110.628C213.502 110.571 213.42 110.536 213.332 110.529L213.297 110.517ZM218.834 110.517C218.786 110.517 218.739 110.525 218.696 110.541C218.652 110.557 218.612 110.581 218.579 110.61C218.546 110.64 218.52 110.675 218.502 110.714C218.485 110.753 218.476 110.794 218.477 110.836C218.477 110.899 218.499 110.961 218.539 111.014C218.579 111.066 218.636 111.107 218.703 111.131C218.77 111.155 218.844 111.161 218.915 111.148C218.985 111.135 219.05 111.104 219.101 111.059C219.151 111.014 219.186 110.956 219.199 110.894C219.212 110.832 219.204 110.767 219.175 110.709C219.147 110.651 219.099 110.602 219.038 110.567C218.977 110.533 218.906 110.515 218.834 110.517ZM224.378 110.517C224.281 110.517 224.189 110.55 224.121 110.61C224.052 110.67 224.014 110.751 224.014 110.836C224.013 110.89 224.03 110.943 224.063 110.989L224.721 110.756C224.703 110.695 224.663 110.64 224.608 110.6C224.553 110.559 224.485 110.534 224.413 110.529L224.378 110.517ZM188.37 106.901C188.316 106.888 188.259 106.885 188.203 106.895C188.148 106.904 188.096 106.924 188.051 106.954C188.006 106.983 187.969 107.022 187.944 107.066C187.919 107.11 187.906 107.159 187.906 107.208C187.906 107.258 187.919 107.306 187.944 107.351C187.969 107.395 188.006 107.433 188.051 107.463C188.096 107.493 188.148 107.513 188.203 107.522C188.259 107.531 188.316 107.529 188.37 107.515C188.424 107.529 188.481 107.531 188.537 107.522C188.592 107.513 188.644 107.493 188.689 107.463C188.734 107.433 188.771 107.395 188.796 107.351C188.821 107.306 188.834 107.258 188.834 107.208C188.834 107.159 188.821 107.11 188.796 107.066C188.771 107.022 188.734 106.983 188.689 106.954C188.644 106.924 188.592 106.904 188.537 106.895C188.481 106.885 188.424 106.888 188.37 106.901ZM193.907 106.901C193.835 106.901 193.764 106.92 193.704 106.956C193.644 106.991 193.597 107.041 193.57 107.1C193.543 107.159 193.536 107.223 193.551 107.285C193.565 107.347 193.601 107.404 193.652 107.448C193.704 107.493 193.769 107.523 193.84 107.534C193.911 107.546 193.985 107.539 194.051 107.514C194.118 107.489 194.174 107.447 194.213 107.393C194.252 107.34 194.272 107.278 194.271 107.214C194.268 107.138 194.233 107.065 194.172 107.009C194.111 106.954 194.029 106.92 193.942 106.914L193.907 106.901ZM199.451 106.901C199.378 106.9 199.307 106.918 199.246 106.953C199.185 106.987 199.137 107.037 199.109 107.096C199.081 107.154 199.073 107.219 199.087 107.281C199.101 107.344 199.135 107.401 199.187 107.446C199.238 107.491 199.303 107.522 199.375 107.534C199.446 107.546 199.52 107.539 199.587 107.514C199.653 107.489 199.71 107.447 199.75 107.394C199.789 107.341 199.809 107.278 199.808 107.214C199.805 107.14 199.773 107.07 199.717 107.015C199.66 106.96 199.584 106.924 199.5 106.914L199.451 106.901ZM204.988 106.901C204.934 106.888 204.877 106.885 204.821 106.895C204.766 106.904 204.714 106.924 204.669 106.954C204.624 106.983 204.587 107.022 204.562 107.066C204.537 107.11 204.524 107.159 204.524 107.208C204.524 107.258 204.537 107.306 204.562 107.351C204.587 107.395 204.624 107.433 204.669 107.463C204.714 107.493 204.766 107.513 204.821 107.522C204.877 107.531 204.934 107.529 204.988 107.515C205.042 107.529 205.099 107.531 205.155 107.522C205.21 107.513 205.262 107.493 205.307 107.463C205.352 107.433 205.389 107.395 205.414 107.351C205.439 107.306 205.452 107.258 205.452 107.208C205.452 107.159 205.439 107.11 205.414 107.066C205.389 107.022 205.352 106.983 205.307 106.954C205.262 106.924 205.21 106.904 205.155 106.895C205.099 106.885 205.042 106.888 204.988 106.901ZM210.525 106.901C210.453 106.901 210.382 106.92 210.322 106.956C210.262 106.991 210.215 107.041 210.188 107.1C210.161 107.159 210.154 107.223 210.169 107.285C210.183 107.347 210.219 107.404 210.27 107.448C210.322 107.493 210.387 107.523 210.458 107.534C210.529 107.546 210.603 107.539 210.669 107.514C210.736 107.489 210.792 107.447 210.831 107.393C210.87 107.34 210.89 107.278 210.889 107.214C210.886 107.138 210.851 107.065 210.79 107.009C210.729 106.954 210.647 106.92 210.56 106.914L210.525 106.901ZM216.069 106.901C215.996 106.9 215.925 106.918 215.864 106.953C215.803 106.987 215.755 107.037 215.727 107.096C215.699 107.154 215.691 107.219 215.705 107.281C215.719 107.344 215.753 107.401 215.805 107.446C215.856 107.491 215.921 107.522 215.993 107.534C216.064 107.546 216.138 107.539 216.205 107.514C216.271 107.489 216.328 107.447 216.368 107.394C216.407 107.341 216.427 107.278 216.426 107.214C216.423 107.139 216.389 107.066 216.329 107.011C216.27 106.956 216.19 106.921 216.104 106.914L216.069 106.901ZM221.606 106.901C221.552 106.888 221.495 106.885 221.439 106.895C221.384 106.904 221.332 106.924 221.287 106.954C221.242 106.983 221.205 107.022 221.18 107.066C221.155 107.11 221.142 107.159 221.142 107.208C221.142 107.258 221.155 107.306 221.18 107.351C221.205 107.395 221.242 107.433 221.287 107.463C221.332 107.493 221.384 107.513 221.439 107.522C221.495 107.531 221.552 107.529 221.606 107.515C221.66 107.529 221.717 107.531 221.773 107.522C221.828 107.513 221.88 107.493 221.925 107.463C221.97 107.433 222.007 107.395 222.032 107.351C222.057 107.306 222.07 107.258 222.07 107.208C222.07 107.159 222.057 107.11 222.032 107.066C222.007 107.022 221.97 106.983 221.925 106.954C221.88 106.924 221.828 106.904 221.773 106.895C221.717 106.885 221.66 106.888 221.606 106.901ZM227.143 106.901C227.071 106.901 227 106.92 226.94 106.956C226.88 106.991 226.833 107.041 226.806 107.1C226.779 107.159 226.772 107.223 226.787 107.285C226.801 107.347 226.837 107.404 226.888 107.448C226.94 107.493 227.005 107.523 227.076 107.534C227.147 107.546 227.221 107.539 227.287 107.514C227.354 107.489 227.41 107.447 227.449 107.393C227.488 107.34 227.508 107.278 227.507 107.214C227.504 107.138 227.468 107.065 227.408 107.009C227.347 106.954 227.265 106.92 227.178 106.914L227.143 106.901Z" fill="white"/>
<path d="M228.781 108.988C223.741 111.609 217.833 113.002 212.079 113.61C209.405 101.629 204.855 77.9558 203.784 72.3643C205.19 72.7223 206.52 73.2823 207.718 74.0215C210.648 75.8861 213.141 78.2284 215.061 80.9203C221.361 89.372 228.781 108.988 228.781 108.988Z" fill="#263238"/>
<path d="M212.569 77.1149C221.76 86.3215 234.465 102.139 229.635 106.097C221.69 112.597 197.435 117.452 191.87 118.373C189.462 118.766 183.589 105.134 185.08 103.25C186.571 101.365 212.38 98.6339 212.45 97.2284C212.499 96.4366 208.901 89.7771 205.758 81.485C202.125 71.9101 209.937 74.4695 212.569 77.1149Z" fill="#EB9481"/>
<path d="M189.238 101.85C189.238 101.85 181.804 102.218 176.953 102.66C174.244 102.906 169.652 103.691 167.755 104.667C164.955 106.128 154.147 113.831 156.219 116.163C158.095 118.275 166.397 110.639 166.397 110.639C166.397 110.639 157.241 117.71 160.041 119.883C162.841 122.056 170.898 112.321 170.898 112.321C170.898 112.321 161.679 119.766 164.962 121.614C167.447 123.007 175.322 114.549 175.322 114.549C175.322 114.549 167.447 121 169.932 122.528C172.676 124.216 180.502 116.814 180.502 116.814C187.558 119.772 192.304 118.655 195.566 117.495C196.357 117.231 189.238 101.85 189.238 101.85Z" fill="#EB9481"/>
<path d="M169.4 108.025C168.294 108.816 167.16 109.62 166.138 110.48C165.116 111.339 164.122 112.272 163.191 113.229C161.953 114.465 160.88 115.82 159.992 117.268C161.784 114.813 165.396 111.597 166.425 110.719C167.454 109.841 168.42 108.915 169.442 108.037C169.456 108.025 169.4 107.988 169.4 108.025Z" fill="#263238"/>
<path d="M173.082 111.192C171.682 112.266 170.282 113.279 169.001 114.408C167.72 115.537 166.565 116.685 165.347 117.882C165.256 117.974 165.347 117.986 165.438 117.882C166.705 116.734 167.979 115.752 169.267 114.617C170.555 113.481 171.787 112.297 173.11 111.204C173.131 111.204 173.103 111.173 173.082 111.192Z" fill="#263238"/>
<path d="M176.806 113.432C174.665 115.028 172.718 116.813 170.996 118.76C170.905 118.858 170.996 118.864 171.122 118.76C173.012 116.955 174.482 115.525 176.869 113.481C176.911 113.463 176.855 113.395 176.806 113.432Z" fill="#263238"/>
<path d="M184.205 102.083C180.81 102.255 177.331 102.433 173.964 102.85C171.042 103.136 168.248 104.058 165.837 105.533C163.564 107.077 161.456 108.799 159.537 110.676C158.433 111.624 157.452 112.676 156.611 113.813C156.142 114.506 155.456 115.599 156.205 116.268C157.115 117.108 160.181 116.065 163.282 113.26C163.394 113.162 163.317 113.107 163.198 113.199C158.816 116.753 156.94 116.476 156.415 115.936C156.079 115.592 156.331 114.942 156.576 114.445C156.978 113.724 157.484 113.052 158.081 112.444C160.052 110.325 162.267 108.39 164.689 106.668C167.286 104.752 170.448 103.52 173.81 103.114C177.254 102.672 180.81 102.709 184.226 102.224C184.296 102.188 184.275 102.083 184.205 102.083Z" fill="#263238"/>
<path d="M223.51 88.2365L207.725 89.0528C206.46 85.8829 205.484 82.6299 204.806 79.3245C204.764 79.1281 204.729 78.9317 204.694 78.7475C204.694 78.6862 204.694 78.6309 204.694 78.5757C203.805 73.4813 205.618 72.0696 211.239 76.0224C213.901 77.9203 216.351 80.0372 218.554 82.3443L218.757 82.5529C219.821 83.6577 220.717 84.6828 221.438 85.5482C221.585 85.7262 221.732 85.898 221.858 86.0638C222.922 87.3772 223.51 88.2365 223.51 88.2365Z" fill="#6E89BE"/>
<path d="M208.152 75.0777C208.153 75.1414 208.133 75.2041 208.093 75.2576C208.054 75.3111 207.997 75.353 207.93 75.378C207.864 75.4029 207.79 75.4098 207.719 75.3976C207.647 75.3855 207.582 75.3549 207.53 75.3098C207.479 75.2648 207.444 75.2072 207.43 75.1447C207.417 75.0821 207.424 75.0173 207.453 74.9586C207.481 74.8999 207.529 74.8501 207.59 74.8154C207.651 74.7808 207.722 74.7629 207.795 74.7641C207.889 74.7641 207.98 74.7971 208.047 74.8559C208.114 74.9147 208.152 74.9945 208.152 75.0777Z" fill="white"/>
<path d="M208.152 82.2467C208.152 82.3102 208.13 82.3722 208.09 82.4249C208.05 82.4776 207.992 82.5186 207.925 82.5426C207.859 82.5666 207.785 82.5726 207.714 82.5597C207.643 82.5469 207.579 82.5158 207.528 82.4705C207.477 82.4251 207.443 82.3676 207.43 82.3052C207.417 82.2428 207.425 82.1783 207.454 82.12C207.482 82.0617 207.53 82.0122 207.591 81.9778C207.652 81.9434 207.723 81.9257 207.795 81.9269C207.842 81.9269 207.889 81.9352 207.933 81.9514C207.977 81.9675 208.017 81.9912 208.05 82.0209C208.083 82.0507 208.109 82.086 208.127 82.1248C208.144 82.1635 208.153 82.205 208.152 82.2467Z" fill="white"/>
<path d="M213.332 82.5541C213.533 82.5541 213.696 82.411 213.696 82.2344C213.696 82.0578 213.533 81.9147 213.332 81.9147C213.131 81.9147 212.968 82.0578 212.968 82.2344C212.968 82.411 213.131 82.5541 213.332 82.5541Z" fill="white"/>
<path d="M205.023 78.9328C205.224 78.9328 205.387 78.7897 205.387 78.6131C205.387 78.4365 205.224 78.2933 205.023 78.2933C204.822 78.2933 204.659 78.4365 204.659 78.6131C204.659 78.7897 204.822 78.9328 205.023 78.9328Z" fill="white"/>
<path d="M210.56 78.9328C210.761 78.9328 210.924 78.7897 210.924 78.6131C210.924 78.4365 210.761 78.2933 210.56 78.2933C210.359 78.2933 210.196 78.4365 210.196 78.6131C210.196 78.7897 210.359 78.9328 210.56 78.9328Z" fill="white"/>
<path d="M210.56 86.0894C210.761 86.0894 210.924 85.9463 210.924 85.7697C210.924 85.5931 210.761 85.45 210.56 85.45C210.359 85.45 210.196 85.5931 210.196 85.7697C210.196 85.9463 210.359 86.0894 210.56 86.0894Z" fill="white"/>
<path d="M216.104 86.0894C216.305 86.0894 216.468 85.9463 216.468 85.7697C216.468 85.5931 216.305 85.45 216.104 85.45C215.903 85.45 215.74 85.5931 215.74 85.7697C215.74 85.9463 215.903 86.0894 216.104 86.0894Z" fill="white"/>
<path d="M221.83 86.0401C221.774 86.072 221.708 86.0891 221.641 86.0892C221.544 86.0892 221.452 86.0556 221.384 85.9956C221.315 85.9356 221.277 85.8543 221.277 85.7695C221.276 85.7223 221.288 85.6756 221.311 85.6329C221.334 85.5902 221.368 85.5528 221.41 85.5236C221.557 85.7019 221.704 85.874 221.83 86.0401Z" fill="white"/>
<path d="M198.492 50.3297C197.617 50.0412 196.777 45.7386 200.011 43.6886C203.245 41.6386 207.368 43.9771 205.611 47.5063C204.54 49.7159 200.354 50.9435 198.492 50.3297Z" fill="#263238"/>
<path d="M207.718 74.0214L207.669 74.0705C205.093 76.4888 199.906 80.8773 196.434 80.4967C195.406 80.3496 194.425 80.0138 193.555 79.5114C192.686 79.009 191.947 78.3513 191.387 77.5813C192.413 76.4444 193.531 75.3736 194.733 74.3774C198.8 70.6763 203.469 71.4865 207.718 74.0214Z" fill="#EB9481"/>
<path d="M202.734 73.3524C202.678 74.0091 199.934 78.6063 196.623 78.9255C195.538 79.0237 194.635 73.8557 194.635 73.8557L194.467 73.4874L192.15 68.3256L198.597 63.311L199.535 62.6359C199.535 62.6359 200.067 64.0844 200.704 65.895C200.704 65.9809 200.76 66.0607 200.795 66.1528C200.83 66.2449 200.872 66.3492 200.9 66.4474C200.998 66.7113 201.096 66.9875 201.194 67.2637C201.292 67.5399 201.334 67.6811 201.404 67.8775C201.474 68.0739 201.537 68.3133 201.614 68.5404C202.11 70.1206 202.484 71.7282 202.734 73.3524Z" fill="#EB9481"/>
<path d="M200.704 65.895C200.355 67.4817 199.617 68.9828 198.54 70.294C197.463 71.6051 196.073 72.6949 194.467 73.4874L192.15 68.3256L198.597 63.311L199.535 62.6359C199.535 62.6359 200.067 64.0844 200.704 65.895Z" fill="#263238"/>
<path d="M182.322 60.9173C183.022 70.6334 189.756 71.3515 192.122 71.2165C194.292 71.0937 201.656 70.4247 202.09 60.7025C202.524 50.9803 197.148 48.1937 192.171 48.249C187.194 48.3042 181.608 51.2074 182.322 60.9173Z" fill="#EB9481"/>
<path d="M184.261 59.3277C184.513 59.2663 184.737 59.1804 184.961 59.1006C185.232 59.0526 185.479 58.9275 185.661 58.7446C185.705 58.6787 185.722 58.602 185.711 58.5264C185.699 58.4509 185.66 58.3808 185.598 58.3272C185.455 58.2384 185.288 58.1838 185.114 58.1687C184.94 58.1536 184.764 58.1786 184.604 58.2413C184.261 58.3306 183.967 58.5271 183.778 58.7937C183.741 58.8576 183.725 58.9297 183.733 59.0012C183.741 59.0727 183.772 59.1406 183.823 59.1969C183.874 59.2532 183.943 59.2955 184.02 59.3187C184.098 59.3419 184.181 59.345 184.261 59.3277Z" fill="#263238"/>
<path d="M191.905 58.6279C191.648 58.6238 191.391 58.6074 191.135 58.5788C190.865 58.5954 190.597 58.5328 190.372 58.4009C190.309 58.347 190.267 58.2762 190.255 58.1996C190.242 58.1229 190.259 58.0448 190.302 57.9773C190.412 57.8585 190.557 57.7675 190.72 57.7136C190.884 57.6596 191.061 57.6448 191.233 57.6705C191.589 57.67 191.932 57.7885 192.192 58.0019C192.249 58.053 192.288 58.1176 192.304 58.1878C192.32 58.258 192.312 58.3308 192.282 58.3972C192.252 58.4636 192.2 58.5208 192.133 58.5618C192.066 58.6028 191.987 58.6258 191.905 58.6279Z" fill="#263238"/>
<path d="M190.813 61.2365C190.813 61.2365 190.876 61.2365 190.876 61.2856C190.939 61.9484 191.135 62.6972 191.842 62.8507V62.8875C190.995 62.863 190.75 61.8686 190.813 61.2365Z" fill="#263238"/>
<path d="M191.394 60.4815C192.591 60.2851 192.962 62.3965 191.849 62.5806C190.736 62.7648 190.4 60.6472 191.394 60.4815Z" fill="#263238"/>
<path d="M191.891 60.5306C192.122 60.6227 192.36 60.8068 192.591 60.7946C192.822 60.7823 193.074 60.5306 193.228 60.2913C193.228 60.2913 193.27 60.2913 193.277 60.2913C193.354 60.6964 193.277 61.1383 192.759 61.261C192.241 61.3838 191.933 61.0646 191.744 60.6472C191.737 60.6166 191.8 60.4938 191.891 60.5306Z" fill="#263238"/>
<path d="M186.081 61.5557C186.081 61.5557 186.025 61.5986 186.032 61.6232C186.172 62.2738 186.214 63.041 185.577 63.354C185.577 63.354 185.577 63.397 185.577 63.3909C186.396 63.1699 186.333 62.1572 186.081 61.5557Z" fill="#263238"/>
<path d="M185.29 60.9664C184.072 61.0523 184.366 63.1821 185.486 63.0962C186.606 63.0102 186.305 60.8927 185.29 60.9664Z" fill="#263238"/>
<path d="M184.8 61.1629C184.625 61.2918 184.464 61.5189 184.24 61.5557C184.016 61.5925 183.75 61.39 183.54 61.1874C183.582 61.5925 183.792 62.0038 184.24 62.0344C184.688 62.0651 184.905 61.6846 184.94 61.2672C184.954 61.212 184.87 61.1076 184.8 61.1629Z" fill="#263238"/>
<path d="M188.216 63.7898C187.811 63.8749 187.421 64.0048 187.054 64.1765C186.984 62.0958 187.292 60.0212 187.187 57.9466C187.187 57.9304 187.18 57.9147 187.166 57.9032C187.153 57.8917 187.135 57.8853 187.117 57.8853C187.098 57.8853 187.081 57.8917 187.067 57.9032C187.054 57.9147 187.047 57.9304 187.047 57.9466C186.633 60.1612 186.476 62.4068 186.578 64.6491C186.578 64.8762 188.237 63.9003 188.237 63.9003C188.237 63.9003 188.23 63.7898 188.216 63.7898Z" fill="#263238"/>
<path d="M201.404 61.5311C198.653 61.7827 196.679 54.5033 196.448 53.6072C196.56 54.178 197.148 57.2039 196.896 57.3574C196.602 57.388 196.304 57.3756 196.014 57.3206C195.954 56.957 195.863 56.5979 195.741 56.2464C195.692 56.0807 195.741 56.6208 195.741 57.2899L195.216 57.2285C195.122 56.4483 194.91 55.6826 194.586 54.9514C194.46 54.6752 194.586 55.9764 194.446 57.1426C192.015 56.8301 189.553 56.754 187.103 56.9155C186.403 56.9768 185.829 57.0566 185.311 57.1426C185.164 56.2464 185.129 55.3012 185.087 55.4915C184.969 56.0583 184.915 56.634 184.926 57.2101L184.156 57.3574C183.883 56.1298 184.247 53.9939 184.065 54.3315C183.532 55.3686 183.228 56.4849 183.169 57.6213C182.21 57.9098 181.965 58.1123 181.902 57.8914C181.801 55.3606 182.729 52.8808 184.52 50.8943C187.488 47.6474 194.201 46.1007 198.744 49.9798C198.744 49.9798 202.202 51.4038 203.168 54.2762C204.134 57.1487 203 61.3776 201.404 61.5311Z" fill="#263238"/>
<path d="M200.403 61.5433C200.403 61.5433 202.279 58.2228 203.959 58.7629C205.639 59.303 204.603 63.9002 202.881 64.7411C202.668 64.8612 202.43 64.9425 202.18 64.9801C201.931 65.0176 201.675 65.0107 201.429 64.9597C201.182 64.9087 200.95 64.8147 200.746 64.6833C200.542 64.5519 200.371 64.3857 200.242 64.1948L200.403 61.5433Z" fill="#EB9481"/>
<path d="M203.623 60.0764V60.1132C202.419 60.727 201.929 61.8686 201.642 63.0103C201.697 62.8881 201.782 62.7778 201.89 62.6871C201.998 62.5964 202.128 62.5273 202.27 62.4847C202.411 62.4421 202.562 62.427 202.711 62.4404C202.86 62.4538 203.004 62.4953 203.133 62.5622C203.14 62.5651 203.147 62.5698 203.151 62.5758C203.156 62.5818 203.158 62.5888 203.158 62.596C203.158 62.6031 203.156 62.6101 203.151 62.6161C203.147 62.6221 203.14 62.6269 203.133 62.6297C202.897 62.5947 202.654 62.6257 202.44 62.7182C202.225 62.8107 202.049 62.9601 201.936 63.1453C201.745 63.4525 201.595 63.7779 201.488 64.1151C201.446 64.2255 201.229 64.1949 201.25 64.0782V64.0475C200.977 62.6052 201.901 60.4508 203.623 60.0764Z" fill="#263238"/>
<path d="M188.181 65.4593C188.517 65.8211 188.953 66.102 189.448 66.2756C189.723 66.3523 190.019 66.3523 190.295 66.2756C190.904 66.1221 190.904 65.6618 190.778 65.2137C190.709 65.0003 190.613 64.7943 190.491 64.6C189.844 65.0938 189.035 65.3947 188.181 65.4593Z" fill="#263238"/>
<path d="M189.448 66.2879C189.723 66.3646 190.019 66.3646 190.295 66.2879C190.904 66.1345 190.904 65.6741 190.778 65.2261C190.452 65.2447 190.142 65.36 189.901 65.5529C189.659 65.7458 189.499 66.005 189.448 66.2879Z" fill="#FF9CBD"/>
<path d="M180.775 120.619H125.839V122.78H180.775V120.619Z" fill="#455A64"/>
<path d="M153.489 120.619H125.839V122.78H153.489V120.619Z" fill="#263238"/>
<path d="M150.514 122.78H96.978L89.978 90.8942H143.514L150.514 122.78Z" fill="#455A64"/>
<path d="M123.501 106.834C123.548 107.198 123.506 107.566 123.377 107.914C123.249 108.263 123.037 108.583 122.756 108.854C122.475 109.124 122.132 109.339 121.748 109.484C121.365 109.629 120.951 109.701 120.533 109.694C119.645 109.682 118.792 109.383 118.138 108.856C117.484 108.329 117.073 107.609 116.984 106.834C116.94 106.47 116.983 106.103 117.113 105.755C117.243 105.407 117.456 105.088 117.737 104.818C118.019 104.548 118.362 104.334 118.745 104.189C119.128 104.045 119.542 103.973 119.959 103.98C120.846 103.993 121.696 104.29 122.349 104.816C123.002 105.342 123.412 106.06 123.501 106.834Z" fill="#A6A6A6"/>
<path d="M218.484 117.747C218.034 118.7 217.223 119.488 216.188 119.978C215.152 120.468 213.955 120.629 212.8 120.435C212.319 120.354 211.849 120.227 211.4 120.055L212.233 118.361C212.476 118.457 212.729 118.533 212.989 118.588C213.709 118.745 214.469 118.668 215.13 118.373C215.791 118.078 216.309 117.583 216.587 116.98C217.504 115.237 217.196 111.652 215.642 110.511C215.537 110.425 215.138 110.326 213.731 110.842C213.472 110.94 213.178 111.051 212.849 111.192C212.597 111.317 212.329 111.416 212.051 111.486L211.82 110.59L211.526 109.706C211.617 109.676 211.757 109.614 211.939 109.535C212.579 109.249 213.243 109.009 213.927 108.816C214.984 108.54 216.139 108.467 216.993 109.099C219.506 110.965 219.632 115.562 218.484 117.747Z" fill="#FEC7A0"/>
<path d="M212.219 118.361C212.462 118.457 212.715 118.533 212.975 118.588L212.8 120.429C212.319 120.348 211.849 120.22 211.4 120.049L212.219 118.361Z" fill="#263238"/>
<path d="M213.913 108.816L213.717 110.842C213.458 110.94 213.164 111.051 212.835 111.192C212.583 111.317 212.315 111.416 212.037 111.486L211.806 110.59L211.512 109.706C211.603 109.676 211.743 109.614 211.925 109.535C212.565 109.249 213.23 109.009 213.913 108.816Z" fill="#263238"/>
<path d="M212.786 104.919L212.716 106.558L212.674 107.558L212.653 108.16L212.044 122.565H197.869L197.26 108.16L197.239 107.558L197.197 106.558L197.127 104.919H212.786Z" fill="#FEC7A0"/>
<path d="M212.786 104.919L212.716 106.558H197.197L197.127 104.919H212.786Z" fill="#455A64"/>
<path d="M212.674 107.558L212.653 108.161H197.26L197.239 107.558H212.674Z" fill="#455A64"/>
<path d="M115.094 126.647L114.919 138.744L112.994 271.43H110.831L108.906 138.744L108.731 126.647H115.094Z" fill="#455A64"/>
<path d="M108.731 126.647H115.094L114.919 138.744H108.906L108.731 126.647Z" fill="#263238"/>
<path d="M268.527 126.647L268.352 138.744L266.427 271.43H264.264L262.339 138.744L262.164 126.647H268.527Z" fill="#455A64"/>
<path d="M268.527 126.647L268.352 138.744H262.339L262.164 126.647H268.527Z" fill="#263238"/>
<path d="M93.0227 126.647L92.8477 138.744L90.9227 271.43H88.7597L86.8347 138.744L86.6597 126.647H93.0227Z" fill="#37474F"/>
<path d="M86.6597 126.647H93.0227L92.8477 138.744H86.8347L86.6597 126.647Z" fill="#263238"/>
<path d="M246.449 126.647L246.274 138.744L244.349 271.43H242.186L240.261 138.744L240.086 126.647H246.449Z" fill="#37474F"/>
<path d="M240.086 126.647H246.449L246.274 138.744H240.261L240.086 126.647Z" fill="#263238"/>
<path d="M241.682 229.448H89.8447V231.903H241.682V229.448Z" fill="#37474F"/>
<path d="M272.307 122.565H252.637V129.568H272.307V122.565Z" fill="#455A64"/>
<path d="M252.637 122.565H79.7158V129.568H252.637V122.565Z" fill="#37474F"/>
<path d="M115.122 195.402C103.859 209.629 92.1622 226.091 89.7612 243.645C89.7612 243.909 90.2232 243.982 90.2792 243.718C91.4725 238.921 93.0514 234.203 95.0042 229.601C102.655 227.545 110.173 225.827 114.002 219.014C117.901 212.011 117.082 203.056 116.046 195.537C115.976 195.132 115.353 195.132 115.122 195.402Z" fill="#FEC7A0"/>
<path d="M94.7522 229.276C99.9392 218.873 106.617 208.408 115.15 199.815C115.206 199.76 115.297 199.815 115.248 199.901C109.648 206.008 105.448 212.649 101.318 219.407C105.175 215.92 109.403 212.796 113.057 209.107C113.127 209.04 113.239 209.107 113.176 209.212C109.55 213.079 105.595 217.283 100.856 220.155C99.5962 222.23 98.3246 224.307 97.0412 226.385C97.3562 226.232 97.6852 226.091 98.0142 225.943C98.0702 225.943 98.1192 225.992 98.0632 226.017C97.6992 226.183 97.3632 226.355 96.9712 226.496C96.3622 227.478 95.7532 228.466 95.1302 229.448C94.9902 229.681 94.6402 229.497 94.7522 229.276Z" fill="#263238"/>
<path d="M98.644 225.63C101.786 224.064 104.782 222.283 107.604 220.303C107.681 220.247 107.793 220.346 107.716 220.401C104.982 222.503 101.983 224.323 98.777 225.827C98.63 225.87 98.497 225.704 98.644 225.63Z" fill="#263238"/>
<path d="M88.333 245.283C88.333 245.498 88.774 245.48 88.76 245.283C88.634 239.526 88.3889 233.751 88.2909 227.969C89.8729 224.955 93.429 223.218 95.858 220.769C97.6054 218.984 99.1111 217.027 100.345 214.938C103.199 209.951 104.867 204.507 105.245 198.937C105.735 192.769 102.403 172.545 99.4629 173.312C97.9439 173.717 93.31 183.9 92.106 187.257C90.1542 192.793 88.7789 198.474 87.9969 204.228C86.0509 217.799 86.709 231.694 88.333 245.283Z" fill="#FEC7A0"/>
<path d="M87.5003 220.475C87.6193 213.189 89.2503 205.793 90.7623 198.692C92.4003 191.038 94.3673 183.82 98.6093 176.927C98.6863 176.798 98.9033 176.927 98.8333 177.038C96.0415 182.387 93.9288 187.99 92.5333 193.745C92.8203 193.327 93.1703 192.934 93.4713 192.517C93.5833 192.364 93.8773 192.517 93.7653 192.658C93.387 193.283 92.9392 193.873 92.4283 194.42C92.4077 194.424 92.386 194.424 92.3653 194.42C91.0143 199.895 90.0903 205.468 89.3343 211.053C89.3973 210.979 89.4673 210.9 89.5373 210.832C89.6073 210.765 89.6633 210.832 89.6353 210.894C89.5233 211.084 89.3973 211.268 89.2783 211.452C88.8933 214.282 88.5783 217.099 88.1933 219.898C93.7933 215.466 98.4833 210.298 101.031 204.007C101.031 203.976 101.094 204.007 101.087 204.007C98.6023 210.531 94.5353 216.375 88.1233 220.456C88.0253 221.211 87.9343 221.966 87.8363 222.715C87.8363 222.868 87.5283 222.838 87.5283 222.715C87.5283 222.052 87.5283 221.389 87.5283 220.72C87.5048 220.708 87.4849 220.691 87.4702 220.671C87.4555 220.65 87.4465 220.627 87.4437 220.604C87.441 220.58 87.4447 220.556 87.4545 220.533C87.4644 220.511 87.4801 220.491 87.5003 220.475Z" fill="#263238"/>
<path d="M89.8099 209.862C94.0099 204.038 97.8879 198.379 100.877 191.983C100.877 191.909 101.045 191.983 101.017 192.032C98.5319 198.379 94.9689 204.829 90.0339 210.004C89.9359 210.108 89.7259 209.979 89.8099 209.862Z" fill="#263238"/>
<path d="M94.9901 190.719C96.7051 187.865 98.5251 185.084 100.128 182.175C100.177 182.095 100.303 182.175 100.268 182.242C98.9714 185.261 97.295 188.143 95.2701 190.835C95.247 190.859 95.2159 190.874 95.1816 190.881C95.1472 190.887 95.1114 190.883 95.0797 190.87C95.048 190.857 95.0221 190.835 95.0059 190.808C94.9897 190.78 94.9842 190.749 94.9901 190.719Z" fill="#263238"/>
<path d="M94.318 191.959C94.36 191.959 94.36 192.002 94.318 192.009C94.276 192.015 94.283 191.959 94.318 191.959Z" fill="#263238"/>
<path d="M84.8749 227.944C84.9123 231.76 84.5231 235.569 83.7129 239.318C83.7969 239.723 83.8739 240.128 83.9579 240.545C85.1899 236.384 85.8689 228.165 85.8619 227.466C85.8588 221.728 85.1832 216.006 83.8459 210.39C81.4659 199.87 76.6919 189.835 68.0259 182.157C67.9546 182.106 67.8712 182.071 67.7819 182.053C67.6927 182.035 67.6 182.036 67.5109 182.054C67.4219 182.072 67.3387 182.108 67.2678 182.159C67.197 182.21 67.1402 182.274 67.1019 182.347C63.9589 189.995 65.4429 198.992 68.5789 206.462C70.2836 210.495 72.6487 214.289 75.5999 217.725C78.6239 221.205 82.4039 224.12 84.8749 227.944Z" fill="#FEC7A0"/>
<path d="M69.1392 185.637C77.4762 196.771 83.4682 210.077 84.5882 223.451C84.5882 223.691 84.1542 223.764 84.1052 223.519C83.8742 222.322 83.6292 221.137 83.3702 219.953C79.9822 217.271 76.5032 214.429 74.0252 211.035C73.9832 210.979 74.0812 210.906 74.1372 210.955C77.0982 213.76 79.8702 216.632 83.1952 219.112C82.5326 216.166 81.7532 213.269 80.8572 210.421L80.2062 209.807C80.0662 209.666 80.2902 209.451 80.4372 209.592L80.6332 209.77C79.3763 205.854 77.8546 202.007 76.0762 198.25C73.9762 196.181 71.6452 194.407 70.0842 191.885C70.08 191.873 70.0805 191.86 70.0855 191.849C70.0905 191.837 70.0998 191.827 70.112 191.821C70.1241 191.815 70.1383 191.812 70.1523 191.814C70.1663 191.815 70.1793 191.821 70.1892 191.83C71.4212 193.26 72.6252 194.702 74.0112 196.022C74.5712 196.55 75.1732 197.041 75.7472 197.556C73.7781 193.491 71.4664 189.56 68.8312 185.796C68.8168 185.761 68.8167 185.723 68.831 185.688C68.8453 185.653 68.8732 185.623 68.9097 185.604C68.9463 185.585 68.9892 185.578 69.0311 185.584C69.073 185.59 69.1113 185.609 69.1392 185.637Z" fill="#263238"/>
<path d="M71.2112 199.582C73.8852 202.558 76.9162 205.382 79.4152 208.463C79.4852 208.549 79.3382 208.647 79.2472 208.58C76.0902 206.124 73.3742 202.736 71.0362 199.674C70.9662 199.582 71.1272 199.477 71.2112 199.582Z" fill="#263238"/>
<path d="M79.8 209.157L79.9189 209.249C79.9959 209.316 79.877 209.421 79.8 209.359L79.688 209.261C79.604 209.2 79.716 209.089 79.8 209.157Z" fill="#263238"/>
<path d="M55.8251 204.387C56.6581 210.2 60.3891 217.08 64.8061 221.469C66.7588 223.376 69.1426 224.906 71.8061 225.962C74.8021 227.189 77.9451 228.564 81.0321 229.534C82.5906 232.741 83.7817 236.076 84.5881 239.489C84.6721 239.195 84.7631 238.876 84.8541 238.593C82.4041 223.863 71.0851 211.526 56.8541 203.78C56.7417 203.726 56.6147 203.701 56.4871 203.707C56.3594 203.712 56.2358 203.748 56.1298 203.81C56.0238 203.873 55.9393 203.96 55.8856 204.062C55.8319 204.163 55.811 204.276 55.8251 204.387Z" fill="#FEC7A0"/>
<path d="M60.7881 208.61C60.6901 208.537 60.7881 208.377 60.9281 208.445C68.4741 213.054 75.3621 219.885 79.3241 227.189C79.4361 227.386 79.1211 227.576 78.9811 227.374C78.2811 226.398 77.5811 225.446 76.8811 224.507C73.6821 224.059 70.5811 222.175 68.1801 220.37C68.1171 220.321 68.1801 220.235 68.2711 220.284C69.521 221.225 70.9016 222.023 72.3801 222.66C73.719 223.154 75.0858 223.589 76.4751 223.961C75.2361 222.353 73.9551 220.812 72.6251 219.315C69.1671 218.382 65.8421 216.62 62.9021 214.846C62.8111 214.791 62.9021 214.656 62.9931 214.705C65.9199 216.157 68.9317 217.472 72.0161 218.646C69.9989 216.448 67.832 214.359 65.5271 212.391C64.4281 211.919 63.3151 211.44 62.2511 210.93C62.2364 210.92 62.2258 210.905 62.221 210.889C62.2162 210.873 62.2174 210.855 62.2244 210.84C62.2314 210.824 62.2438 210.811 62.2599 210.802C62.276 210.793 62.295 210.788 62.3141 210.789C63.1945 211.033 64.0383 211.369 64.8271 211.79C63.5461 210.716 62.2161 209.648 60.7881 208.61Z" fill="#263238"/>
<path d="M61.2573 213.699C61.4488 213.794 61.6314 213.903 61.8033 214.024C61.8523 214.061 61.8033 214.122 61.7403 214.098C61.5393 214.027 61.347 213.938 61.1663 213.834C61.1503 213.821 61.1398 213.805 61.1364 213.786C61.133 213.768 61.1371 213.749 61.1479 213.733C61.1587 213.717 61.1756 213.705 61.1955 213.698C61.2155 213.692 61.2374 213.692 61.2573 213.699Z" fill="#263238"/>
<path d="M101.815 230.639L101.255 241.865L99.7148 272.658H74.8998L73.3598 241.865L72.7998 230.639H101.815Z" fill="#37474F"/>
<path d="M101.815 230.639L101.255 241.865H73.3598L72.7998 230.639H101.815Z" fill="#263238"/>
<path d="M103.95 228.337H70.665V235.414H103.95V228.337Z" fill="#37474F"/>
</svg>
