<svg width="30" height="23" viewBox="0 0 30 23" fill="none" xmlns="http://www.w3.org/2000/svg">
<path fill-rule="evenodd" clip-rule="evenodd" d="M16.6957 12.3913C18.7367 12.3913 20.3913 10.7367 20.3913 8.69566C20.3913 6.6546 18.7367 5 16.6957 5C14.6546 5 13 6.6546 13 8.69566C13 10.7367 14.6546 12.3913 16.6957 12.3913ZM16.6957 22C18.7367 22 20.3913 20.3454 20.3913 18.3044C20.3913 16.2633 18.7367 14.6087 16.6957 14.6087C14.6546 14.6087 13 16.2633 13 18.3044C13 20.3454 14.6546 22 16.6957 22ZM29.9995 8.69566C29.9995 10.7367 28.3449 12.3913 26.3038 12.3913C24.2628 12.3913 22.6082 10.7367 22.6082 8.69566C22.6082 6.6546 24.2628 5 26.3038 5C28.3449 5 29.9995 6.6546 29.9995 8.69566ZM26.3038 22C28.3449 22 29.9995 20.3454 29.9995 18.3044C29.9995 16.2633 28.3449 14.6087 26.3038 14.6087C24.2628 14.6087 22.6082 16.2633 22.6082 18.3044C22.6082 20.3454 24.2628 22 26.3038 22Z" fill="#A9B0CC"/>
</svg>
